<svg xmlns="http://www.w3.org/2000/svg" viewBox="0 0 128 128"><style>.logo-path-1{fill-rule:evenodd;clip-rule:evenodd;fill:rgba(225,45,130,1);}</style><path class="logo-path-1" d="M8.8 0h110.7c.1 0 .3 0 .4.1.2 0 .4 0 .6.1.5.1 1.1.2 1.5.4.9.4 1.7.8 2.5 1.4.2.1.4.3.6.5.3.2.6.6.9.9.1.2.3.4.5.6.4.5.7 1.2 1 1.8.2.4.3.9.5 1.4V118c0 .6.1 1.4-.1 1.9v.4c-.1.6-.2 1.2-.4 1.7-.3.6-.5 1.2-.9 1.7-.2.3-.4.6-.6.8-.2.3-.4.5-.7.8-.1.1-.2.2-.2.3-.4.3-.8.7-1.3 1-.8.5-1.8.9-2.8 1.2-.9.2-2 .2-3.1.2H10.3c-1.2 0-2.4 0-3.4-.3-.5-.2-.9-.3-1.3-.5-1.3-.6-2.6-1.6-3.4-2.6-.4-.6-.9-1.1-1.1-1.8-.3-.6-.5-1.2-.6-1.9-.1-.3-.1-.7-.2-1v-.5-.2-.6-1.2-4.9-19.3C0 72.1 0 51 0 29.9V13.4 10v-.8-.4-.2-.3c.1-.3.1-.7.2-1 .1-.5.2-.9.3-1.3.1-.2.2-.5.3-.7.1-.2.2-.3.3-.4.2-.3.4-.7.6-1 .1-.3.3-.5.5-.7l.2-.2.6-.6.2-.2c.2-.2.5-.4.7-.5C4.5 1.2 5.2.9 6 .5c.4-.2.9-.3 1.4-.4.2 0 .3 0 .5-.1.2 0 .4 0 .6-.1.1.1.2.1.3.1zm.1 3.1c-.2 0-.4 0-.7.1-.4 0-.8.1-1.1.2-1.6.6-2.8 1.7-3.5 3.2-.2.4-.3.8-.4 1.2 0 .2-.1.4-.1.6-.1.3 0 .6 0 .9v110.1c0 .2.1.4.1.6.1.4.2.9.4 1.2.8 1.9 2.2 3 4.3 3.6.7.2 1.8.1 2.7.1H117.7c.9 0 1.8.1 2.5-.1s1.3-.4 1.9-.8c.4-.2.7-.5 1-.8.1-.1.1-.2.2-.2l.1-.1c.1-.1.1-.2.2-.3.1-.2.3-.4.4-.6.2-.3.4-.7.6-1.1.2-.4.2-.8.3-1.3v-.4c.1-.3 0-.9 0-1.3v-3V97 27.9 13.4 9.9c0-.8 0-1.6-.1-2.2-.2-.8-.5-1.6-1-2.2-.1-.2-.3-.3-.4-.5l-.1-.1c-.2-.2-.5-.5-.7-.6-.5-.4-1-.7-1.7-.9-.3-.1-.7-.2-1-.3-.2 0-.3 0-.5-.1s-.5 0-.8 0H91.7c-27.6.1-55.2.1-82.8.1zm38.3 6.1H59.6c.2 0 .4.1.6.1.3.1.5.4.6.7.1.2.1.6 0 .9v.4c-.1.3-.1.7-.2 1-.1.5-.2 1-.4 1.5-.5 1.4-1.1 2.7-1.8 3.8-.4.6-.8 1-1.2 1.6-.1.2-.2.6-.1.9.1.3.3.6.5.8.2.3.5.6.7.9.6.9 1.2 2 1.6 3.1.3.8.5 1.7.8 2.7.1.4.1.9.2 1.4 0 .5.1 1 .1 1.5v4.1c0 .6 0 1.1-.2 1.5-.4.6-1.5.5-2.6.5h-6.5c-.9 0-2-.1-2.5.3-.2.2-.3.4-.4.8 0 .1-.1.5 0 .7.1.5.2.8.5 1 .5.3 1.7.2 2.5.2h7.9c.2 0 .4 0 .6.1.3.1.5.3.6.6.1.3.1.8.1 1.3V46.3c0 1.2.1 2.1-.8 2.3-.1 0-.3.1-.4.1H52.2c-1 0-2.4-.1-3 .3-.3.2-.3.6-.4 1v.7c.1.3.2.6.4.8.5.4 1.6.3 2.5.3h6.5c1 0 2.1-.1 2.5.5.4.5.3 1.5.3 2.3v3.8c0 .7.1 1.6-.2 2.1-.2.2-.4.4-.7.5-.4.1-.8.1-1.3.1H48c-.7 0-1.3 0-1.7-.2-.3-.2-.4-.6-.5-1v-.6c.1-.4.1-.6.3-.8.5-.5 1.6-.4 2.6-.4h6.1c1 0 2.1.1 2.7-.3.4-.3.6-1.3.3-1.9-.1-.3-.3-.6-.6-.7-.5-.2-1.7-.1-2.5-.1h-7.1c-.4 0-.8 0-1.1-.1-.9-.3-.8-1.2-.8-2.3v-2.8V48c0-.5 0-.9.1-1.3.1-.3.3-.5.6-.6.2-.1.4-.1.6-.1h7.9c.8 0 2 .1 2.5-.2.4-.2.4-.6.5-1v-.7c-.1-.3-.2-.6-.4-.8-.5-.4-1.5-.3-2.4-.3H47c-.4-.1-.7-.2-.9-.5-.3-.5-.2-1.4-.2-2.1v-3.6c0-.6-.1-1.4.1-1.9.1-.4.3-.7.7-.8.2-.1.4-.1.6-.1h7.9c.9 0 2 .1 2.6-.3.2-.2.3-.5.4-.9v-.3-.7-.8-.7-.5c-.1-.5-.1-1-.2-1.4-.2-.5-.3-1.1-.5-1.6-.3-.8-.7-1.6-1.2-2.3-.4-.6-.9-1.6-1.7-1.8-.5-.1-1.2.2-1.4.4l-.6.3c-.2.1-.3.2-.5.2-.4.2-.8.3-1.2.5-.3.1-.5.1-.8.2-.5.2-1 .2-1.6.3-.2 0-.4 0-.6.1-.3.1-.9.1-1.1-.1-.4-.2-.5-.4-.6-.9 0-.1-.1-.5 0-.7.1-.5.1-.8.5-1 .3-.2.7-.3 1.1-.3h.3c.5-.1 1.1-.2 1.6-.4s1.3-.4 1.4-.9c0-.2-.1-.3-.1-.4-.2-.2-.4-.4-.7-.5-.5-.2-1-.3-1.5-.5-.2-.1-.5-.1-.7-.1h-.3c-.5-.1-1-.2-1.3-.5-.4-.5-.4-1.9.1-2.2.4-.3 1-.3 1.6-.2.1 0 .3 0 .4.1l1.5.3c1 .3 2 .6 2.9 1.1.4.2.7.4 1.2.5.2.1.5 0 .7 0 .4-.1.6-.4.8-.7.1-.2.3-.4.4-.5.2-.3.4-.6.6-1 .3-.5.5-1 .8-1.6.1-.2.2-.5.1-.7-.1-.3-.2-.5-.4-.6-.4-.3-1.7-.2-2.4-.2h-5.6c-.8 0-1.9.1-2.5-.2-.6-.4-.7-1.7-.3-2.3.2-.2.5-.3.8-.4-.3-.6-.1-.6 0-.6zm21.4 0h48.2c.7 0 1.3 0 1.7.4.4.4.4 1.3.4 2.1v41c0 .7 0 1.3-.2 1.8-.4.7-1.5.5-2.6.5H71.4c-.3.1-.5.1-.7.2-.3.2-.4.4-.5.8v.8c.1.4.1.8.4 1 .6.4 1.9.3 2.9.3H116c.8 0 1.9-.1 2.4.2.6.4.7 1.9.2 2.5-.3.3-1 .4-1.7.4H70.2c-1 0-2.2.1-2.7-.4-.4-.4-.4-1.3-.4-2.1v-3.8-.9-.5-.2c0-.1 0-.2.1-.3.1-.3.2-.6.5-.7.5-.3 1.3-.2 2.1-.2h31.1c.9 0 1.8.1 2.3-.3.2-.1.3-.4.4-.7v-.3-.5c-.1-.5-.2-.8-.5-1-.4-.3-1.3-.2-2-.2H70c-.8 0-1.8.1-2.3-.2-.3-.2-.4-.5-.5-.9v-.4-.5-1-3.7c0-.8-.1-1.7.4-2.1.4-.4 1.2-.4 2.1-.4h32c.6 0 1.3 0 1.7-.2.4-.2.5-.7.5-1.3V38c-.1-.4-.2-.7-.5-.9-.4-.3-1.3-.2-2-.2H70c-1.2 0-2.2.1-2.5-.8-.2-.5-.1-1.3-.1-2v-3.8c0-.8-.1-1.7.4-2.1.4-.4 1.2-.4 2.1-.4H100.6c1 0 2.3.1 2.9-.3.3-.2.4-.7.4-1.3v-.4c-.1-.3-.2-.7-.4-.9-.5-.4-1.6-.3-2.6-.3H69.8c-.9 0-1.8 0-2.1-.5-.3-.4-.2-1.3-.2-2v-4.3c0-.8 0-1.6.5-2 .5-.4 1.4-.3 2.3-.3H101.1c.9 0 2 .1 2.6-.3.2-.1.3-.4.4-.7v-.3-.5c-.1-.5-.2-.8-.5-1-.5-.3-1.5-.2-2.3-.2H68.9c-.2 0-.4 0-.6-.1-.3-.1-.5-.4-.6-.7-.2-.6-.1-1.5.3-1.8.2-.2.4-.3.7-.3-.5-.4-.2-.4-.1-.4zm-58.2 0c.6 0 1.1.1 1.4.3.5.5.4 1.6.4 2.5v6.1c0 .9-.1 2.1.2 2.7.2.3.5.4.9.5H14.2c.2-.1.4-.1.6-.2.6-.4.4-1.7.4-2.6V12c0-1.2-.1-2.2.7-2.6.2-.1.4-.1.6-.1.2 0 .6 0 .7.1.4.1.6.2.8.5.3.5.2 1.7.2 2.5v6.1c0 .8-.1 2.1.2 2.6.2.4.6.4 1 .5h.8c.3-.1.6-.2.8-.5.3-.5.2-1.8.2-2.6v-6.2c0-.8-.1-1.8.2-2.3.2-.3.4-.4.8-.5.2 0 .5-.1.7-.1.2 0 .4 0 .6.1.3.1.5.3.6.6.1.2.1.4.1.6v12c0 .4 0 .8-.1 1.1-.1.2-.2.4-.3.5-.4.4-1 .4-1.7.4h-2c-.5 0-1 0-1.3.1-.3.1-.5.5-.6.9 0 .2-.1.6 0 .8 0 .2 0 .3.1.4.1.4.4.7.9.8.3.1.7.1 1.1.1h1.8c1 0 1.8 0 2.1.7.2.5.1 1.7.1 2.4v27.9c0 1.2.1 2.1-.8 2.4-.1 0-.3.1-.5.1h-.6c-.4-.1-.6-.1-.8-.3-.4-.4-.4-1.4-.4-2.2V56 37.5v-4.1c0-.8 0-1.6-.3-2.1-.1-.2-.4-.3-.7-.4h-.8c-.5.1-.8.2-1 .5-.3.4-.2 1.3-.2 2v25.7c0 .7 0 1.4-.2 1.8-.2.4-.6.4-1.1.5H16.3c-.3-.1-.5-.1-.7-.3-.4-.4-.4-1.2-.4-1.9v-4.1-19-2.8c0-.7 0-1.4-.3-1.8-.3-.4-.9-.5-1.6-.4-.3 0-.6.1-.7.3-.4.3-.4 1.1-.4 1.9V59.1c0 .7.1 1.6-.2 2-.2.4-.6.4-1 .5-.2 0-.6 0-.7-.1-.4-.1-.6-.2-.8-.5-.2-.4-.2-.9-.2-1.5v-2.3-14.9-9.8-2.4c0-.6 0-1.2.2-1.5.3-.5 1-.5 1.8-.5h2c.4 0 .9 0 1.2-.1.4-.1.7-.4.8-.9v-.3-.8c-.1-.4-.3-.7-.6-.9-.4-.2-.9-.1-1.4-.1h-2c-.5 0-1 0-1.3-.1-.3-.1-.6-.4-.7-.8-.1-.4-.1-.9-.1-1.3v-2.3-7.1V12v-.7-.2c.1-.3.1-.5.2-.7.1-.9.3-1.1.6-1.2h.4zm18.3 0c.8 0 1.4.1 1.6.7.1.4.1.9.1 1.4v2c0 .5 0 1 .1 1.3.1.3.5.5.9.6.2 0 .6.1.8 0 .2 0 .3 0 .4-.1.4-.1.7-.4.8-.9.1-.3.1-.7.1-1.1v-2c0-.5 0-1 .1-1.3.1-.3.4-.5.7-.6.2-.1.4-.1.6-.1.6 0 1.1.1 1.4.5.2.3.2.9.2 1.5v2c0 .4 0 .9.1 1.2.1.4.4.6.7.7.1 0 .3 0 .4.1h.7c.5-.1.8-.2.9-.6.1-.4.1-.9.1-1.4v-2c0-.5 0-1 .1-1.3.1-.3.4-.5.7-.6.8-.2 1.7 0 2.1.3.4.4.4 1.4.4 2.2v4.2c0 1.1 0 1.9-.7 2.2-.3.1-.8.1-1.3.1h-2c-.5 0-1 0-1.4.1-.3.1-.5.4-.6.7 0 .1 0 .3-.1.4v.7c.1.5.2.8.6.9.4.2.9.1 1.4.1h2c.5 0 1 0 1.3.1.3.1.5.4.6.7.2.6.1 1.5-.3 1.8-.1.1-.3.2-.5.3-.3.1-.7.1-1.1.1H29.3c-.4 0-.8 0-1.1-.1-.2-.1-.4-.2-.6-.4-.3-.4-.4-1.3-.2-1.8.1-.3.3-.5.6-.6.3-.1.8-.1 1.3-.1h2c.5 0 1 0 1.4-.1.3-.1.5-.4.6-.7 0-.1 0-.3.1-.4v-.7c-.1-.5-.2-.8-.6-.9-.4-.2-.9-.1-1.4-.1h-2c-.6 0-1.1 0-1.5-.2-.6-.3-.5-1.1-.5-2v-4.2c0-.6-.1-1.5.1-1.9.1-.3.4-.5.7-.6.2-.1.4-.1.5-.1zm79.4 3h-.2c-.1 0-.3 0-.4.1-.4.1-.7.4-.8.9-.1.3-.1.7-.1 1.1v2c0 .5 0 .9-.1 1.3-.1.3-.4.6-.8.7-.3.1-.7.1-1.1.1H73c-.9 0-1.9-.1-2.4.3-.3.2-.5.9-.4 1.5v.3c.1.4.3.7.6.9.5.2 1.4.1 2.1.1H104.2c.8 0 1.7-.1 2.1.4.4.4.4 1.2.4 2.1v4c0 .6.1 1.5-.1 2-.3.8-1.2.7-2.3.7H72.9c-.9 0-1.8-.1-2.3.3-.3.2-.5.9-.4 1.5v.3c.1.4.3.7.6.9.5.2 1.4.1 2.2.1h31.2c.8 0 1.7-.1 2.1.4.4.4.4 1.2.4 2.1v5.4c-.1.5-.1.8-.5 1-.4.3-1.3.2-2.1.2H72.7c-.8 0-1.7-.1-2.2.2-.6.4-.7 1.8-.2 2.4.3.4 1 .4 1.7.4h32.2c.7 0 1.4 0 1.9.2.5.3.5 1.1.5 1.9v1.9c0 .5 0 1 .1 1.3.1.3.4.5.7.6.5.2 1.5.1 2.1.1h3.8c1.2 0 2 .1 2.4-.8.1-.3.1-.7.1-1.1v-1.6-5.9V22v-6.5c0-1 .1-2.2-.3-2.8-.4-.5-1.3-.4-2.1-.4-1.8-.1-3.6-.1-5.3-.1zm2.9 3.1c.6 0 1.2.1 1.4.4.3.4.3 1.2.3 1.9V46c0 .8.1 1.7-.2 2.1-.2.4-.6.4-1 .5H110.9c-.3-.1-.6-.2-.8-.4-.3-.5-.3-1.4-.3-2.2v-4.7-19.1-4.4c0-.7-.1-1.6.2-2.1.1-.2.4-.4.6-.5 0 .1.3.1.4.1zM28.9 27.4h11.7c.7 0 1.3 0 1.7.4.4.4.4 1.2.4 2v4.4c0 .8 0 1.6-.4 2-.2.2-.5.3-.8.3h-.7c-.1 0-.3 0-.4.1-.4.1-.7.4-.8.9v.6c0 .7.3 1.2.8 1.4.3.1.8 0 1.1.1.4.1.6.2.8.5.3.5.2 1.3.2 2.1V47.4c0 .1-.1.3-.1.4-.1.3-.3.6-.6.7-.4.2-.9.1-1.3.2-.5.1-.8.4-.9.8-.2.6-.1 1.5.2 1.8.2.2.4.3.7.3.2.1.5 0 .8.1.4.1.8.1 1 .4.3.5.3 1.4.3 2.2v4.2c0 1.1 0 1.9-.7 2.2-.5.2-1.5.1-2.2.1-.9 0-2.1.1-2.7-.2-.2-.1-.3-.4-.4-.6 0-.1 0-.2-.1-.3 0-.1-.1-.5 0-.6.1-.4.1-.8.4-1 .5-.4 1.5-.2 2.1-.5.2-.1.3-.3.4-.5.2-.4.2-1.3 0-1.7-.2-.4-.5-.6-1-.7h-5.3c-.7 0-1.7-.1-2.1.2-.3.2-.5.5-.6 1v.6c0 .2 0 .3.1.4.1.4.4.7.9.8.4.1 1 0 1.3.2.3.1.5.4.6.7 0 .1.1.3.1.4v.6c0 .1 0 .2-.1.3-.1.3-.2.5-.5.6-.5.3-1.9.2-2.8.2-.9 0-1.9.1-2.4-.4-.4-.4-.4-1.2-.4-2v-4.2c0-.7-.1-1.6.2-2 .2-.3.5-.4.9-.5.4-.1.8 0 1.1-.1.4-.1.6-.4.7-.7.1-.2.1-.4.1-.6 0-.8-.2-1.3-.8-1.5-.3-.1-.8 0-1.1-.1-.4-.1-.6-.2-.8-.5-.3-.5-.2-1.4-.2-2.1v-3.7c0-.6-.1-1.4.1-1.9.1-.4.4-.7.8-.9.5-.1 1.1-.1 1.5-.2.3-.1.5-.4.6-.7 0-.1 0-.3.1-.4v-.5c0-.2 0-.3-.1-.4-.1-.4-.4-.7-.9-.8-.2-.1-.5 0-.8-.1-.4-.1-.8-.1-1-.4-.3-.4-.3-1.2-.3-2v-4.1c0-.7-.1-1.6.2-2 .2-.3.4-.4.8-.5.2.1.6.1.6 0zm18.3 0h4.9c.8 0 1.8-.1 2.2.3.4.3.6 1.2.4 1.9-.3 1-1.4.8-2.6.8h-4c-.7 0-1.5 0-1.9-.2-.2-.1-.3-.3-.4-.5-.2-.5-.1-1.4.1-1.8.2-.3.5-.4.8-.5.2 0 .4.1.5 0zm-15.3 3c-.2 0-.3 0-.5.1-.3.1-.6.2-.8.5-.3.4-.3 1.3-.1 1.8.1.2.2.4.4.5.4.3 1.2.2 1.9.2h4c1.3 0 2.3.1 2.7-.8.2-.6 0-1.6-.3-1.9-.5-.4-1.4-.3-2.3-.3-1.7-.1-3.3-.1-5-.1zm2.9 6.1c-.1 0-.3 0-.4.1-.3.1-.6.3-.7.6-.1.4-.1.9-.1 1.4v2c0 .5 0 1-.1 1.3-.1.3-.4.5-.7.6-.5.1-1.1.1-1.5.2-.5.2-.7.7-.7 1.5 0 .2 0 .4.1.6.1.4.4.6.7.7.3.1.8 0 1.1.1.5.1.8.3.9.7.1.3.1.8.1 1.3v2c0 .5 0 1 .1 1.4.2.4.5.5.9.6.1 0 .5.1.7 0 .1 0 .3 0 .4-.1.3-.1.6-.3.7-.6.1-.4.1-.9.1-1.4v-2c0-.5 0-1 .1-1.3.2-.4.5-.6.9-.7.4-.1.8 0 1.1-.1.6-.2.8-.6.8-1.4v-.6c-.1-.5-.4-.8-.8-.9-.3-.1-.8 0-1.1-.1-.5-.1-.8-.3-.9-.7-.1-.3-.1-.8-.1-1.3v-2.1c0-.6 0-1.1-.2-1.5-.2-.2-.7-.3-1.4-.3zm-5.9 30.6h7.9c.8 0 1.7-.1 2.2.2.3.2.4.4.5.8 0 .2.1.5.1.7 0 .1 0 .2-.1.3-.1.3-.2.6-.5.7-.4.3-1.2.2-2 .2h-4.1c-.6 0-1.4-.1-1.8.1-.3.1-.5.3-.7.6-.2.5-.2 1.4.1 1.8.4.6 1.5.5 2.6.5h6.5c1.1 0 2.2.1 2.7-.5.2-.3.2-.9.2-1.5v-2.1c0-.5 0-1 .1-1.3.2-.4.5-.6.9-.7H44.4c.4.1.6.2.8.5.2.3.2.9.2 1.4v2c0 .8 0 1.5.4 1.8.6.4 1.8.3 2.7.3h6.3c1.2 0 2.3.1 2.6-.8.2-.6 0-1.6-.3-1.9-.5-.3-1.3-.3-2.1-.3h-4.2c-.7 0-1.5 0-1.9-.2-.4-.3-.5-.8-.5-1.4 0-.2 0-.4.1-.5.3-1 1.4-.8 2.6-.8h6.6c1.2 0 2.4-.2 2.8.7.1.3.1.8.1 1.2v1.8c0 1 0 2.1-.1 3.1 0 .8 0 1.5-.4 1.9-.5.5-1.5.4-2.4.4h-10c-.8 0-1.6 0-2 .3-.2.1-.3.4-.4.7v.8c.1.5.2.8.5 1 .3.2.9.2 1.4.2H59.1c.2.1.5.1.7.2.2.1.4.3.5.6.1.2.1.5 0 .7v.3c-.1.3-.1.6-.2.9-.1.2-.1.4-.1.6-.2.5-.2 1.1-.5 1.6-.1.4-.3.7-.4 1.1-.4.9-.9 1.8-1.4 2.5-.3.5-.8.9-1.1 1.5-.1.1-.2.4-.2.7.1.6.4.9.7 1.3.3.4.6.9.9 1.3.6 1 1.1 2.1 1.5 3.3.1.3.2.7.3 1 .1.4.2.9.3 1.3 0 .2 0 .4.1.6.1.3.1.9-.1 1.1-.3.7-1.1.7-2.1.7H32.1c-.7 0-1.4 0-1.8.2-.4.2-.4.6-.5 1v.8c.1.3.2.6.4.7.5.3 1.3.3 2.1.3H58.1c.9 0 1.6 0 2 .5.3.5.2 1.3.2 2v4.2c0 .8 0 1.7-.5 2-.4.3-1.2.3-2 .3H32.6c-.9 0-1.8-.1-2.3.3-.2.1-.3.4-.4.7v.8c.1.5.2.8.5 1 .4.3 1.1.2 1.8.2H58c.7 0 1.4 0 1.8.3.7.5.6 2.2-.1 2.6-.5.3-1.4.2-2.2.2H29.3c-.9 0-1.8.1-2.2-.4-.4-.4-.4-1.3-.4-2.1v-3.7-1-.5-.3c.1-.4.2-.7.5-.9.4-.3 1.1-.2 1.8-.2H54.6c.7 0 1.5.1 2-.2.3-.2.4-.5.5-.9v-.6-.3c-.1-.2-.1-.4-.2-.6-.4-.6-1.6-.4-2.5-.4h-25c-.7 0-1.6.1-2.1-.2-.2-.2-.4-.4-.5-.7 0-.1 0-.2-.1-.3v-.2-.5-.9-3.8c0-.9 0-1.7.5-2.1.4-.3 1.1-.3 1.8-.3H54.2c.8 0 1.7.1 2-.4.1-.1.2-.4.2-.7-.3-1.2-1-2.3-1.7-3.2-.3-.4-.6-.9-1.2-1h-.6c-.4.1-.7.3-1 .5-.7.4-1.5.7-2.3.9-.4.1-.7.2-1.1.3-.2.1-.5.1-.7.1-.2.1-.5.1-.7.1-.2 0-.5 0-.7.1H29.7c-.7 0-1.7.1-2.2-.1-.3-.1-.6-.4-.7-.8 0-.2-.1-.3-.1-.5 0-.6.1-1.1.5-1.4.4-.2.9-.2 1.5-.2h17.4c.4-.1.8-.1 1.2-.2.7-.2 1.3-.3 1.9-.5.3-.1.6-.3.7-.6.1-.1.1-.4 0-.5-.2-.3-.6-.5-.9-.6-.5-.2-1.1-.3-1.7-.5-.3 0-.6-.1-.9-.1-.2 0-.4 0-.6-.1h-.7c-.3-.1-.7 0-1 0H29.4c-.8 0-1.7.1-2.2-.4-.2-.2-.2-.4-.3-.6 0-.2-.1-.5-.1-.7.1-.5.1-.8.5-1 .5-.4 2-.2 2.9-.2h16.2c.2 0 .5 0 .7.1.3.1.5.1.7.1.3.1.6.1.9.2.4.1.7.2 1.1.3.8.3 1.6.6 2.3.9.3.2.6.3 1 .5.1 0 .4.1.6 0 .5-.1.8-.5 1.1-.9.5-.7 1-1.3 1.3-2.1.1-.3.3-.6.4-1 .1-.5-.1-.9-.4-1-.4-.2-1.3-.2-1.9-.2H29.7c-.7 0-1.7.1-2.2-.1-.3-.1-.6-.4-.7-.8v-.3-.6c0-.2 0-.3.1-.4.1-.3.4-.5.7-.6.4-.1.8-.1 1.3-.1h11.2c.6 0 1.1 0 1.4-.2.4-.2.4-.6.5-1v-.7c-.1-.4-.2-.7-.5-.9-.2-.1-.4-.1-.7-.2H29c-.5 0-1 0-1.3-.1-.9-.3-.8-1.2-.8-2.4v-3-1.7c0-.4 0-.8.1-1.1.1-.2.2-.4.3-.5.2-.2.4-.3.7-.3.6.1.8.1.9.1zm57.9 0h29.6c1.1 0 2-.1 2.3.7.1.2.1.4.1.6v.6c0 .1 0 .2-.1.3-.1.3-.2.5-.5.6-.5.3-2 .2-2.8.2h-9.7c-.4 0-.9 0-1.3.1s-.7.3-.9.6c-.2.5-.1 1.7-.1 2.4v10.2c0 .5 0 1 .2 1.3.1.2.3.4.5.5.4.2.9.1 1.4.1h7.1c.9 0 2 .1 2.6-.3.2-.1.3-.4.4-.7V84v-.5c-.1-.5-.2-.8-.5-1-.4-.3-1.2-.2-1.9-.2h-3.9c-.8 0-1.7.1-2.2-.2-.3-.2-.4-.5-.5-.9v-.4-.5-1-3.8c0-.9 0-1.7.5-2.1.5-.4 1.7-.3 2.6-.3h6.1c1 0 2.2-.1 2.7.4.3.3.5 1.2.3 1.8-.1.3-.3.6-.6.7-.5.2-1.2.1-1.8.1h-4.1c-.7 0-1.5-.1-2 .2-.4.2-.4.6-.5 1v.7c.1.3.2.6.4.8.4.3 1.2.3 2 .3h3.9c.6 0 1.5-.1 2 .1.9.3.8 1.2.8 2.4v4.7c0 .4 0 .8-.1 1.1-.1.2-.2.4-.3.5-.1.1-.3.2-.5.3-.3.1-.7.1-1.1.1h-12.2c-.3.1-.5.1-.7.2-.3.2-.4.4-.5.9 0 .1-.1.5 0 .7.1.4.1.8.4 1 .2.1.3.2.6.2.3.1.6.1.9.1H117.4c.3.1.5.1.7.2.4.3.5.7.5 1.4 0 .2 0 .4-.1.5-.1.3-.3.6-.6.7-.3.1-.8.1-1.2.1h-10c-1 0-2.6-.2-3 .4-.4.5-.3 1.6-.3 2.5V113.6c0 .3 0 .7.1 1 .1.3.2.6.4.7.5.3 1.3.3 2.2.3h7.5c.6 0 1.3 0 1.6-.2.4-.2.5-.7.5-1.3v-.5c-.1-.4-.3-.6-.5-.8-.4-.3-1.2-.2-1.9-.2h-4c-.7 0-1.6.1-2.1-.2-.2-.2-.4-.4-.5-.7 0-.1 0-.2-.1-.3v-.2-.6-1.1-3.6c0-.7 0-1.4.2-1.8.2-.3.5-.4.9-.5h5.2c.9 0 1.9.1 2.4-.3.3-.2.3-.6.4-1v-.7c-.1-.3-.1-.4-.2-.6-.4-.5-1.3-.4-2.1-.4h-4c-.7 0-1.5.1-2-.1-.3-.1-.5-.4-.6-.7 0-.1 0-.3-.1-.5v-.4-.3c.1-.4.3-.7.7-.8.2-.1.4-.1.6-.1H115.8c1 0 2.3-.1 2.7.4.4.4.4 1.2.4 2.1v4c0 .6.1 1.5-.1 2-.4.9-1.4.7-2.6.7h-4c-.7 0-1.5-.1-1.9.2-.4.2-.4.6-.5 1v.8c.1.3.2.6.4.7.5.3 1.3.3 2.1.3h4.2c.8 0 1.7-.1 2.1.4.4.4.4 1.3.4 2.1v4.4c0 .9 0 1.7-.5 2.1-.5.3-1.4.2-2.2.2H88c-1.1 0-2 .1-2.3-.7-.2-.5-.1-1.6-.1-2.3v-3.7c0-.7 0-1.4.2-1.8.2-.3.5-.4.9-.5H92.4c.9 0 1.7.1 2.1-.4.1-.2.2-.4.2-.6 0-.1.1-.5 0-.7-.1-.4-.1-.8-.4-1-.5-.4-1.5-.3-2.4-.3h-3.6c-.6 0-1.4.1-1.9-.1-.9-.3-.8-1.2-.8-2.4v-3-1.7c0-.4 0-.8.1-1.1.1-.2.2-.4.3-.5.3-.3 1-.4 1.7-.4H95.1c.9 0 1.9-.1 2.3.4.3.3.5 1.1.3 1.7-.1.3-.2.6-.5.7-.5.3-1.3.2-2 .2h-3.9c-.7 0-1.5-.1-2 .1-.3.1-.5.5-.6.9v.5c0 .7.2 1.2.7 1.4.5.2 1.2.1 1.9.1h4.1c.7 0 1.5-.1 2 .2.3.2.4.5.5.9v5.4c0 .7.1 1.6-.2 2.1-.2.2-.4.4-.7.5-.5.1-1.2.1-1.8.1h-3.5c-.9 0-1.9-.1-2.4.3-.3.2-.3.6-.4 1v.8c.1.4.3.6.5.8.5.3 1.9.2 2.7.2H98c.9 0 2 .1 2.6-.3.4-.3.4-1 .4-1.7v-2.9-12.1V97c0-.9 0-1.6-.5-1.9-.3-.2-.9-.2-1.4-.2h-12c-.2 0-.4 0-.6-.1-.5-.2-.8-.8-.7-1.6 0-.2 0-.4.1-.6.1-.3.3-.5.6-.6.3-.1.8-.1 1.2-.1H99c.3 0 .7 0 .9-.1.2-.1.4-.1.6-.2.3-.2.3-.6.4-1v-.7c-.1-.4-.2-.7-.5-.9-.2-.1-.4-.1-.7-.2H87.6c-.4 0-.8 0-1.1-.1-.2-.1-.4-.2-.5-.3-.1-.1-.2-.3-.3-.5-.1-.3-.1-.7-.1-1.1v-1.7-3c0-1.2-.1-2.1.8-2.3.5-.2 1.4-.1 2-.1h3.9c.8 0 1.5 0 2-.3.2-.2.3-.4.4-.8 0-.1.1-.5 0-.7-.1-.5-.2-.8-.5-1-.4-.3-1.2-.2-1.9-.2h-4.1c-.6 0-1.4.1-1.8-.1-.3-.1-.5-.4-.6-.7-.2-.7 0-1.6.4-1.9.5-.4 1.7-.3 2.6-.3h6.1c1 0 2.2-.1 2.7.4.4.4.4 1.3.4 2.1V80c0 .6.1 1.5-.1 1.9-.1.4-.3.7-.7.8-.5.2-1.4.1-2 .1h-3.9c-.7 0-1.5 0-1.9.2-.4.2-.4.6-.5 1v.8c.1.3.2.6.4.7.5.4 1.6.3 2.5.3H99.1c.3 0 .7 0 1-.1.3-.1.6-.2.7-.4.3-.4.3-1.2.3-1.9v-3.6-6.5c0-1.1.1-2.1-.5-2.6-.3-.2-.9-.2-1.4-.2H87.2c-.3-.1-.5-.1-.7-.2-.7-.4-.7-2-.1-2.5.2-.1.4-.2.6-.2-.5-.5-.3-.5-.2-.5zm-76.4 0c.6 0 1.1.1 1.4.3.5.5.4 1.6.4 2.5V76c0 .9-.1 2.1.2 2.7.2.3.5.4.9.5H14.2c.2-.1.4-.1.6-.2.6-.4.4-1.7.4-2.6v-6.5c0-1.2-.1-2.2.7-2.6.2-.1.4-.1.6-.1.2 0 .6 0 .7.1.4.1.6.2.8.5.3.5.2 1.7.2 2.5v6.1c0 .8-.1 2.1.2 2.6.2.4.6.4 1 .5h.8c.3-.1.6-.2.8-.5.3-.5.2-1.8.2-2.6v-6.2c0-.8-.1-1.8.2-2.3.2-.3.4-.4.8-.5.2 0 .5-.1.7-.1.2 0 .4 0 .6.1.3.1.5.3.6.6.1.2.1.4.1.6v12c0 .4 0 .8-.1 1.1-.1.2-.2.4-.3.5-.4.4-1 .4-1.7.4h-2c-.5 0-1 0-1.3.1-.3.1-.5.5-.6.9 0 .2-.1.6 0 .8 0 .2 0 .3.1.4.1.4.4.7.9.8.3.1.7.1 1.1.1h1.8c1 0 1.8 0 2.1.7.2.5.1 1.7.1 2.4v27.9c0 1.2.1 2.1-.8 2.4-.1 0-.3.1-.5.1h-.6c-.4-.1-.6-.1-.8-.3-.4-.4-.4-1.4-.4-2.2v-2.8-18.5-4.1c0-.8 0-1.6-.3-2.1-.1-.2-.4-.3-.7-.4h-.8c-.5.1-.8.2-1 .5-.3.4-.2 1.3-.2 2V117c0 .7 0 1.4-.2 1.8-.2.4-.6.4-1.1.5H16.3c-.3-.1-.5-.1-.7-.3-.4-.4-.4-1.2-.4-1.9V113 94v-2.8c0-.7 0-1.4-.3-1.8-.3-.4-.9-.5-1.6-.4-.3 0-.6.1-.7.3-.4.3-.4 1.1-.4 1.9V117c0 .7.1 1.6-.2 2-.2.4-.6.4-1 .5-.2 0-.6 0-.7-.1-.4-.1-.6-.2-.8-.5-.2-.4-.2-.9-.2-1.5v-2.3-14.9-9.8V88c0-.6 0-1.2.2-1.5.3-.5 1-.5 1.8-.5h2c.4 0 .9 0 1.2-.1.4-.1.7-.4.8-.9v-.3-.8c-.1-.4-.3-.7-.6-.9-.4-.2-.9-.1-1.4-.1h-2c-.5 0-1 0-1.3-.1-.3-.1-.6-.4-.7-.8-.2-1-.1-1.5-.1-2v-2.3-7.1-1.4-.7-.2c.1-.3.1-.5.2-.7.1-.2.4-.4.6-.5h.4zm57.9 0c.6 0 1.1.1 1.4.3.5.5.4 1.6.4 2.5V76c0 .9-.1 2.1.2 2.7.2.3.5.4.9.5H72.1c.2-.1.4-.1.6-.2.6-.4.4-1.7.4-2.6v-6.5c0-1.2-.1-2.2.7-2.6.2-.1.4-.1.6-.1.6-.1 1.3.2 1.5.5.4.5.2 1.8.2 2.6v6.2c0 .9-.1 1.9.3 2.4.2.2.4.3.8.4.1 0 .5.1.7 0 .5-.1.8-.2 1-.5.3-.5.2-1.7.2-2.6v-6.1c0-1-.1-2.2.4-2.6.2-.2.4-.2.8-.3.1 0 .4-.1.6 0 .2 0 .4 0 .6.1.3.1.5.3.6.6.1.2.1.4.1.6v12c0 .4 0 .8-.1 1.1-.1.2-.2.4-.3.5-.4.4-1 .4-1.7.4h-2c-.5 0-1 0-1.3.1-.3.1-.5.5-.6.9 0 .2-.1.6 0 .8 0 .2 0 .3.1.4.1.4.4.7.9.8.3.1.7.1 1.1.1h1.8c1 0 1.8 0 2.1.7.2.5.1 1.7.1 2.4v27.9c0 1.2.1 2.1-.8 2.4-.1 0-.3.1-.5.1h-.6c-.4-.1-.6-.1-.8-.3-.4-.4-.4-1.4-.4-2.2v-2.8-18.5-4.1c0-.8 0-1.6-.3-2.1-.1-.2-.4-.3-.7-.4h-.8c-.5.1-.8.2-1 .5-.3.4-.2 1.3-.2 2v25.7c0 .7 0 1.4-.2 1.8-.2.4-.6.4-1.1.5H74.3c-.3-.1-.5-.1-.7-.3-.4-.4-.4-1.2-.4-1.9v-4.1-19-2.8c0-.7 0-1.4-.3-1.8-.3-.4-.9-.5-1.6-.4-.3 0-.6.1-.7.3-.4.3-.4 1.1-.4 1.9V116.9c0 .7.1 1.6-.2 2-.2.4-.6.4-1 .5-.2 0-.6 0-.7-.1-.4-.1-.6-.2-.8-.5-.2-.4-.2-.9-.2-1.5V115v-14.9-9.8-2.4c0-.6 0-1.2.2-1.5.3-.5 1-.5 1.8-.5h2c.4 0 .9 0 1.2-.1.4-.1.7-.4.8-.9v-.3-.8c-.1-.4-.3-.7-.6-.9-.4-.2-.9-.1-1.4-.1h-2c-.5 0-1 0-1.3-.1-.3-.1-.6-.4-.7-.8-.3-.9-.2-1.4-.2-1.9v-2.3-7.1-1.4-.7-.2c.1-.3.1-.5.2-.7.1-.2.4-.4.6-.5h.4z"/></svg>
