<svg xmlns="http://www.w3.org/2000/svg" viewBox="0 0 1000 1000"><path d="M47.3 1h900.8c2.2 0 4.6-.1 6.5.3 1.4.3 2.5.1 3.8.4 2.8.7 5.7 1.2 8.3 2.2 5 2.1 9.5 4.5 13.5 7.5 1.8 1.3 4.2 3.5 5.5 5.2.4.4.8.7 1.2 1.1 1.1 1.4 2.4 2.8 3.4 4.2 3.7 5.2 6.1 11 8 18 1.4 5.1 1.2 11.7 1.2 18.2v886.3c0 3.3.4 7.6-.2 10.5-.1 1-.1 2-.2 3-.9 3.6-1.2 7.1-2.5 10.3-1.3 3.3-2.8 6.5-4.6 9.3-1 1.6-2.3 3.1-3.4 4.6-.6.8-1.1 1.5-1.7 2.2-.4.4-.8.7-1.2 1.1-.5.6-1.1 1.4-1.7 1.9-2.7 2-5.1 4.4-8 6.2-4.5 2.9-9.7 4.7-15.5 6.4-5.8 1.6-13.6 1.2-20.8 1.2H59.4c-7.2 0-15.1.4-20.8-1.2-3.4-1-6.7-1.9-9.7-3.3-10.7-4.7-20.3-14.4-24.9-24.9-1.3-3-2.3-6.3-3.3-9.7-.3-1.7-.6-3.3-.8-5-.5-2.2-.3-5.1-.3-7.6V51.9c0-1.7-.1-3.5.2-5 .1-1 .1-2 .2-3 .3-1.3.4-2.8.7-4.1 1-3.4 1.9-6.7 3.3-9.7C9.4 17.9 19.7 9.2 32.3 4c2.9-1.2 6.2-1.6 9.5-2.4 1.9-.2 3.7-.4 5.5-.6zm314.3 50.1c-.6.4-2.6.1-3.5.3-2.7.7-5 1.5-6.5 3.4-3.8 5.1-2.7 16.2 2.1 19.3 4.4 2.7 13.3 1.8 20.2 1.8h45.9c5.9 0 16-.7 19.6 1.5 1.7 1 2.8 2.5 3.3 4.8.5 2-.5 4.8-1 6-1.7 4.7-3.8 8.9-6.2 12.9-1.6 2.7-3.1 5.3-4.9 7.8-1.1 1.5-2.5 2.9-3.6 4.4-1.7 2.2-4 4.4-6.9 5.4-1.4.4-4 .6-5.5.1-3.5-1.1-6.5-2.9-9.5-4.4-7.3-3.8-15.4-6.4-23.9-9.1-3.8-1.2-7.9-1.6-12-2.5-1.2-.1-2.4-.3-3.6-.4-4.9-1.1-10.2-.6-13.2 1.7-4.1 3.1-3.8 14.2-.8 18.3 2.2 3 6.1 3.4 10.3 4.4 1 .1 1.9.2 2.9.3 1.9.4 3.8.5 5.7 1.1 4.3 1.2 8.6 2.2 12.4 3.8 2.4 1 4.3 1.9 5.7 3.9.4.7 1.3 1.7 1 3.1-1.1 4.8-7.2 6.2-11.7 7.7-4 1.3-8.5 2-13 3.1-1 .1-1.9.2-2.9.3-3.3.8-6.4 1.2-8.7 2.9-2.6 2-3 4.7-3.8 8.5-.3 1.5 0 4.4.3 5.5 1 3.8 1.8 6 5.2 7.4 2.2.9 6.5 1 9.2.4 1.5-.2 3-.4 4.6-.5 4.4-1.1 8.9-1.6 12.9-2.9 2.2-.7 4.3-1 6.5-1.8 3.4-1.3 6.9-2.4 10.2-3.8 1.4-.6 2.8-1.4 4.1-2 1.8-.8 3.6-1.4 5.2-2.4 2.3-1.4 7.7-4.5 11.9-3.4 6.3 1.6 10.9 9.4 14.1 14.4 2 3.2 4.2 6.6 5.8 10.2 1.5 3.4 2.9 6.9 4.3 10.5 1.5 3.6 2.2 7.7 3.3 11.6 1 3.7.9 7.7 1.8 11.6.1 1.4.1 2.8.2 4.2.4 1.7.1 3.6.2 5.5.1 2 .1 4.5.1 6.7v6.2c-.2.8 0 1.8-.2 2.6-.7 2.9-1.4 5.5-3.4 7-4.4 3.2-13.3 2.4-21 2.4H367c-1.7 0-3.8-.2-5.3.1h-1.8c-1.6.3-3.2.4-4.6 1-2.9 1.2-4.5 3.5-5.4 6.7-1.1 3.8-.5 10.6-.5 15.3v29.6c0 6.2-.6 13.7 1.8 17.6 1.6 2.6 4.2 3.4 7.7 4.2 2 .5 5.2.2 7.5.2h59.4c7.4 0 15.6-.7 19.9 2.4 1.9 1.4 2.5 3.6 3.2 6.3.3 1.1.6 4.5.3 5.9-.9 4-1.3 6.6-4.2 8.6-4.2 2.8-13.8 1.9-20.7 1.9h-57.7c-1.5 0-3.5-.2-4.9.1h-1.8c-1.6.3-3.2.4-4.6 1-2.2.9-3.9 2.7-4.9 4.9-1.1 2.7-1.1 6.6-1.1 10.4v38.4c0 9.6-.5 16.9 6.9 19.3 2.5.8 5.8.7 9.1.7h58.1c6.3 0 15.7-.7 20.1 1.2 2.4 1 4.1 3.2 5 5.7 1.7 5.3.4 13.5-2.9 15.9-4.6 3.3-14 2.4-21.8 2.4h-50.2c-7.8 0-17.4-1-21.4 3-1.7 1.7-2 3.7-2.6 6.6-.2 1-.5 3.9-.2 5.2.9 3.9 1.2 6.5 4 8.5 3.2 2.2 8.6 2 14 2h88.8c3.6 0 7.5.3 10.5-.5 2.5-.7 4.7-1.9 5.9-3.9 2.4-3.8 1.8-10.9 1.8-16.9V424c0-7.1.7-15.3-2.3-19.4-3.4-4.6-12.7-3.7-20.6-3.7H398c-7.4 0-15.9.7-20.2-2.4-1.9-1.4-2.5-3.6-3.2-6.4-.3-1.1-.6-4.5-.3-5.9.7-3.4 1.1-6.3 3.5-8 4.8-3.5 16-2.4 24.2-2.4h54.8c1.7 0 3.9.2 5.4-.1h1.8l3.6-.6c7.4-2.4 6.9-9.6 6.9-19.3v-38.5c0-3.8.1-7.7-1.1-10.4-.9-2.2-2.7-3.9-4.9-4.9-1.3-.6-3-.6-4.6-1h-1.8c-1.4-.3-3.4-.1-5-.1h-57.9c-6.9 0-16.7.9-20.8-1.9-3-2-3.4-4.5-4.2-8.6-.4-1.6 0-4.7.3-5.9.7-2.7 1.3-5 3.2-6.4 4.3-3.1 12.8-2.4 20.3-2.4h53.4c8.4 0 17.5.9 21-4.1 1.9-2.8 2-7.3 2-12v-23.4c0-1.1.1-2.5-.1-3.4v-4.1c-.2-.7.1-1.8-.1-2.6-.3-4.1-.6-8.1-.8-12.2-.8-3.7-.7-7.6-1.6-11.2-.5-1.8-.6-3.7-1.2-5.5-1.6-5.6-2.9-11.3-5.1-16.4-3.8-9.1-8-17.7-13.3-25.3-1.8-2.6-3.8-5.1-5.6-7.6-1.5-2.1-3.2-4.1-4.1-6.9-.9-2.7.1-5.6 1.1-7.4 2.6-4.9 6.5-8.9 9.5-13.4 6.2-9.2 11.2-19.7 15-31.2 1.3-3.9 1.9-7.9 3.1-12.1.7-2.6.9-5.7 1.6-8.5.3-1.2 0-2.2.3-3.5.4-2.1.4-5.4-.2-7.2-.8-2.5-2.4-4.4-4.7-5.4-1.4-.6-3.1-.7-4.8-1.1h-1.8c-1.6-.3-3.9-.1-5.7-.1h-94.3zm175.2 0c-.6.4-2.6.1-3.5.3-2.3.6-4.4 1.2-5.8 2.6-2.7 2.7-3.8 10-2.2 14.9.9 2.7 2.7 4.8 5.2 5.8 1.3.6 3 .6 4.6 1h1.8c1.5.3 3.5.1 5.2.1H801c6.6 0 14.8-.8 18.8 1.9 2.9 2 3.4 4.5 4.2 8.6.2 1.2.1 3.2-.1 4.2-.2.9 0 1.5-.2 2.3-.6 2.2-1.5 4.5-3.2 5.7-4.5 3.3-13.6 2.4-21.3 2.4H546.6c-6.9 0-14.7-.6-18.6 2.3-3.9 2.9-3.7 9.4-3.7 16.2v35.7c0 6-.5 12.8 2 16.4 3.1 4.4 10 4.1 17.6 4.1h255.5c7.6 0 16.6-.8 21.1 2.4 2 1.5 2.7 4.1 3.4 7 0 1 .1 2 .1 3.1 0 4.5-.9 8.4-3.5 10.3-4.8 3.5-15.8 2.4-24 2.4H544.4c-6.7 0-13.7-.4-17 3-3.4 3.4-3 10.4-3 17.1v31.5c0 5.2-.6 12.1.7 16.2 2.5 7.6 10.2 6.9 20.1 6.9h258.1c6 0 12.9-.5 16.5 1.9 2.5 1.6 3.4 4.1 4.1 7.5 0 1.1.1 2.2.1 3.3 0 5-1.2 8.6-4.2 10.6-3.1 2.1-8.4 1.9-13.7 1.9H544.2c-6.7 0-13.5-.4-16.8 3-3.4 3.4-3 10.4-3 17.1v38.4c0 1.3-.1 2.8.1 3.9.3 1.2-.1 2.4.2 3.5.8 3.1 1.8 5.5 4.1 7 4.2 2.6 12.5 1.8 19 1.8h255.3c6 0 13-.5 16.6 1.9 2.9 2 3.4 4.5 4.2 8.6.2 1.2.1 3.2-.1 4.2-.2.9 0 1.5-.2 2.3-.6 2.2-1.5 4.5-3.2 5.7-4.1 3-12 2.4-19.2 2.4H545.6c-6.1 0-13.1-.6-16.9 1.8-2 1.2-3.2 3.4-3.9 5.9-1.1 4-.5 11.1-.5 16v31.1c0 6.8-.4 14 3 17.4 4 4 14 3 21.9 3h383.3c5.7 0 10.7-.2 13.5-3 4.6-4.6 3.6-17.3-1.5-20.4-4.3-2.7-12.9-1.8-19.7-1.8H576.7c-8.2 0-19.4 1-24.1-2.4-2.3-1.7-2.8-4.6-3.5-8-.2-1.2-.1-3.2.1-4.2.2-.9 0-1.5.2-2.3.8-3 2.1-5.1 4.4-6.6 1.5-.9 3.6-1 5.6-1.5h1.6c1.6-.3 3.9-.1 5.7-.1h359.2c8.6 0 17.8.9 21.2-4.4 2.1-3.3 1.8-9 1.8-14.4V71.2c0-6.8.4-13.9-3-17.3-2.8-2.8-7.9-3-13.5-3h-90.6c-101.4.2-203.2.2-305 .2zm-476.6.1c-.6.3-2.9.4-3.7.6-2.1.7-4 2-5.1 3.7-1 1.7-1.2 3.8-1.7 6v1.8c-.3 1.6-.1 3.9-.1 5.7v88.2c0 3.7-.3 7.7.5 10.7.9 3.2 2.5 5.5 5.4 6.7 2.8 1.2 6.7 1.1 10.6 1.1h16.5c4.2 0 8.3-.1 11.2 1.2 2.9 1.2 4.4 3.7 5.3 7 .4 1.5.6 4.9.2 6.6-.3 1.4-.1 2.4-.5 3.6-1 3-3.1 5.1-6.1 6.1-2.8.9-6.6.7-10.2.7H66c-6.7 0-12.1.4-14.6 4.4-1.8 2.9-1.8 7.6-1.8 12.4v241.5c0 4.7 0 9.3 1.8 12.2 1.4 2.3 3.5 3.1 6.5 3.9 1.2.3 4.2.8 5.9.4 1-.1 1.9-.3 2.9-.4 2.5-.7 4.7-1.9 5.9-3.9 2.1-3.4 1.8-9.2 1.8-14.6V246.4c0-6-.5-12.8 1.9-16.4 2-2.9 4.5-3.4 8.6-4.2 1.6-.3 4.7 0 5.9.3 2.7.7 5 1.3 6.3 3.2 2.8 3.9 2.4 10.8 2.4 17.6V457c0 6-.2 11.8 2.3 15.2 3.3 4.5 15.4 4.9 19.5.7 3.2-3.2 3-9.5 3-15.9V247.1c0-6.1-.6-13.3 1.9-17 2-2.9 4.5-3.4 8.6-4.2 1.2-.2 3.2-.1 4.2.1.9.2 1.5 0 2.3.2 2.2.6 4.5 1.5 5.7 3.2 2.7 3.8 2.4 10.2 2.4 16.8v208.6c0 7-.6 14.7 3 18.2 1.7 1.7 3.7 2 6.6 2.6 1.1.3 3.1.4 4.6.2 1.3-.2 2.6-.3 3.8-.6 7.5-2.4 6.9-9.9 6.9-19.7V226.6c0-6 .7-15.4-1.1-19.7-2.5-6-8.9-5.9-17.4-5.9h-14.7c-3 0-6.2.2-8.7-.4-3.8-1-6.2-2.9-7.4-6.5-.4-1.2-.2-2.2-.5-3.6-.4-1.7-.2-5.1.2-6.6.9-3.2 2.4-5.8 5.3-7 2.9-1.2 6.8-1.2 10.9-1.2h16c5.9 0 11.4 0 14.4-3 1-1 1.8-2.5 2.2-3.9.8-2.5.7-5.8.7-9.1V68.4c0-1.6.2-3.7-.1-5.2v-1.8c-.3-1.6-.4-3.2-1-4.6-.9-2.2-2.7-3.9-4.9-4.9-1.4-.6-3-.6-4.7-1-1.7-.4-4.7.1-5.9.4-3 .8-5 1.6-6.5 3.9-2.6 4.2-1.8 13.6-1.8 20.3v49.6c0 7 .9 16.9-1.9 21.2-2 2.9-4.5 3.4-8.6 4.2-1.2.2-3.2.1-4.2-.1-.9-.2-1.5 0-2.3-.2-2.7-.7-4.9-1.9-6.2-3.9-2.8-4.3-1.9-14.6-1.9-21.7V73.7c0-6.5.7-14.5-1.8-18.5-1.4-2.3-3.5-3.1-6.5-3.9-1.2-.3-4.2-.8-5.9-.4-1.6.3-3.3.4-4.7 1-6.9 2.9-5.9 11.4-5.9 21.1v53.7c0 8 1.1 18.3-3.6 21.7-1.3.9-2.8 1.6-4.6 2-.8.2-1.5 0-2.3.2-1.4.3-3.9.3-5.3 0-3.4-.8-5.9-1.7-7.5-4.1-2.9-4.3-1.9-14.7-1.9-21.8V74.3c0-7.6.9-16.6-3-20.4-2.2-2.3-6.1-2.7-11-2.7zm149.8 0c-.6.3-2.9.4-3.7.6-2.7.9-4.8 2.7-5.8 5.2-1.6 3.8-1.1 10.7-1.1 16v34.4c0 7.4-.1 13.8 4.4 16.6 2.9 1.8 7.4 1.8 12.1 1.8h16.6c4.1 0 8.2-.1 11.1 1.2 3.3 1.4 4.4 3.8 5.3 7.6.3 1.2.7 4.3.3 5.9-.3 1.2-.3 2.5-.6 3.6-.8 2.6-2.6 4.7-5 5.7-2.9 1.2-7 1.2-11.1 1.2h-16.6c-3.8 0-7.8-.1-10.6 1.1-2.2.9-3.9 2.7-4.9 4.9-1.9 4.4-1 12 1.3 15.1 1 1.3 2.8 2.4 4.6 3 2.6.8 5.9.7 9.2.7h90.8c1.7 0 4 .2 5.5-.1h1.8l3.6-.6c1.4-.5 3-1.3 3.9-2.2 2.7-2.7 3.8-10 2.2-14.9-.9-2.7-2.7-4.8-5.2-5.8-2.8-1.2-6.7-1.1-10.6-1.1h-16.6c-4.1 0-8.2.1-11.1-1.2-3.3-1.4-4.4-3.8-5.3-7.6-.3-1.2-.7-4.3-.3-5.9.3-1.2.3-2.5.6-3.6.8-2.6 2.6-4.7 5-5.7 2.9-1.2 7-1.2 11.1-1.2h16.6c3.8 0 7.8.1 10.6-1.1 6.2-2.6 5.9-9.4 5.9-18.1V72.2c0-7 .5-14.6-3-18.1-2.7-2.7-10-3.8-14.9-2.2-2.7.9-4.8 2.7-5.8 5.2-1.2 2.8-1.1 6.7-1.1 10.6v16.6c0 4.1.1 8.2-1.2 11.1-1.4 3.3-3.8 4.4-7.6 5.3-1.2.3-4.3.7-5.9.3-1.2-.3-2.5-.3-3.6-.6-3-1-5.1-3.1-6.1-6.1-.9-2.8-.7-6.6-.7-10.2V67.7c0-4.7 0-9.2-1.8-12.1-2-3.2-5.9-4.3-11.1-4.3-1.8 0-3.5.2-5 .6-2.7.9-4.8 2.7-5.8 5.2-1.2 2.8-1.1 6.7-1.1 10.6v16.5c0 3 .2 6.3-.4 8.8-1 3.8-2.9 6.2-6.5 7.4-1.2.4-2.2.2-3.6.5-1.7.4-5.1.2-6.6-.2-3.2-.9-5.8-2.4-7-5.3-1.2-2.9-1.2-6.9-1.2-11V68.2c0-4 .2-8.2-1.1-11.1-1.7-4.8-6.1-5.9-12.9-5.9zm651 24.6h43.1c7.1 0 14.6-.5 17.6 3.6 3.4 4.7 2.4 14.7 2.4 22.8v283.2c0 3.1.1 6.4-.8 8.8-2.9 7.2-9.8 6.6-19.7 6.6h-31c-5.1 0-13.3.6-17-.8-2.4-1-4.4-2.5-5.4-4.9-1.2-2.9-1.2-6.8-1.2-10.9v-15.8c0-7.1-.1-13.1-4.4-15.8-3.5-2.2-9.6-1.8-15.2-1.8H565.6c-5.9 0-11.3-.2-13.8-3.6-3.8-5.2-3.1-16.4 1.9-19.7 3.9-2.6 11.6-1.9 18-1.9h256.4c6.1 0 13.2.5 16.8-2 2.8-2 3.2-4.5 4-8.5 0-1.7.1-3.3.1-5v-39.4c0-6.7.4-13.6-3-16.9-3.4-3.4-10.5-3-17.4-3h-256c-6 0-13.3.7-17.7-1.2-2.9-1.2-4.4-3.7-5.3-7-.2-.8 0-1.5-.2-2.3-1-4.6 1.1-10.6 3.4-12.3 4.1-3 12-2.4 19.2-2.4h257.5c8.8 0 15.8.4 18.4-5.9 1.6-3.9 1.1-10.9 1.1-16.3v-32.6c0-6.7.4-13.6-3-16.9-3.4-3.4-10.6-3-17.5-3H572.2c-5.9 0-13 .6-17.2-1.2-2.9-1.2-4.4-3.7-5.3-7-.2-.8 0-1.5-.2-2.3-1-4.6 1.1-10.6 3.4-12.3 4.2-3.1 12.4-2.4 19.7-2.4h259.8c3.1 0 6.3.2 8.9-.5 3.2-.9 5.5-2.5 6.7-5.4 1.2-2.8 1.1-6.7 1.1-10.6V92.9c0-3.1-.3-6.4.4-9 1-3.8 2.9-6.2 6.5-7.4 1.1-.4 2.4-.4 3.6-.6.4-.1 1.1.2 1.4-.1zm23.8 25.3c-.6.3-2.9.4-3.7.6-2.1.7-4 2-5.1 3.7-2.4 3.8-1.8 10.9-1.8 16.9v231.5c0 6.7-.5 14 2.3 17.9 1.4 1.9 3.8 2.7 6.5 3.4.6 0 1.2.1 1.8.1.8.2 2.6.3 3.6.1 4.1-.9 6.5-1.1 8.6-4 2.6-3.8 2-11.2 2-17.5V120.4c0-6.1.3-12.3-2.3-15.8-2.3-2.9-6.6-3.5-11.9-3.5zm-673.1 99.8c-.6.4-2.7.1-3.5.3-3.1.8-5.5 1.8-7 4.1-2.3 3.7-1.8 10.6-1.8 16.5v33.7c0 6.3-.3 12.8 2.3 16.4 1.8 2.4 4.6 2.8 8.1 3.6 2.1.5 4.4 0 6.3.5 3.8 1 6.2 2.9 7.4 6.5.4 1.2.2 2.2.5 3.6.2 1 .4 3.1.1 4.2-.3 1.2-.3 2.5-.6 3.6-.8 2.6-2.6 4.7-5 5.7-3.4 1.4-8.6.7-12.4 1.9-3.4 1.1-5.4 3.4-6.3 7-1.1 3.9-.5 10.7-.5 15.5v30.1c0 6.3-.6 13.6 2 17.4 1.5 2.1 3.8 3.1 6.8 3.8 3 .7 6.6.2 9.3 1.1 5 1.7 6.8 5.7 6.8 12.5 0 1.9-.1 3.6-.6 5.1-1 3-3.1 5.1-6.1 6.1-2.7.9-6.3.3-9.3 1.1-3.1.8-5.5 1.8-7 4.1-2.3 3.7-1.8 10.6-1.8 16.5v34.5c0 6.7-.4 13.4 3 16.7 3.7 3.7 12.2 3 19.6 3 7.1 0 18.4.9 22.8-1.8 1.7-1.1 3-3 3.7-5.1.3-.9.2-1.7.4-2.6.2-1.1.5-3.9.2-5.2l-.6-3.6c-.9-2.7-2.7-4.8-5.2-5.8-3.1-1.3-7.4-.6-10.9-1.5-3.8-1-6.2-2.9-7.4-6.5-.4-1.2-.2-2.2-.5-3.6s-.3-3.9 0-5.3c.8-3.7 1.9-6.1 4.7-7.8 3.8-2.3 11.3-1.6 17.2-1.6h37c1.3 0 2.8-.1 3.9.1.9 0 1.8.1 2.6.1 3.9.9 6.8 2.1 8.3 5.5 1.5 3.5 1.5 10.3 0 13.8-.6 1.5-1.9 3-3.2 3.8-4.3 2.9-12.7 1.1-16.9 4.2-2.4 1.8-2.8 4.6-3.6 8.1-.3 1.3 0 4.1.2 5.2.2 1 .1 1.8.4 2.6.6 2 1.8 3.8 3.4 4.9 4.2 3 14.7 2 21.8 2 5.7 0 13.7.7 17.9-1.1 6.2-2.6 5.9-9.4 5.9-18.1v-34.4c0-6.7.5-14-2.3-17.9-1.8-2.4-4.6-2.8-8.1-3.6-2.1-.5-4.4 0-6.3-.5-2.2-.6-4-1.4-5.4-2.9-2.6-2.7-3.6-10.2-2-15 1.2-3.6 3.6-5.5 7.4-6.5 3.5-.9 7.8-.2 10.9-1.5 2.5-1.1 4.3-3.1 5.2-5.8l.6-3.6c0-1.6.1-3.2.1-4.8V322c0-6.2.6-13.4-2-17.1-1.5-2.1-3.8-3.1-6.8-3.8-3-.7-6.6-.2-9.3-1.1-4.6-1.5-6.8-5.3-6.8-11.4 0-1.8-.1-3.4.3-4.9 1-3.8 2.9-6.2 6.5-7.4 1.1-.4 2.3-.4 3.5-.6h1.4c1.1-.2 2.5 0 3.7-.3 2.7-.6 4.9-1.1 6.6-2.8 3.3-3.3 3-9.8 3-16.4v-35.9c0-6.6.3-13.2-3-16.5-2.8-2.8-7.9-3-13.5-3h-16.1c-26.8.1-53.4.1-80 .1zm149.9 0c-.6.4-2.6.1-3.5.3-3 .7-5.3 1.7-6.8 3.8-2.1 3.1-2.7 10.6-1 14.7.6 1.5 1.8 3 3.1 3.9 3.5 2.4 9.8 2 15.7 2h32.7c10.3 0 18.9 1.1 21.5-6.9 1.7-5.4.3-13.1-3-15.6-3.9-2.9-11.5-2.3-18.3-2.3-13.5.1-27 .1-40.4.1zm-125.3 24.8h40.6c7.1 0 14.7-.5 18.8 2.4 3.2 2.4 4.6 10.6 2.9 15.9-2.6 8-11.4 6.9-21.8 6.9h-32.5c-6.5 0-12.8.3-16.5-2.4-3.9-2.9-4.8-13.8-1.7-18.4 1.4-2 3.5-3.2 6.2-3.9 1.4-.2 2.7-.4 4-.5zm23.3 50.1c6.5 0 10.7.8 13.1 4.8 1.7 2.7 1.6 7.2 1.6 11.5V309c0 3.9-.1 7.9 1.1 10.7 1.4 3.3 3.9 4.7 7.7 5.6 3 .7 6.6.2 9.3 1.1 3.6 1.2 5.5 3.6 6.5 7.4.4 1.4.3 3 .3 4.8 0 6.2-2.1 10-6.8 11.5-2.7.9-6.3.3-9.3 1.1-3.8.9-6.3 2.3-7.7 5.6-1.2 2.8-1.1 6.7-1.1 10.6V384c0 4.1.1 8.2-1.2 11.1-1 2.4-3.2 4.1-5.7 5-1.1.4-2.4.4-3.6.6-1.6.3-4.7 0-5.9-.3-3.8-.9-6.2-2-7.6-5.3-1.2-2.9-1.2-7-1.2-11.1v-16.6c0-3.8.1-7.8-1.1-10.6-1.4-3.3-3.9-4.7-7.7-5.6-3-.7-6.6-.2-9.3-1.1-3-1-5.1-3.1-6.1-6.1-.5-1.5-.6-3.1-.6-5 0-6.1 1.3-10.4 5.6-12.2 3.4-1.4 8.6-.7 12.4-1.9 2.7-.9 4.8-2.7 5.8-5.2 1.2-2.8 1.1-6.7 1.1-10.6v-16.6c0-4.1-.1-8.2 1.2-11.1 1-2.4 3.2-4.1 5.7-5 .7-.3 3-.3 3.5-.6zm-47.9 250.3c-.6.4-2.6.1-3.5.3-2.3.6-4.4 1.2-5.8 2.6-2.8 2.8-3 7.9-3 13.5v38.2c0 9.6-.5 16.9 6.9 19.3 3 1 7 .7 10.8.7h89.6c1.7 0 4-.2 5.5.1h1.6c2.1.5 4.1.5 5.6 1.5 2.8 1.7 3.6 3.6 4.4 7.2.3 1.2.7 4.3.3 5.9-.9 4-1.3 6.6-4.2 8.6-2.8 1.8-7.1 1.9-11.7 1.9h-91.4c-3.7 0-7.6-.2-10.5.7-2.7.9-4.8 2.7-5.8 5.2-.5 1.1-.4 2.2-.7 3.6-.3 1.2-.4 3.3-.1 4.7.2 1.1.1 1.9.3 2.9.9 3.2 2.5 5.5 5.4 6.7 4.1 1.7 12.1 1.1 17.8 1.1h200.5c5.3 0 12.5-.5 15.8 1.5 2.3 1.4 4.2 4.5 3.1 8.6-.8 3-2.1 5.6-3.3 8.1-2.9 6.6-6.8 12.2-10.8 17.6-2.3 3.1-4.9 6.2-9.1 7.3-1.5.4-3.8.1-5-.3-3.2-1-5.6-2.4-8.4-3.8-5.8-3-12.1-5.6-18.6-7.7-2.7-.9-5.5-1.5-8.3-2.3-2.4-.7-4.8-.8-7.4-1.5-1.9-.5-3.9-.5-6-1-1.7-.4-3.9-.3-5.7-.7-1 0-1.9-.1-2.9-.1-1.9-.4-4.2-.3-6.2-.3h-2.4c-1.2-.3-2.9-.1-4.2-.1H227.4c-7.4 0-19.4-1-23.7 2-2.9 2.1-3.1 4.5-4 8.6-.4 1.7.1 4.7.4 5.9.6 2.2 1.1 3.9 2.4 5.3 3.5 3.5 10.8 3 17.7 3h120.5c2.5 0 5.9-.4 8.1.1 1.1.2 2.6-.1 3.6.1h2.2c1.7.4 3.6 0 5.3.4 2.5.4 4.9.7 7.4 1.1 4.8 1.2 9.7 2.1 14 3.8 3.1 1.3 6.1 2.3 7.7 5 .7 1.1.6 2.9 0 4-1.3 2.4-3.6 3.4-6.1 4.6-4.7 2-10.1 3.1-15.6 4.4-3.1.8-6.4.6-9.6 1.3h-1.4c-2.2.5-4.7.2-7.2.3-4.6.3-9.6.1-14.4.1H216c-4.6 0-9.2 0-12.1 1.8-3.2 2-4.3 5.9-4.3 11.1 0 1.5.1 2.9.4 4.1.9 3.2 2.5 5.5 5.4 6.7 4.1 1.7 12.1 1.1 17.8 1.1h121.2c1.3 0 2.9.1 4-.1 1.4-.3 3.2.2 4.4-.1h2.1c1.1-.1 2.6-.1 3.6-.3h1.4c1.8-.4 4-.3 5.7-.7 2.1-.5 4.1-.5 6-1 2.1-.5 4.1-.6 6.1-1.2 3.1-.9 6.2-1.5 9.2-2.5 6.6-2.2 12.9-4.7 18.7-7.7 2.8-1.4 5.3-2.9 8.6-3.9 1.2-.4 3.4-.7 5-.3 4.6 1.2 7.4 4.8 9.8 8.3 5.3 7.3 11.3 15.9 13.5 26.1.5 2.4-.6 4.3-1.4 5.4-2.8 3.8-9.9 3.3-16.5 3.3H218.1c-5.9 0-11.7-.2-15.1 2.3-4 3-3.7 10-3.7 17v39.1c0 1.3-.1 2.8.1 3.9v1.8c.2.9.2 1.9.4 2.8.7 2.5 1.9 4.7 3.9 5.9 3.8 2.4 10.9 1.8 16.9 1.8H426c7.8 0 17.2-.9 20.5 3.6.9 1.3 1.6 2.8 2 4.6.2.8 0 1.5.2 2.3.3 1.4.3 3.9 0 5.3-.8 3.4-1.7 5.9-4.1 7.5-3.6 2.4-10.3 1.9-16.3 1.9H218.2c-5.4 0-11.2-.3-14.6 1.8-2.6 1.6-3.4 4.2-4.2 7.7 0 .9-.1 1.8-.1 2.8-.2 1.1-.1 2.7-.1 4v38.6c0 6.8-.4 13.9 3 17.3 3.5 3.5 11.2 3 18.3 3h231.3c6.3 0 14 .7 18-1.8 5.4-3.4 6.1-17.1.7-21.1-3.3-2.5-8.9-2.3-14.7-2.3H243.4c-5.6 0-11.6.3-15-1.9-3-2-3.4-4.5-4.2-8.6-.2-1.1-.1-3.2.1-4.2.2-.9 0-1.5.2-2.3.6-2.2 1.5-4.5 3.2-5.7 4.2-3 12-2.4 19.3-2.4h207.3c6.3 0 12.7.3 16.3-2.3 3.9-2.9 3.7-9.6 3.7-16.5v-34.9c0-6 .5-12.8-1.8-16.5-2.8-4.5-9-4.4-16.3-4.4H244.6c-6.6 0-13.2.3-16.9-2.4-1.6-1.2-2.6-3.5-3.2-5.7-.2-.8 0-1.5-.2-2.3-.2-1-.4-3.1-.1-4.2.9-4 1.3-6.6 4.2-8.6 3.3-2.2 9-1.9 14.5-1.9h211.9c8.3 0 15.1.3 17.6-5.6.9-2.2 1-6.5.4-9.2-.2-1.5-.4-3-.5-4.6-.8-3.5-1.2-7.2-2.2-10.5-.9-2.8-1.3-5.5-2.2-8.3-3.2-9.7-7.3-18.8-12.3-26.8-2.3-3.7-4.8-7.3-7.4-10.8-2.5-3.4-5-5.9-6.1-10.8-.5-2.2.7-4.4 1.4-5.7 2.4-4.5 5.8-8.1 8.7-12.2 4.4-6.2 8.2-13.3 11.4-20.6 1.3-2.9 2.3-6 3.5-9 1.7-4.1 2.4-8.6 3.7-13 .5-1.7.5-3.4 1-5.2.5-1.9.5-3.9 1-6 1.4-6.3.4-12.3-3.7-14.8-1.5-.9-3.6-1-5.6-1.5h-1.8c-1.7-.4-4.2-.1-6.1-.1h-90.4c-4.6 0-8.9-.1-11.6-1.9-3-2-3.4-4.5-4.2-8.6-.2-1.1-.1-3.2.1-4.2.2-.9 0-1.5.2-2.3.6-2.2 1.5-4.5 3.2-5.7 3.7-2.7 10.1-2.4 16.6-2.4h81.7c7.5 0 16.2.8 20-3 3.2-3.2 2.8-9.2 3-15.6.2-8.2.4-16.6.4-25.2v-14.9c0-3.7.1-7.5-1.1-10.2-3.1-7.3-12.9-5.9-23-5.9h-53.9c-10.3 0-18.9-1.1-21.5 6.9-.4 1.2-.6 2.8-.6 4.2-.1 5.6 1 9.8 4.3 11.9 3.5 2.2 9.8 1.8 15.5 1.8h34.4c6.6 0 13.2-.3 17 2.4 3.2 2.4 4.6 10.6 2.9 15.9-2.6 7.9-11 6.9-21.3 6.9h-52c-8 0-17.9 1-22.5-2.4-3.6-2.6-3.6-8.7-3.6-15v-16.5c0-4.6-.1-9.1-2-11.9-1.5-2.1-3.8-3.1-6.8-3.8-.6 0-1.2-.1-1.8-.1-1.4-.3-4.1-.2-5.4.1-3.8.9-6.3 2.3-7.7 5.6-1.2 2.8-1.1 6.8-1.1 10.7v16.9c0 4.7 0 9.2-1.9 12.1-3.5 5.3-12.3 4.3-21 4.3h-53.3c-8.9 0-18.4 1.1-22-4.3-2.2-3.3-2.5-11.1-.7-15.1 1-2.3 3-3.9 5.4-4.9 3.3-1.3 10-.8 14.6-.8h33.2c5.8 0 12.4.5 16.1-1.8 2-1.2 3.2-3.4 3.9-5.9.1-1 .3-1.9.4-2.9.4-1.7-.1-4.7-.4-5.9-.8-3-1.6-5-3.9-6.5-4-2.5-11.7-1.8-18.1-1.8-21.7-.6-43.4-.6-65-.6zm474.9 0c-.6.4-2.6.1-3.5.3-1.9.5-3.7 1-5.1 2-5.3 4-4.6 17.3.7 20.6 1.7 1 3.8 1.2 6 1.7h1.8c1.7.4 4.2.1 6.1.1h90.5c4.6 0 8.9.1 11.6 1.9 5.3 3.5 4.3 12.3 4.3 21v82.9c0 6.3.2 12.2-2.4 15.8-1.2 1.6-3.5 2.6-5.7 3.2-2.3.6-5.2.4-7.9.4h-59.7c-7.6 0-16.4.8-20.7-2.4-1.6-1.2-2.6-3.5-3.2-5.7-.2-.8 0-1.5-.2-2.3-.2-1-.4-3.1-.1-4.2.9-4 1.3-6.6 4.2-8.6 3.5-2.3 9.8-1.9 15.6-1.9h32.3c5.5 0 12.9.6 16.8-1.1 2.9-1.2 4.5-3.5 5.4-6.7 1.1-4 .5-11 .5-15.9v-30.9c0-6.8.4-13.9-3-17.3-4-4-14.1-3-22-3h-49.7c-7.5 0-16.9-.9-21.3 2.3-3.3 2.4-4.7 10.1-3 15.6.9 2.7 2.7 4.8 5.2 5.8 3.8 1.6 9.9 1.1 15 1.1h33.7c5.9 0 12.4-.5 16 1.9 2.9 2 3.4 4.5 4.2 8.6.3 1.6 0 4.7-.3 5.9-.5 2.2-.9 3.7-2 5.2-2.9 4-10.3 3.6-17.4 3.6h-31.9c-5.3 0-12.3-.6-16.4.7-7.4 2.4-6.9 9.7-6.9 19.4v38.4c0 3.3-.1 6.7.7 9.3.5 1.4 1.3 3 2.2 3.9 1 1 2.5 1.8 3.9 2.2 2.5.8 5.8.7 9 .7h91.3c1.8 0 4-.2 5.6.1h1.6c2.1.4 4.1.5 5.6 1.5 2.8 1.7 3.6 3.6 4.4 7.2.3 1.2.7 4.3.3 5.9-.7 3.4-1.1 6.3-3.5 8-1.3.9-2.8 1.6-4.6 2-2.3.6-5 .4-7.7.4H690c-3.7 0-7.5-.1-10.2 1.1-2.2.9-3.9 2.7-4.9 4.9-.6 1.4-.7 3.1-1 4.8-.2 1.4 0 3.4.2 4.6.2 1 .1 1.8.4 2.6.7 2.1 2 4 3.7 5.1 4.4 2.7 16.3 1.8 23.5 1.8h81c4.5 0 8.8.1 11.5 1.9 4.3 2.8 4.3 8.7 4.3 15.9v140.9c0 5.9-.2 11.4-3.6 13.9-4.5 3.3-13.6 2.4-21.3 2.4h-48.5c-6.6 0-17.9.9-21.9-1.6-2.3-1.4-3.7-3.6-4.4-6.6-.2-.8 0-1.5-.2-2.3-.2-1-.4-3.1-.1-4.2.7-3.4 1.1-6.3 3.5-8 4.3-3.1 12.6-2.4 20-2.4h28.7c4.8 0 11 .6 14.9-.5 2.5-.7 4.7-1.9 5.9-3.9 2.4-3.8 1.8-10.9 1.8-16.9v-36.9c0-1.4.1-3.1-.1-4.2-.3-1.2.1-2.4-.2-3.5-.8-3.1-1.8-5.5-4.1-7-3.6-2.3-10.2-1.8-16.1-1.8h-33.4c-5.3 0-11.4.5-15.2-1.2-4-1.7-5.6-5.7-5.6-11.5 0-1.6 0-3 .3-4.3.9-3.2 2.4-5.8 5.3-7 4.1-1.7 10.8-1.2 16.5-1.2h31.6c10.6 0 18.2.8 20.5-7.7 1.4-5 .1-11.6-2.4-14.1-3.7-3.7-11.9-3-19.2-3h-61c-5.7 0-10.7.2-13.5 3-1 1-1.8 2.5-2.2 3.9-.8 2.6-.7 6-.7 9.3v38.5c0 9.6-.5 16.9 6.9 19.3 4 1.3 10.2.7 15.2.7h29.3c7.4 0 15.6-.7 19.9 2.4 2.3 1.7 2.8 4.6 3.5 8 .3 1.6 0 4.7-.3 5.9-.5 2.2-.9 3.7-2 5.2-2.9 4-10.3 3.6-17.2 3.6h-38.9c-1.3 0-2.9-.1-4 .1-1.2.3-2.4-.1-3.5.2-3.1.8-5.5 1.8-7 4.1-2.2 3.5-1.8 9.5-1.8 15.1v30.5c0 5.9-.7 15 1.1 19.2 2.7 6.4 9.9 5.9 18.9 5.9h232.3c6.4 0 14.2.7 18.2-1.8 4.6-2.9 4.4-9.5 4.4-16.9v-36.3c0-6.8.4-13.8-3-17.1-3.3-3.3-10-3-16.6-3h-36.4c-6.9 0-14 .4-16.9-3.6-1.1-1.5-1.5-3-2-5.2-.3-1.2-.7-4.3-.3-5.9.9-4 1.3-6.6 4.2-8.6 3.5-2.3 10-1.9 15.8-1.9h32.7c9.7 0 18.6 1.1 21.5-5.9 1.6-3.9 1.1-10.9 1.1-16.3v-32.6c0-6.7.4-13.6-3-16.9-4.1-4.1-14.5-3-22.5-3h-57.2c-1.6 0-3.7-.2-5.2.1h-1.8c-1.6.3-3.2.4-4.6 1-2.5 1.1-4.3 3.1-5.2 5.8-.4 1.2-.2 2.3-.5 3.7-.2.9-.2 2.7 0 3.6.2 1.1.1 1.9.3 2.9.9 3.2 2.5 5.5 5.4 6.7 3.9 1.6 11 1.1 16.4 1.1h33c6.9 0 14.2-.4 17.1 3.6 1.1 1.5 1.5 3 2 5.2.3 1.2.7 4.3.3 5.9-.7 3.4-1.1 6.3-3.5 8-4.3 3.1-12.6 2.4-20 2.4h-35.4c-1.2 0-2.7-.1-3.7.1-1.2.3-2.4-.1-3.5.2-3.1.8-5.5 1.8-7 4.1-2.1 3.4-1.8 9.4-1.8 14.9v38.4c0 1.5-.2 3.4.1 4.7v1.8c.2.9.2 1.9.4 2.8.7 2.5 1.9 4.7 3.9 5.9 3.8 2.4 10.9 1.8 16.9 1.8h33c5.5 0 12.2-.6 15.7 1.6 1.9 1.2 3.4 3 4.1 5.3.4 1.2.2 2.2.5 3.6.2 1.1.2 3.2 0 4.2-.2.9 0 1.5-.2 2.3-.7 2.7-1.9 4.9-3.9 6.2-3.1 2-8.2 1.9-13.3 1.9h-61.1c-6.8 0-13.8.4-17.7-2.4-1.6-1.2-2.6-3.5-3.2-5.7-.6-2.3-.4-5.2-.4-7.9V774.9c0-7.6-.8-16.4 2.4-20.7 3.5-4.9 16.1-3.6 24.7-3.6h82.4c3.6 0 7.3 0 9.9-1.1 2.5-1.1 4.3-3.1 5.2-5.8.4-1.3.6-2.9.6-4.4 0-5.5-1-9.6-4.3-11.6-1.7-1-3.8-1.2-6-1.7h-1.8c-1.7-.4-4.1-.1-6-.1h-91.2c-2.7 0-5.5.2-7.7-.4-1.7-.5-3.3-1.1-4.6-2-2.3-1.7-2.8-4.6-3.5-8-.3-1.6 0-4.7.3-5.9.9-3.6 1.7-5.5 4.4-7.2 1.5-.9 3.6-1 5.6-1.5h1.6c1.6-.3 3.9-.1 5.7-.1h91.6c3.2 0 6.5.1 9-.7 1.4-.5 3-1.3 3.9-2.2 1-1 1.8-2.5 2.2-3.9.8-2.6.7-6 .7-9.3v-38.5c0-9.6.5-16.9-6.9-19.3-4.2-1.3-11.2-.7-16.5-.7h-32.2c-6.4 0-12.5.2-16.2-2.4-1.9-1.4-2.5-3.6-3.2-6.4-.3-1.2-.7-4.3-.3-5.9.9-4 1.3-6.6 4.2-8.6 3.6-2.4 10.2-1.9 16.1-1.9h33.9c5.2 0 11.4.5 15.1-1.1 2.5-1.1 4.3-3.1 5.2-5.8 1.6-5 .5-12.2-2.2-14.9-4-4-14.2-3-22.1-3h-49.9c-7.5 0-17-.9-21.4 2.3-4 3-3.7 9.9-3.7 16.9v39.1c0 1.3-.1 2.9.1 4 .3 1.2-.1 2.4.2 3.5.8 3.1 1.8 5.5 4.1 7 4 2.5 11.9 1.8 18.3 1.8h32.3c5.8 0 12.1-.4 15.6 1.9 2.9 2 3.4 4.5 4.2 8.6.2 1.2.1 3.2-.1 4.2-.2.9 0 1.5-.2 2.3-.6 2.2-1.5 4.5-3.2 5.7-4.4 3.2-13.3 2.4-21 2.4h-58.4c-4.2 0-8.4.1-11.4-1.2-1.7-.7-3.2-2.2-4.1-3.7-1.6-2.6-1.6-6.7-1.6-10.8v-83.7c0-6.3-.7-15.6 1.2-20 1.2-2.9 3.7-4.4 7-5.3 2.8-.7 6.9-.4 10.3-.4H931c1.6 0 3.7.2 5.2-.1h1.8c1.6-.3 3.2-.4 4.6-1 4.2-1.8 6.4-6.4 5.8-12.9-.2-1.7-.4-3.5-1-4.9-2.7-6.5-10.1-5.9-19.3-5.9h-44c-65.2.1-131.4.1-197.5.1zm-626.4.1c-.6.3-2.9.4-3.7.6-2.1.7-4 2-5.1 3.7-1 1.7-1.2 3.8-1.7 6v1.8c-.3 1.6-.1 3.9-.1 5.7v88.2c0 3.7-.3 7.7.5 10.7.9 3.2 2.5 5.5 5.4 6.7 2.8 1.2 6.7 1.1 10.6 1.1h16.5c4.2 0 8.3-.1 11.2 1.2 2.9 1.2 4.4 3.7 5.3 7 .4 1.5.6 4.9.2 6.6-.3 1.4-.1 2.4-.5 3.6-1 3-3.1 5.1-6.1 6.1-2.8.9-6.6.7-10.2.7H66c-6.7 0-12.1.4-14.6 4.4-1.8 2.9-1.8 7.6-1.8 12.4v241.5c0 4.7 0 9.3 1.8 12.2 1.4 2.3 3.5 3.1 6.5 3.9 1.2.3 4.2.8 5.9.4 1-.1 1.9-.3 2.9-.4 2.5-.7 4.7-1.9 5.9-3.9 2.1-3.4 1.8-9.2 1.8-14.6V721.4c0-6-.5-12.8 1.9-16.4 2-2.9 4.5-3.4 8.6-4.2 1.6-.3 4.7 0 5.9.3 2.7.7 5 1.3 6.3 3.2 2.8 3.9 2.4 10.8 2.4 17.6V932c0 6-.2 11.8 2.3 15.2 3.3 4.5 15.4 4.9 19.5.7 3.2-3.2 3-9.5 3-15.9V722.1c0-6.1-.6-13.3 1.9-17 2-2.9 4.5-3.4 8.6-4.2 1.2-.2 3.2-.1 4.2.1.9.2 1.5 0 2.3.2 2.2.6 4.5 1.5 5.7 3.2 2.7 3.8 2.4 10.2 2.4 16.8v208.6c0 7-.6 14.7 3 18.2 1.7 1.7 3.7 2 6.6 2.6 1.1.3 3.1.4 4.6.2 1.3-.2 2.6-.3 3.8-.6 7.5-2.4 6.9-9.9 6.9-19.7V701.6c0-6 .7-15.4-1.1-19.7-2.5-6-8.9-5.9-17.4-5.9h-14.7c-3 0-6.2.2-8.7-.4-3.8-1-6.2-2.9-7.4-6.5-.4-1.2-.2-2.2-.5-3.6-.4-1.7-.2-5.1.2-6.6.9-3.2 2.4-5.8 5.3-7 2.9-1.2 6.8-1.2 10.9-1.2h16c5.9 0 11.4 0 14.4-3 1-1 1.8-2.5 2.2-3.9.8-2.5.7-5.8.7-9.1v-91.3c0-1.6.2-3.7-.1-5.2v-1.8c-.3-1.6-.4-3.2-1-4.6-.9-2.2-2.7-3.9-4.9-4.9-1.4-.6-3-.6-4.7-1-1.7-.4-4.7.1-5.9.4-3 .8-5 1.6-6.5 3.9-2.6 4.2-1.8 13.6-1.8 20.3v49.6c0 7 .9 16.9-1.9 21.2-2 2.9-4.5 3.4-8.6 4.2-1.2.2-3.2.1-4.2-.1-.9-.2-1.5 0-2.3-.2-2.7-.7-4.9-1.9-6.2-3.9-2.8-4.3-1.9-14.6-1.9-21.7v-50.9c0-6.5.7-14.5-1.8-18.5-1.4-2.3-3.5-3.1-6.5-3.9-1.2-.3-4.2-.8-5.9-.4-1.6.4-3.3.4-4.7 1-6.9 2.9-5.9 11.4-5.9 21.1v53.7c0 8 1.1 18.3-3.6 21.7-1.3.9-2.8 1.6-4.6 2-.8.2-1.5 0-2.3.2-1.4.3-3.9.3-5.3 0-3.4-.8-5.9-1.7-7.5-4.1-2.9-4.3-1.9-14.7-1.9-21.8v-50.4c0-7.6.9-16.6-3-20.4-2.2-2.3-6.1-2.8-11-2.7zm474.9 0c-.6.3-2.9.4-3.7.6-2.1.7-4 2-5.1 3.7-1 1.7-1.2 3.8-1.7 6v1.8c-.3 1.6-.1 3.9-.1 5.7v88.2c0 3.7-.3 7.7.5 10.7.9 3.2 2.5 5.5 5.4 6.7 2.8 1.2 6.7 1.1 10.6 1.1h16.5c4.2 0 8.3-.1 11.2 1.2 2.9 1.2 4.4 3.7 5.3 7 .4 1.5.6 4.9.2 6.6-.3 1.4-.1 2.4-.5 3.6-1 3-3.1 5.1-6.1 6.1-2.8.9-6.6.7-10.2.7h-16.5c-6.7 0-12.1.4-14.6 4.4-1.8 2.9-1.8 7.6-1.8 12.4v241.5c0 4.7 0 9.3 1.8 12.2 1.4 2.3 3.5 3.1 6.5 3.9 1.2.3 4.2.8 5.9.4 1-.1 1.9-.3 2.9-.4 2.5-.7 4.7-1.9 5.9-3.9 2.1-3.4 1.8-9.2 1.8-14.6V721.4c0-6-.5-12.8 1.9-16.4 2-2.9 4.5-3.4 8.6-4.2 1.6-.3 4.7 0 5.9.3 2.7.7 5 1.3 6.3 3.2 2.8 3.9 2.4 10.8 2.4 17.6V932c0 6-.2 11.8 2.3 15.2 3.3 4.5 15.4 4.9 19.5.7 3.2-3.2 3-9.5 3-15.9V722.1c0-6.1-.6-13.3 1.9-17 2-2.9 4.5-3.4 8.6-4.2 1.2-.2 3.2-.1 4.2.1.9.2 1.5 0 2.3.2 2.2.6 4.5 1.5 5.7 3.2 2.7 3.8 2.4 10.2 2.4 16.8v208.6c0 7-.6 14.7 3 18.2 1.7 1.7 3.7 2 6.6 2.6 1.1.3 3.1.4 4.6.2 1.3-.2 2.6-.3 3.8-.6 7.5-2.4 6.9-9.9 6.9-19.7V701.6c0-6 .7-15.4-1.1-19.7-2.5-6-8.9-5.9-17.4-5.9H616c-3 0-6.2.2-8.7-.4-3.8-1-6.2-2.9-7.4-6.5-.4-1.2-.2-2.2-.5-3.6-.4-1.7-.2-5.1.2-6.6.9-3.2 2.4-5.8 5.3-7 2.9-1.2 6.8-1.2 10.9-1.2h16c5.9 0 11.4 0 14.4-3 1-1 1.8-2.5 2.2-3.9.8-2.5.7-5.8.7-9.1v-91.3c0-1.6.2-3.7-.1-5.2v-1.8c-.3-1.6-.4-3.2-1-4.6-.9-2.2-2.7-3.9-4.9-4.9-1.4-.6-3-.6-4.7-1-1.7-.4-4.7.1-5.9.4-3 .8-5 1.6-6.5 3.9-2.6 4.2-1.8 13.6-1.8 20.3v49.6c0 7 .9 16.9-1.9 21.2-2 2.9-4.5 3.4-8.6 4.2-1.2.2-3.2.1-4.2-.1-.9-.2-1.5 0-2.3-.2-2.7-.7-4.9-1.9-6.2-3.9-2.8-4.3-1.9-14.6-1.9-21.7v-50.9c0-6.5.7-14.5-1.8-18.5-1.4-2.3-3.5-3.1-6.5-3.9-1.2-.3-4.2-.8-5.9-.4-1.6.4-3.3.4-4.7 1-6.9 2.9-5.9 11.4-5.9 21.1v53.7c0 8 1.1 18.3-3.6 21.7-1.3.9-2.8 1.6-4.6 2-.8.2-1.5 0-2.3.2-1.4.3-3.9.3-5.3 0-3.4-.8-5.9-1.7-7.5-4.1-2.9-4.3-1.9-14.7-1.9-21.8v-50.4c0-7.6.9-16.6-3-20.4-2.2-2.3-6.1-2.8-11-2.7z" fill-rule="evenodd" clip-rule="evenodd" fill="#fff"/></svg>