<?xml version="1.0" encoding="utf-8"?>
<!-- Generator: Adobe Illustrator 21.1.0, SVG Export Plug-In . SVG Version: 6.00 Build 0)  -->
<svg version="1.1" id="Layer_1" xmlns="http://www.w3.org/2000/svg" xmlns:xlink="http://www.w3.org/1999/xlink" x="0px" y="0px"
 viewBox="0 0 1000 1000" style="enable-background:new 0 0 1000 1000;" xml:space="preserve">
<style type="text/css">
.st0{fill-rule:evenodd;clip-rule:evenodd;fill:#FFFFFF;}
</style>
<path class="st0" d="M47.3,1c226.6,0,453.3,0,679.9,0c57.6,0,115.1,0,172.7,0c12.7,0,25.4,0,38.1,0c3.4,0,6.7,0,10.1,0
c2.2,0,4.6-0.1,6.5,0.3c1.4,0.3,2.5,0.1,3.8,0.4c2.8,0.7,5.7,1.2,8.3,2.2c5,2.1,9.5,4.5,13.5,7.5c1.8,1.3,4.2,3.5,5.5,5.2
c0.4,0.4,0.8,0.7,1.2,1.1c1.1,1.4,2.4,2.8,3.4,4.2c3.7,5.2,6.1,11,8,18c1.4,5.1,1.2,11.7,1.2,18.2c0,9.5,0,18.9,0,28.4
c0,39.8,0,79.6,0,119.4c0,188.9,0,377.8,0,566.6c0,49,0,97.9,0,146.9c0,8.3,0,16.7,0,25c0,3.3,0.4,7.6-0.2,10.5c-0.1,1-0.1,2-0.2,3
c-0.9,3.6-1.2,7.1-2.5,10.3c-1.3,3.3-2.8,6.5-4.6,9.3c-1,1.6-2.3,3.1-3.4,4.6c-0.6,0.8-1.1,1.5-1.7,2.2c-0.4,0.4-0.8,0.7-1.2,1.1
c-0.5,0.6-1.1,1.4-1.7,1.9c-2.7,2-5.1,4.4-8,6.2c-4.5,2.9-9.7,4.7-15.5,6.4c-5.8,1.6-13.6,1.2-20.8,1.2c-11.7,0-23.5,0-35.2,0
c-43.6,0-87.1,0-130.7,0c-182.8,0-365.7,0-548.5,0c-43.5,0-86.9,0-130.4,0c-11.8,0-23.6,0-35.5,0c-7.2,0-15.1,0.4-20.8-1.2
c-3.4-1-6.7-1.9-9.7-3.3C18.2,991.9,8.6,982.2,4,971.7c-1.3-3-2.3-6.3-3.3-9.7c-0.3-1.7-0.6-3.3-0.8-5c-0.5-2.2-0.3-5.1-0.3-7.6
c0-4.2,0-8.5,0-12.7c0-11.9,0-23.7,0-35.6c0-49,0-98.1,0-147.1c0-179,0-358,0-537c0-41.6,0-83.1,0-124.7c0-10.6,0-21.2,0-31.8
c0-2.9,0-5.7,0-8.6c0-1.7-0.1-3.5,0.2-5c0.1-1,0.1-2,0.2-3c0.3-1.3,0.4-2.8,0.7-4.1c1-3.4,1.9-6.7,3.3-9.7C9.4,17.9,19.7,9.2,32.3,4
c2.9-1.2,6.2-1.6,9.5-2.4C43.7,1.4,45.5,1.2,47.3,1z M361.6,51.1c-0.6,0.4-2.6,0.1-3.5,0.3c-2.7,0.7-5,1.5-6.5,3.4
c-3.8,5.1-2.7,16.2,2.1,19.3c4.4,2.7,13.3,1.8,20.2,1.8c15.3,0,30.6,0,45.9,0c5.9,0,16-0.7,19.6,1.5c1.7,1,2.8,2.5,3.3,4.8
c0.5,2-0.5,4.8-1,6c-1.7,4.7-3.8,8.9-6.2,12.9c-1.6,2.7-3.1,5.3-4.9,7.8c-1.1,1.5-2.5,2.9-3.6,4.4c-1.7,2.2-4,4.4-6.9,5.4
c-1.4,0.4-4,0.6-5.5,0.1c-3.5-1.1-6.5-2.9-9.5-4.4c-7.3-3.8-15.4-6.4-23.9-9.1c-3.8-1.2-7.9-1.6-12-2.5c-1.2-0.1-2.4-0.3-3.6-0.4
c-4.9-1.1-10.2-0.6-13.2,1.7c-4.1,3.1-3.8,14.2-0.8,18.3c2.2,3,6.1,3.4,10.3,4.4c1,0.1,1.9,0.2,2.9,0.3c1.9,0.4,3.8,0.5,5.7,1.1
c4.3,1.2,8.6,2.2,12.4,3.8c2.4,1,4.3,1.9,5.7,3.9c0.4,0.7,1.3,1.7,1,3.1c-1.1,4.8-7.2,6.2-11.7,7.7c-4,1.3-8.5,2-13,3.1
c-1,0.1-1.9,0.2-2.9,0.3c-3.3,0.8-6.4,1.2-8.7,2.9c-2.6,2-3,4.7-3.8,8.5c-0.3,1.5,0,4.4,0.3,5.5c1,3.8,1.8,6,5.2,7.4
c2.2,0.9,6.5,1,9.2,0.4c1.5-0.2,3-0.4,4.6-0.5c4.4-1.1,8.9-1.6,12.9-2.9c2.2-0.7,4.3-1,6.5-1.8c3.4-1.3,6.9-2.4,10.2-3.8
c1.4-0.6,2.8-1.4,4.1-2c1.8-0.8,3.6-1.4,5.2-2.4c2.3-1.4,7.7-4.5,11.9-3.4c6.3,1.6,10.9,9.4,14.1,14.4c2,3.2,4.2,6.6,5.8,10.2
c1.5,3.4,2.9,6.9,4.3,10.5c1.5,3.6,2.2,7.7,3.3,11.6c1,3.7,0.9,7.7,1.8,11.6c0.1,1.4,0.1,2.8,0.2,4.2c0.4,1.7,0.1,3.6,0.2,5.5
c0.1,2,0.1,4.5,0.1,6.7c0,2.1,0,4.2,0,6.2c-0.2,0.8,0,1.8-0.2,2.6c-0.7,2.9-1.4,5.5-3.4,7c-4.4,3.2-13.3,2.4-21,2.4
c-15.8,0-31.5,0-47.3,0c-3.5,0-7,0-10.5,0c-1.7,0-3.8-0.2-5.3,0.1c-0.6,0-1.2,0-1.8,0c-1.6,0.3-3.2,0.4-4.6,1
c-2.9,1.2-4.5,3.5-5.4,6.7c-1.1,3.8-0.5,10.6-0.5,15.3c0,9.9,0,19.8,0,29.6c0,6.2-0.6,13.7,1.8,17.6c1.6,2.6,4.2,3.4,7.7,4.2
c2,0.5,5.2,0.2,7.5,0.2c4.7,0,9.5,0,14.2,0c15.1,0,30.1,0,45.2,0c7.4,0,15.6-0.7,19.9,2.4c1.9,1.4,2.5,3.6,3.2,6.3
c0.3,1.1,0.6,4.5,0.3,5.9c-0.9,4-1.3,6.6-4.2,8.6c-4.2,2.8-13.8,1.9-20.7,1.9c-16,0-32.1,0-48.2,0c-3.2,0-6.3,0-9.5,0
c-1.5,0-3.5-0.2-4.9,0.1c-0.6,0-1.2,0-1.8,0c-1.6,0.3-3.2,0.4-4.6,1c-2.2,0.9-3.9,2.7-4.9,4.9c-1.1,2.7-1.1,6.6-1.1,10.4
c0,5.3,0,10.5,0,15.8c0,7.5,0,15.1,0,22.6c0,9.6-0.5,16.9,6.9,19.3c2.5,0.8,5.8,0.7,9.1,0.7c4.3,0,8.6,0,12.9,0
c15.1,0,30.1,0,45.2,0c6.3,0,15.7-0.7,20.1,1.2c2.4,1,4.1,3.2,5,5.7c1.7,5.3,0.4,13.5-2.9,15.9c-4.6,3.3-14,2.4-21.8,2.4
c-16.7,0-33.4,0-50.2,0c-7.8,0-17.4-1-21.4,3c-1.7,1.7-2,3.7-2.6,6.6c-0.2,1-0.5,3.9-0.2,5.2c0.9,3.9,1.2,6.5,4,8.5
c3.2,2.2,8.6,2,14,2c3.5,0,7,0,10.5,0c20,0,40.1,0,60.1,0c6.1,0,12.1,0,18.2,0c3.6,0,7.5,0.3,10.5-0.5c2.5-0.7,4.7-1.9,5.9-3.9
c2.4-3.8,1.8-10.9,1.8-16.9c0-10.2,0-20.5,0-30.7c0-7.1,0.7-15.3-2.3-19.4c-3.4-4.6-12.7-3.7-20.6-3.7c-17.8,0-35.7,0-53.5,0
c-7.4,0-15.9,0.7-20.2-2.4c-1.9-1.4-2.5-3.6-3.2-6.4c-0.3-1.1-0.6-4.5-0.3-5.9c0.7-3.4,1.1-6.3,3.5-8c4.8-3.5,16-2.4,24.2-2.4
c14.7,0,29.4,0,44.1,0c3.6,0,7.1,0,10.7,0c1.7,0,3.9,0.2,5.4-0.1c0.6,0,1.2,0,1.8,0c1.2-0.2,2.4-0.4,3.6-0.6
c7.4-2.4,6.9-9.6,6.9-19.3c0-7.6,0-15.2,0-22.8c0-5.2,0-10.4,0-15.7c0-3.8,0.1-7.7-1.1-10.4c-0.9-2.2-2.7-3.9-4.9-4.9
c-1.3-0.6-3-0.6-4.6-1c-0.6,0-1.2,0-1.8,0c-1.4-0.3-3.4-0.1-5-0.1c-3.2,0-6.3,0-9.5,0c-16.1,0-32.2,0-48.4,0
c-6.9,0-16.7,0.9-20.8-1.9c-3-2-3.4-4.5-4.2-8.6c-0.4-1.6,0-4.7,0.3-5.9c0.7-2.7,1.3-5,3.2-6.4c4.3-3.1,12.8-2.4,20.3-2.4
c17.8,0,35.6,0,53.4,0c8.4,0,17.5,0.9,21-4.1c1.9-2.8,2-7.3,2-12c0-5.6,0-11.2,0-16.8c0-2.2,0-4.4,0-6.6c0-1.1,0.1-2.5-0.1-3.4
c0-1.4,0-2.8,0-4.1c-0.2-0.7,0.1-1.8-0.1-2.6c-0.3-4.1-0.6-8.1-0.8-12.2c-0.8-3.7-0.7-7.6-1.6-11.2c-0.5-1.8-0.6-3.7-1.2-5.5
c-1.6-5.6-2.9-11.3-5.1-16.4c-3.8-9.1-8-17.7-13.3-25.3c-1.8-2.6-3.8-5.1-5.6-7.6c-1.5-2.1-3.2-4.1-4.1-6.9
c-0.9-2.7,0.1-5.6,1.1-7.4c2.6-4.9,6.5-8.9,9.5-13.4c6.2-9.2,11.2-19.7,15-31.2c1.3-3.9,1.9-7.9,3.1-12.1c0.7-2.6,0.9-5.7,1.6-8.5
c0.3-1.2,0-2.2,0.3-3.5c0.4-2.1,0.4-5.4-0.2-7.2c-0.8-2.5-2.4-4.4-4.7-5.4c-1.4-0.6-3.1-0.7-4.8-1.1c-0.6,0-1.2,0-1.8,0
c-1.6-0.3-3.9-0.1-5.7-0.1c-3.8,0-7.5,0-11.3,0C416.9,51.1,389.2,51.1,361.6,51.1z M536.8,51.1c-0.6,0.4-2.6,0.1-3.5,0.3
c-2.3,0.6-4.4,1.2-5.8,2.6c-2.7,2.7-3.8,10-2.2,14.9c0.9,2.7,2.7,4.8,5.2,5.8c1.3,0.6,3,0.6,4.6,1c0.6,0,1.2,0,1.8,0
c1.5,0.3,3.5,0.1,5.2,0.1c3.3,0,6.6,0,9.9,0c15.3,0,30.7,0,46,0c53.5,0,107.1,0,160.6,0c14.1,0,28.3,0,42.4,0
c6.6,0,14.8-0.8,18.8,1.9c2.9,2,3.4,4.5,4.2,8.6c0.2,1.2,0.1,3.2-0.1,4.2c-0.2,0.9,0,1.5-0.2,2.3c-0.6,2.2-1.5,4.5-3.2,5.7
c-4.5,3.3-13.6,2.4-21.3,2.4c-16.1,0-32.2,0-48.3,0c-54.2,0-108.5,0-162.8,0c-13.8,0-27.7,0-41.5,0c-6.9,0-14.7-0.6-18.6,2.3
c-3.9,2.9-3.7,9.4-3.7,16.2c0,11.9,0,23.8,0,35.7c0,6-0.5,12.8,2,16.4c3.1,4.4,10,4.1,17.6,4.1c13.3,0,26.5,0,39.8,0
c57.5,0,115.1,0,172.6,0c14.4,0,28.7,0,43.1,0c7.6,0,16.6-0.8,21.1,2.4c2,1.5,2.7,4.1,3.4,7c0,1,0.1,2,0.1,3.1
c0,4.5-0.9,8.4-3.5,10.3c-4.8,3.5-15.8,2.4-24,2.4c-18.9,0-37.8,0-56.7,0c-52.4,0-104.9,0-157.4,0c-12.7,0-25.3,0-38,0
c-6.7,0-13.7-0.4-17,3c-3.4,3.4-3,10.4-3,17.1c0,10.5,0,21,0,31.5c0,5.2-0.6,12.1,0.7,16.2c2.5,7.6,10.2,6.9,20.1,6.9
c15.1,0,30.2,0,45.3,0c59.1,0,118.2,0,177.3,0c11.8,0,23.6,0,35.5,0c6,0,12.9-0.5,16.5,1.9c2.5,1.6,3.4,4.1,4.1,7.5
c0,1.1,0.1,2.2,0.1,3.3c0,5-1.2,8.6-4.2,10.6c-3.1,2.1-8.4,1.9-13.7,1.9c-3.6,0-7.2,0-10.8,0c-19.6,0-39.2,0-58.8,0
c-51.6,0-103.3,0-154.9,0c-12.5,0-24.9,0-37.4,0c-6.7,0-13.5-0.4-16.8,3c-3.4,3.4-3,10.4-3,17.1c0,10.2,0,20.4,0,30.6
c0,2.6,0,5.2,0,7.8c0,1.3-0.1,2.8,0.1,3.9c0.3,1.2-0.1,2.4,0.2,3.5c0.8,3.1,1.8,5.5,4.1,7c4.2,2.6,12.5,1.8,19,1.8
c14.3,0,28.6,0,42.9,0c59,0,118,0,176.9,0c11.8,0,23.6,0,35.5,0c6,0,13-0.5,16.6,1.9c2.9,2,3.4,4.5,4.2,8.6c0.2,1.2,0.1,3.2-0.1,4.2
c-0.2,0.9,0,1.5-0.2,2.3c-0.6,2.2-1.5,4.5-3.2,5.7c-4.1,3-12,2.4-19.2,2.4c-13.9,0-27.9,0-41.8,0c-59.4,0-118.8,0-178.2,0
c-11.9,0-23.7,0-35.6,0c-6.1,0-13.1-0.6-16.9,1.8c-2,1.2-3.2,3.4-3.9,5.9c-1.1,4-0.5,11.1-0.5,16c0,10.4,0,20.7,0,31.1
c0,6.8-0.4,14,3,17.4c4,4,14,3,21.9,3c18.4,0,36.8,0,55.2,0c74.7,0,149.4,0,224.1,0c28.7,0,57.4,0,86,0c6,0,12,0,18,0
c5.7,0,10.7-0.2,13.5-3c4.6-4.6,3.6-17.3-1.5-20.4c-4.3-2.7-12.9-1.8-19.7-1.8c-14.7,0-29.4,0-44.1,0c-81.7,0-163.5,0-245.2,0
c-19.6,0-39.2,0-58.8,0c-8.2,0-19.4,1-24.1-2.4c-2.3-1.7-2.8-4.6-3.5-8c-0.2-1.2-0.1-3.2,0.1-4.2c0.2-0.9,0-1.5,0.2-2.3
c0.8-3,2.1-5.1,4.4-6.6c1.5-0.9,3.6-1,5.6-1.5c0.5,0,1.1,0,1.6,0c1.6-0.3,3.9-0.1,5.7-0.1c3.7,0,7.5,0,11.2,0c19.3,0,38.7,0,58,0
c78.3,0,156.6,0,234.8,0c18.4,0,36.8,0,55.2,0c8.6,0,17.8,0.9,21.2-4.4c2.1-3.3,1.8-9,1.8-14.4c0-9.2,0-18.5,0-27.7
c0-35.7,0-71.3,0-107c0-53.8,0-107.7,0-161.5c0-13.1,0-26.1,0-39.2c0-6.8,0.4-13.9-3-17.3c-2.8-2.8-7.9-3-13.5-3
c-4.9,0-9.9,0-14.8,0c-25.3,0-50.5,0-75.8,0C740.4,51.1,638.6,51.1,536.8,51.1z M60.2,51.2c-0.6,0.3-2.9,0.4-3.7,0.6
c-2.1,0.7-4,2-5.1,3.7c-1,1.7-1.2,3.8-1.7,6c0,0.6,0,1.2,0,1.8c-0.3,1.6-0.1,3.9-0.1,5.7c0,3.7,0,7.4,0,11.1c0,19.5,0,38.9,0,58.4
c0,6.2,0,12.5,0,18.7c0,3.7-0.3,7.7,0.5,10.7c0.9,3.2,2.5,5.5,5.4,6.7c2.8,1.2,6.7,1.1,10.6,1.1c5.5,0,11,0,16.5,0
c4.2,0,8.3-0.1,11.2,1.2c2.9,1.2,4.4,3.7,5.3,7c0.4,1.5,0.6,4.9,0.2,6.6c-0.3,1.4-0.1,2.4-0.5,3.6c-1,3-3.1,5.1-6.1,6.1
c-2.8,0.9-6.6,0.7-10.2,0.7c-5.5,0-11,0-16.5,0c-6.7,0-12.1,0.4-14.6,4.4c-1.8,2.9-1.8,7.6-1.8,12.4c0,6.7,0,13.3,0,20
c0,26.7,0,53.5,0,80.2c0,40.6,0,81.3,0,121.9c0,6.5,0,12.9,0,19.4c0,4.7,0,9.3,1.8,12.2c1.4,2.3,3.5,3.1,6.5,3.9
c1.2,0.3,4.2,0.8,5.9,0.4c1-0.1,1.9-0.3,2.9-0.4c2.5-0.7,4.7-1.9,5.9-3.9c2.1-3.4,1.8-9.2,1.8-14.6c0-9.6,0-19.1,0-28.7
c0-48.9,0-97.8,0-146.7c0-11.7,0-23.4,0-35c0-6-0.5-12.8,1.9-16.4c2-2.9,4.5-3.4,8.6-4.2c1.6-0.3,4.7,0,5.9,0.3
c2.7,0.7,5,1.3,6.3,3.2c2.8,3.9,2.4,10.8,2.4,17.6c0,8.2,0,16.4,0,24.7c0,52,0,103.9,0,155.9c0,9.8,0,19.7,0,29.5
c0,6-0.2,11.8,2.3,15.2c3.3,4.5,15.4,4.9,19.5,0.7c3.2-3.2,3-9.5,3-15.9c0-11.1,0-22.2,0-33.3c0-46.6,0-93.2,0-139.8
c0-12.3,0-24.6,0-36.8c0-6.1-0.6-13.3,1.9-17c2-2.9,4.5-3.4,8.6-4.2c1.2-0.2,3.2-0.1,4.2,0.1c0.9,0.2,1.5,0,2.3,0.2
c2.2,0.6,4.5,1.5,5.7,3.2c2.7,3.8,2.4,10.2,2.4,16.8c0,11.1,0,22.3,0,33.4c0,50.7,0,101.3,0,152c0,7.7,0,15.5,0,23.2
c0,7-0.6,14.7,3,18.2c1.7,1.7,3.7,2,6.6,2.6c1.1,0.3,3.1,0.4,4.6,0.2c1.3-0.2,2.6-0.3,3.8-0.6c7.5-2.4,6.9-9.9,6.9-19.7
c0-14,0-27.9,0-41.9c0-48.4,0-96.9,0-145.3c0-13.9,0-27.8,0-41.7c0-6,0.7-15.4-1.1-19.7c-2.5-6-8.9-5.9-17.4-5.9
c-4.9,0-9.8,0-14.7,0c-3,0-6.2,0.2-8.7-0.4c-3.8-1-6.2-2.9-7.4-6.5c-0.4-1.2-0.2-2.2-0.5-3.6c-0.4-1.7-0.2-5.1,0.2-6.6
c0.9-3.2,2.4-5.8,5.3-7c2.9-1.2,6.8-1.2,10.9-1.2c5.3,0,10.7,0,16,0c5.9,0,11.4,0,14.4-3c1-1,1.8-2.5,2.2-3.9
c0.8-2.5,0.7-5.8,0.7-9.1c0-4.3,0-8.5,0-12.8c0-22.7,0-45.4,0-68.2c0-3.4,0-6.8,0-10.3c0-1.6,0.2-3.7-0.1-5.2c0-0.6,0-1.2,0-1.8
c-0.3-1.6-0.4-3.2-1-4.6c-0.9-2.2-2.7-3.9-4.9-4.9c-1.4-0.6-3-0.6-4.7-1c-1.7-0.4-4.7,0.1-5.9,0.4c-3,0.8-5,1.6-6.5,3.9
c-2.6,4.2-1.8,13.6-1.8,20.3c0,16.5,0,33.1,0,49.6c0,7,0.9,16.9-1.9,21.2c-2,2.9-4.5,3.4-8.6,4.2c-1.2,0.2-3.2,0.1-4.2-0.1
c-0.9-0.2-1.5,0-2.3-0.2c-2.7-0.7-4.9-1.9-6.2-3.9c-2.8-4.3-1.9-14.6-1.9-21.7c0-17,0-33.9,0-50.9c0-6.5,0.7-14.5-1.8-18.5
c-1.4-2.3-3.5-3.1-6.5-3.9c-1.2-0.3-4.2-0.8-5.9-0.4c-1.6,0.3-3.3,0.4-4.7,1c-6.9,2.9-5.9,11.4-5.9,21.1c0,17.9,0,35.8,0,53.7
c0,8,1.1,18.3-3.6,21.7c-1.3,0.9-2.8,1.6-4.6,2c-0.8,0.2-1.5,0-2.3,0.2c-1.4,0.3-3.9,0.3-5.3,0c-3.4-0.8-5.9-1.7-7.5-4.1
c-2.9-4.3-1.9-14.7-1.9-21.8c0-16.8,0-33.6,0-50.4c0-7.6,0.9-16.6-3-20.4C69,51.6,65.1,51.2,60.2,51.2z M210,51.2
c-0.6,0.3-2.9,0.4-3.7,0.6c-2.7,0.9-4.8,2.7-5.8,5.2c-1.6,3.8-1.1,10.7-1.1,16c0,11.5,0,22.9,0,34.4c0,7.4-0.1,13.8,4.4,16.6
c2.9,1.8,7.4,1.8,12.1,1.8c5.5,0,11.1,0,16.6,0c4.1,0,8.2-0.1,11.1,1.2c3.3,1.4,4.4,3.8,5.3,7.6c0.3,1.2,0.7,4.3,0.3,5.9
c-0.3,1.2-0.3,2.5-0.6,3.6c-0.8,2.6-2.6,4.7-5,5.7c-2.9,1.2-7,1.2-11.1,1.2c-5.5,0-11.1,0-16.6,0c-3.8,0-7.8-0.1-10.6,1.1
c-2.2,0.9-3.9,2.7-4.9,4.9c-1.9,4.4-1,12,1.3,15.1c1,1.3,2.8,2.4,4.6,3c2.6,0.8,5.9,0.7,9.2,0.7c4.4,0,8.8,0,13.2,0
c22.3,0,44.6,0,66.9,0c3.6,0,7.1,0,10.7,0c1.7,0,4,0.2,5.5-0.1c0.6,0,1.2,0,1.8,0c1.2-0.2,2.4-0.4,3.6-0.6c1.4-0.5,3-1.3,3.9-2.2
c2.7-2.7,3.8-10,2.2-14.9c-0.9-2.7-2.7-4.8-5.2-5.8c-2.8-1.2-6.7-1.1-10.6-1.1c-5.5,0-11.1,0-16.6,0c-4.1,0-8.2,0.1-11.1-1.2
c-3.3-1.4-4.4-3.8-5.3-7.6c-0.3-1.2-0.7-4.3-0.3-5.9c0.3-1.2,0.3-2.5,0.6-3.6c0.8-2.6,2.6-4.7,5-5.7c2.9-1.2,7-1.2,11.1-1.2
c5.5,0,11.1,0,16.6,0c3.8,0,7.8,0.1,10.6-1.1c6.2-2.6,5.9-9.4,5.9-18.1c0-11.5,0-23,0-34.5c0-7,0.5-14.6-3-18.1
c-2.7-2.7-10-3.8-14.9-2.2c-2.7,0.9-4.8,2.7-5.8,5.2c-1.2,2.8-1.1,6.7-1.1,10.6c0,5.5,0,11.1,0,16.6c0,4.1,0.1,8.2-1.2,11.1
c-1.4,3.3-3.8,4.4-7.6,5.3c-1.2,0.3-4.3,0.7-5.9,0.3c-1.2-0.3-2.5-0.3-3.6-0.6c-3-1-5.1-3.1-6.1-6.1c-0.9-2.8-0.7-6.6-0.7-10.2
c0-5.5,0-10.9,0-16.4c0-4.7,0-9.2-1.8-12.1c-2-3.2-5.9-4.3-11.1-4.3c-1.8,0-3.5,0.2-5,0.6c-2.7,0.9-4.8,2.7-5.8,5.2
c-1.2,2.8-1.1,6.7-1.1,10.6c0,5.5,0,11,0,16.5c0,3,0.2,6.3-0.4,8.8c-1,3.8-2.9,6.2-6.5,7.4c-1.2,0.4-2.2,0.2-3.6,0.5
c-1.7,0.4-5.1,0.2-6.6-0.2c-3.2-0.9-5.8-2.4-7-5.3c-1.2-2.9-1.2-6.9-1.2-11c0-5.4,0-10.8,0-16.2c0-4,0.2-8.2-1.1-11.1
C221.2,52.3,216.8,51.2,210,51.2z M861,75.8c14.4,0,28.7,0,43.1,0c7.1,0,14.6-0.5,17.6,3.6c3.4,4.7,2.4,14.7,2.4,22.8
c0,17.7,0,35.4,0,53.1c0,55.9,0,111.9,0,167.9c0,16.3,0,32.5,0,48.8c0,4.5,0,9,0,13.4c0,3.1,0.1,6.4-0.8,8.8
c-2.9,7.2-9.8,6.6-19.7,6.6c-10.3,0-20.7,0-31,0c-5.1,0-13.3,0.6-17-0.8c-2.4-1-4.4-2.5-5.4-4.9c-1.2-2.9-1.2-6.8-1.2-10.9
c0-5.3,0-10.5,0-15.8c0-7.1-0.1-13.1-4.4-15.8c-3.5-2.2-9.6-1.8-15.2-1.8c-10.2,0-20.3,0-30.5,0c-39,0-78,0-116.9,0
c-32.2,0-64.5,0-96.7,0c-6.6,0-13.1,0-19.7,0c-5.9,0-11.3-0.2-13.8-3.6c-3.8-5.2-3.1-16.4,1.9-19.7c3.9-2.6,11.6-1.9,18-1.9
c13.2,0,26.5,0,39.7,0c60.1,0,120.2,0,180.2,0c12.2,0,24.3,0,36.5,0c6.1,0,13.2,0.5,16.8-2c2.8-2,3.2-4.5,4-8.5c0-1.7,0.1-3.3,0.1-5
c0-3.1,0-6.3,0-9.4c0-10,0-20,0-30c0-6.7,0.4-13.6-3-16.9c-3.4-3.4-10.5-3-17.4-3c-13.1,0-26.2,0-39.3,0c-54.1,0-108.2,0-162.2,0
c-18.2,0-36.3,0-54.5,0c-6,0-13.3,0.7-17.7-1.2c-2.9-1.2-4.4-3.7-5.3-7c-0.2-0.8,0-1.5-0.2-2.3c-1-4.6,1.1-10.6,3.4-12.3
c4.1-3,12-2.4,19.2-2.4c13.9,0,27.8,0,41.7,0c59.1,0,118.2,0,177.4,0c12.8,0,25.6,0,38.4,0c8.8,0,15.8,0.4,18.4-5.9
c1.6-3.9,1.1-10.9,1.1-16.3c0-10.9,0-21.7,0-32.6c0-6.7,0.4-13.6-3-16.9c-3.4-3.4-10.6-3-17.5-3c-13.3,0-26.7,0-40,0
c-54.9,0-109.9,0-164.8,0c-17.2,0-34.4,0-51.5,0c-5.9,0-13,0.6-17.2-1.2c-2.9-1.2-4.4-3.7-5.3-7c-0.2-0.8,0-1.5-0.2-2.3
c-1-4.6,1.1-10.6,3.4-12.3c4.2-3.1,12.4-2.4,19.7-2.4c14.5,0,29,0,43.5,0c51.5,0,103,0,154.5,0c15.8,0,31.7,0,47.5,0
c4.8,0,9.5,0,14.3,0c3.1,0,6.3,0.2,8.9-0.5c3.2-0.9,5.5-2.5,6.7-5.4c1.2-2.8,1.1-6.7,1.1-10.6c0-5.4,0-10.9,0-16.3
c0-3.1-0.3-6.4,0.4-9c1-3.8,2.9-6.2,6.5-7.4c1.1-0.4,2.4-0.4,3.6-0.6C860,75.8,860.7,76.1,861,75.8z M884.8,101.1
c-0.6,0.3-2.9,0.4-3.7,0.6c-2.1,0.7-4,2-5.1,3.7c-2.4,3.8-1.8,10.9-1.8,16.9c0,12,0,24.1,0,36.1c0,52.3,0,104.6,0,156.8
c0,12.9,0,25.8,0,38.6c0,6.7-0.5,14,2.3,17.9c1.4,1.9,3.8,2.7,6.5,3.4c0.6,0,1.2,0.1,1.8,0.1c0.8,0.2,2.6,0.3,3.6,0.1
c4.1-0.9,6.5-1.1,8.6-4c2.6-3.8,2-11.2,2-17.5c0-12.9,0-25.8,0-38.7c0-54.5,0-108.9,0-163.4c0-10.4,0-20.9,0-31.3
c0-6.1,0.3-12.3-2.3-15.8C894.4,101.7,890.1,101.1,884.8,101.1z M211.7,200.9c-0.6,0.4-2.7,0.1-3.5,0.3c-3.1,0.8-5.5,1.8-7,4.1
c-2.3,3.7-1.8,10.6-1.8,16.5c0,11.2,0,22.4,0,33.7c0,6.3-0.3,12.8,2.3,16.4c1.8,2.4,4.6,2.8,8.1,3.6c2.1,0.5,4.4,0,6.3,0.5
c3.8,1,6.2,2.9,7.4,6.5c0.4,1.2,0.2,2.2,0.5,3.6c0.2,1,0.4,3.1,0.1,4.2c-0.3,1.2-0.3,2.5-0.6,3.6c-0.8,2.6-2.6,4.7-5,5.7
c-3.4,1.4-8.6,0.7-12.4,1.9c-3.4,1.1-5.4,3.4-6.3,7c-1.1,3.9-0.5,10.7-0.5,15.5c0,10,0,20,0,30.1c0,6.3-0.6,13.6,2,17.4
c1.5,2.1,3.8,3.1,6.8,3.8c3,0.7,6.6,0.2,9.3,1.1c5,1.7,6.8,5.7,6.8,12.5c0,1.9-0.1,3.6-0.6,5.1c-1,3-3.1,5.1-6.1,6.1
c-2.7,0.9-6.3,0.3-9.3,1.1c-3.1,0.8-5.5,1.8-7,4.1c-2.3,3.7-1.8,10.6-1.8,16.5c0,11.5,0,23,0,34.5c0,6.7-0.4,13.4,3,16.7
c3.7,3.7,12.2,3,19.6,3c7.1,0,18.4,0.9,22.8-1.8c1.7-1.1,3-3,3.7-5.1c0.3-0.9,0.2-1.7,0.4-2.6c0.2-1.1,0.5-3.9,0.2-5.2
c-0.2-1.2-0.4-2.4-0.6-3.6c-0.9-2.7-2.7-4.8-5.2-5.8c-3.1-1.3-7.4-0.6-10.9-1.5c-3.8-1-6.2-2.9-7.4-6.5c-0.4-1.2-0.2-2.2-0.5-3.6
c-0.3-1.4-0.3-3.9,0-5.3c0.8-3.7,1.9-6.1,4.7-7.8c3.8-2.3,11.3-1.6,17.2-1.6c9.7,0,19.5,0,29.2,0c2.6,0,5.2,0,7.8,0
c1.3,0,2.8-0.1,3.9,0.1c0.9,0,1.8,0.1,2.6,0.1c3.9,0.9,6.8,2.1,8.3,5.5c1.5,3.5,1.5,10.3,0,13.8c-0.6,1.5-1.9,3-3.2,3.8
c-4.3,2.9-12.7,1.1-16.9,4.2c-2.4,1.8-2.8,4.6-3.6,8.1c-0.3,1.3,0,4.1,0.2,5.2c0.2,1,0.1,1.8,0.4,2.6c0.6,2,1.8,3.8,3.4,4.9
c4.2,3,14.7,2,21.8,2c5.7,0,13.7,0.7,17.9-1.1c6.2-2.6,5.9-9.4,5.9-18.1c0-11.5,0-22.9,0-34.4c0-6.7,0.5-14-2.3-17.9
c-1.8-2.4-4.6-2.8-8.1-3.6c-2.1-0.5-4.4,0-6.3-0.5c-2.2-0.6-4-1.4-5.4-2.9c-2.6-2.7-3.6-10.2-2-15c1.2-3.6,3.6-5.5,7.4-6.5
c3.5-0.9,7.8-0.2,10.9-1.5c2.5-1.1,4.3-3.1,5.2-5.8c0.2-1.2,0.4-2.4,0.6-3.6c0-1.6,0.1-3.2,0.1-4.8c0-3.1,0-6.1,0-9.2
c0-9.7,0-19.3,0-29c0-6.2,0.6-13.4-2-17.1c-1.5-2.1-3.8-3.1-6.8-3.8c-3-0.7-6.6-0.2-9.3-1.1c-4.6-1.5-6.8-5.3-6.8-11.4
c0-1.8-0.1-3.4,0.3-4.9c1-3.8,2.9-6.2,6.5-7.4c1.1-0.4,2.3-0.4,3.5-0.6c0.5,0,0.9,0,1.4,0c1.1-0.2,2.5,0,3.7-0.3
c2.7-0.6,4.9-1.1,6.6-2.8c3.3-3.3,3-9.8,3-16.4c0-12,0-23.9,0-35.9c0-6.6,0.3-13.2-3-16.5c-2.8-2.8-7.9-3-13.5-3
c-5.4,0-10.7,0-16.1,0C264.9,200.9,238.3,200.9,211.7,200.9z M361.6,200.9c-0.6,0.4-2.6,0.1-3.5,0.3c-3,0.7-5.3,1.7-6.8,3.8
c-2.1,3.1-2.7,10.6-1,14.7c0.6,1.5,1.8,3,3.1,3.9c3.5,2.4,9.8,2,15.7,2c10.9,0,21.8,0,32.7,0c10.3,0,18.9,1.1,21.5-6.9
c1.7-5.4,0.3-13.1-3-15.6c-3.9-2.9-11.5-2.3-18.3-2.3C388.5,200.9,375,200.9,361.6,200.9z M236.3,225.7c13.5,0,27.1,0,40.6,0
c7.1,0,14.7-0.5,18.8,2.4c3.2,2.4,4.6,10.6,2.9,15.9c-2.6,8-11.4,6.9-21.8,6.9c-10.8,0-21.7,0-32.5,0c-6.5,0-12.8,0.3-16.5-2.4
c-3.9-2.9-4.8-13.8-1.7-18.4c1.4-2,3.5-3.2,6.2-3.9C233.7,226,235,225.8,236.3,225.7z M259.6,275.8c6.5,0,10.7,0.8,13.1,4.8
c1.7,2.7,1.6,7.2,1.6,11.5c0,5.6,0,11.3,0,16.9c0,3.9-0.1,7.9,1.1,10.7c1.4,3.3,3.9,4.7,7.7,5.6c3,0.7,6.6,0.2,9.3,1.1
c3.6,1.2,5.5,3.6,6.5,7.4c0.4,1.4,0.3,3,0.3,4.8c0,6.2-2.1,10-6.8,11.5c-2.7,0.9-6.3,0.3-9.3,1.1c-3.8,0.9-6.3,2.3-7.7,5.6
c-1.2,2.8-1.1,6.7-1.1,10.6c0,5.5,0,11.1,0,16.6c0,4.1,0.1,8.2-1.2,11.1c-1,2.4-3.2,4.1-5.7,5c-1.1,0.4-2.4,0.4-3.6,0.6
c-1.6,0.3-4.7,0-5.9-0.3c-3.8-0.9-6.2-2-7.6-5.3c-1.2-2.9-1.2-7-1.2-11.1c0-5.5,0-11.1,0-16.6c0-3.8,0.1-7.8-1.1-10.6
c-1.4-3.3-3.9-4.7-7.7-5.6c-3-0.7-6.6-0.2-9.3-1.1c-3-1-5.1-3.1-6.1-6.1c-0.5-1.5-0.6-3.1-0.6-5c0-6.1,1.3-10.4,5.6-12.2
c3.4-1.4,8.6-0.7,12.4-1.9c2.7-0.9,4.8-2.7,5.8-5.2c1.2-2.8,1.1-6.7,1.1-10.6c0-5.5,0-11.1,0-16.6c0-4.1-0.1-8.2,1.2-11.1
c1-2.4,3.2-4.1,5.7-5C256.8,276.1,259.1,276.1,259.6,275.8z M211.7,526.1c-0.6,0.4-2.6,0.1-3.5,0.3c-2.3,0.6-4.4,1.2-5.8,2.6
c-2.8,2.8-3,7.9-3,13.5c0,4.7,0,9.4,0,14.1c0,8,0,16.1,0,24.1c0,9.6-0.5,16.9,6.9,19.3c3,1,7,0.7,10.8,0.7c6,0,11.9,0,17.9,0
c20.3,0,40.6,0,60.8,0c3.6,0,7.3,0,10.9,0c1.7,0,4-0.2,5.5,0.1c0.5,0,1.1,0,1.6,0c2.1,0.5,4.1,0.5,5.6,1.5c2.8,1.7,3.6,3.6,4.4,7.2
c0.3,1.2,0.7,4.3,0.3,5.9c-0.9,4-1.3,6.6-4.2,8.6c-2.8,1.8-7.1,1.9-11.7,1.9c-5.4,0-10.8,0-16.2,0c-19.4,0-38.8,0-58.2,0
c-5.7,0-11.4,0-17,0c-3.7,0-7.6-0.2-10.5,0.7c-2.7,0.9-4.8,2.7-5.8,5.2c-0.5,1.1-0.4,2.2-0.7,3.6c-0.3,1.2-0.4,3.3-0.1,4.7
c0.2,1.1,0.1,1.9,0.3,2.9c0.9,3.2,2.5,5.5,5.4,6.7c4.1,1.7,12.1,1.1,17.8,1.1c12.3,0,24.6,0,36.8,0c42.9,0,85.9,0,128.8,0
c11.6,0,23.3,0,34.9,0c5.3,0,12.5-0.5,15.8,1.5c2.3,1.4,4.2,4.5,3.1,8.6c-0.8,3-2.1,5.6-3.3,8.1c-2.9,6.6-6.8,12.2-10.8,17.6
c-2.3,3.1-4.9,6.2-9.1,7.3c-1.5,0.4-3.8,0.1-5-0.3c-3.2-1-5.6-2.4-8.4-3.8c-5.8-3-12.1-5.6-18.6-7.7c-2.7-0.9-5.5-1.5-8.3-2.3
c-2.4-0.7-4.8-0.8-7.4-1.5c-1.9-0.5-3.9-0.5-6-1c-1.7-0.4-3.9-0.3-5.7-0.7c-1,0-1.9-0.1-2.9-0.1c-1.9-0.4-4.2-0.3-6.2-0.3
c-0.8,0-1.6,0-2.4,0c-1.2-0.3-2.9-0.1-4.2-0.1c-2.8,0-5.6,0-8.4,0c-17.2,0-34.5,0-51.7,0c-18.9,0-37.9,0-56.8,0
c-7.4,0-19.4-1-23.7,2c-2.9,2.1-3.1,4.5-4,8.6c-0.4,1.7,0.1,4.7,0.4,5.9c0.6,2.2,1.1,3.9,2.4,5.3c3.5,3.5,10.8,3,17.7,3
c8,0,15.9,0,23.9,0c24.5,0,49,0,73.4,0c7.7,0,15.5,0,23.2,0c2.5,0,5.9-0.4,8.1,0.1c1.1,0.2,2.6-0.1,3.6,0.1c0.7,0,1.5,0,2.2,0
c1.7,0.4,3.6,0,5.3,0.4c2.5,0.4,4.9,0.7,7.4,1.1c4.8,1.2,9.7,2.1,14,3.8c3.1,1.3,6.1,2.3,7.7,5c0.7,1.1,0.6,2.9,0,4
c-1.3,2.4-3.6,3.4-6.1,4.6c-4.7,2-10.1,3.1-15.6,4.4c-3.1,0.8-6.4,0.6-9.6,1.3c-0.5,0-0.9,0-1.4,0c-2.2,0.5-4.7,0.2-7.2,0.3
c-4.6,0.3-9.6,0.1-14.4,0.1c-8.3,0-16.7,0-25,0c-25.1,0-50.2,0-75.3,0c-6.1,0-12.3,0-18.4,0c-4.6,0-9.2,0-12.1,1.8
c-3.2,2-4.3,5.9-4.3,11.1c0,1.5,0.1,2.9,0.4,4.1c0.9,3.2,2.5,5.5,5.4,6.7c4.1,1.7,12.1,1.1,17.8,1.1c19.5,0,39,0,58.5,0
c18.2,0,36.4,0,54.6,0c2.7,0,5.4,0,8.1,0c1.3,0,2.9,0.1,4-0.1c1.4-0.3,3.2,0.2,4.4-0.1c0.7,0,1.4,0,2.1,0c1.1-0.1,2.6-0.1,3.6-0.3
c0.5,0,0.9,0,1.4,0c1.8-0.4,4-0.3,5.7-0.7c2.1-0.5,4.1-0.5,6-1c2.1-0.5,4.1-0.6,6.1-1.2c3.1-0.9,6.2-1.5,9.2-2.5
c6.6-2.2,12.9-4.7,18.7-7.7c2.8-1.4,5.3-2.9,8.6-3.9c1.2-0.4,3.4-0.7,5-0.3c4.6,1.2,7.4,4.8,9.8,8.3c5.3,7.3,11.3,15.9,13.5,26.1
c0.5,2.4-0.6,4.3-1.4,5.4c-2.8,3.8-9.9,3.3-16.5,3.3c-20.1,0-40.3,0-60.4,0c-39,0-78,0-117,0c-9.7,0-19.4,0-29.1,0
c-5.9,0-11.7-0.2-15.1,2.3c-4,3-3.7,10-3.7,17c0,10.5,0,21,0,31.5c0,2.5,0,5.1,0,7.6c0,1.3-0.1,2.8,0.1,3.9c0,0.6,0,1.2,0,1.8
c0.2,0.9,0.2,1.9,0.4,2.8c0.7,2.5,1.9,4.7,3.9,5.9c3.8,2.4,10.9,1.8,16.9,1.8c8.8,0,17.6,0,26.5,0c49.3,0,98.6,0,147.9,0
c10.3,0,20.7,0,31,0c7.8,0,17.2-0.9,20.5,3.6c0.9,1.3,1.6,2.8,2,4.6c0.2,0.8,0,1.5,0.2,2.3c0.3,1.4,0.3,3.9,0,5.3
c-0.8,3.4-1.7,5.9-4.1,7.5c-3.6,2.4-10.3,1.9-16.3,1.9c-11.6,0-23.1,0-34.7,0c-49,0-97.9,0-146.9,0c-9.5,0-19,0-28.5,0
c-5.4,0-11.2-0.3-14.6,1.8c-2.6,1.6-3.4,4.2-4.2,7.7c0,0.9-0.1,1.8-0.1,2.8c-0.2,1.1-0.1,2.7-0.1,4c0,2.7,0,5.4,0,8.1
c0,10.2,0,20.3,0,30.5c0,6.8-0.4,13.9,3,17.3c3.5,3.5,11.2,3,18.3,3c14.3,0,28.6,0,43,0c49.7,0,99.3,0,149,0c13.1,0,26.2,0,39.3,0
c6.3,0,14,0.7,18-1.8c5.4-3.4,6.1-17.1,0.7-21.1c-3.3-2.5-8.9-2.3-14.7-2.3c-9.1,0-18.2,0-27.3,0c-51.5,0-103,0-154.5,0
c-10.2,0-20.4,0-30.6,0c-5.6,0-11.6,0.3-15-1.9c-3-2-3.4-4.5-4.2-8.6c-0.2-1.1-0.1-3.2,0.1-4.2c0.2-0.9,0-1.5,0.2-2.3
c0.6-2.2,1.5-4.5,3.2-5.7c4.2-3,12-2.4,19.3-2.4c14,0,27.9,0,41.9,0c44.1,0,88.2,0,132.3,0c11,0,22.1,0,33.1,0
c6.3,0,12.7,0.3,16.3-2.3c3.9-2.9,3.7-9.6,3.7-16.5c0-11.6,0-23.3,0-34.9c0-6,0.5-12.8-1.8-16.5c-2.8-4.5-9-4.4-16.3-4.4
c-10.7,0-21.3,0-32,0c-48.5,0-96.9,0-145.4,0c-11.4,0-22.8,0-34.2,0c-6.6,0-13.2,0.3-16.9-2.4c-1.6-1.2-2.6-3.5-3.2-5.7
c-0.2-0.8,0-1.5-0.2-2.3c-0.2-1-0.4-3.1-0.1-4.2c0.9-4,1.3-6.6,4.2-8.6c3.3-2.2,9-1.9,14.5-1.9c9.5,0,19,0,28.6,0
c48.6,0,97.2,0,145.8,0c12.5,0,25,0,37.5,0c8.3,0,15.1,0.3,17.6-5.6c0.9-2.2,1-6.5,0.4-9.2c-0.2-1.5-0.4-3-0.5-4.6
c-0.8-3.5-1.2-7.2-2.2-10.5c-0.9-2.8-1.3-5.5-2.2-8.3c-3.2-9.7-7.3-18.8-12.3-26.8c-2.3-3.7-4.8-7.3-7.4-10.8
c-2.5-3.4-5-5.9-6.1-10.8c-0.5-2.2,0.7-4.4,1.4-5.7c2.4-4.5,5.8-8.1,8.7-12.2c4.4-6.2,8.2-13.3,11.4-20.6c1.3-2.9,2.3-6,3.5-9
c1.7-4.1,2.4-8.6,3.7-13c0.5-1.7,0.5-3.4,1-5.2c0.5-1.9,0.5-3.9,1-6c1.4-6.3,0.4-12.3-3.7-14.8c-1.5-0.9-3.6-1-5.6-1.5
c-0.6,0-1.2,0-1.8,0c-1.7-0.4-4.2-0.1-6.1-0.1c-4.1,0-8.1,0-12.2,0c-20.8,0-41.6,0-62.3,0c-5.3,0-10.6,0-15.9,0
c-4.6,0-8.9-0.1-11.6-1.9c-3-2-3.4-4.5-4.2-8.6c-0.2-1.1-0.1-3.2,0.1-4.2c0.2-0.9,0-1.5,0.2-2.3c0.6-2.2,1.5-4.5,3.2-5.7
c3.7-2.7,10.1-2.4,16.6-2.4c10.9,0,21.7,0,32.6,0c16.4,0,32.7,0,49.1,0c7.5,0,16.2,0.8,20-3c3.2-3.2,2.8-9.2,3-15.6
c0.2-8.2,0.4-16.6,0.4-25.2c0-5,0-9.9,0-14.9c0-3.7,0.1-7.5-1.1-10.2c-3.1-7.3-12.9-5.9-23-5.9c-18,0-35.9,0-53.9,0
c-10.3,0-18.9-1.1-21.5,6.9c-0.4,1.2-0.6,2.8-0.6,4.2c-0.1,5.6,1,9.8,4.3,11.9c3.5,2.2,9.8,1.8,15.5,1.8c11.5,0,22.9,0,34.4,0
c6.6,0,13.2-0.3,17,2.4c3.2,2.4,4.6,10.6,2.9,15.9c-2.6,7.9-11,6.9-21.3,6.9c-17.3,0-34.6,0-52,0c-8,0-17.9,1-22.5-2.4
c-3.6-2.6-3.6-8.7-3.6-15c0-5.5,0-11,0-16.5c0-4.6-0.1-9.1-2-11.9c-1.5-2.1-3.8-3.1-6.8-3.8c-0.6,0-1.2-0.1-1.8-0.1
c-1.4-0.3-4.1-0.2-5.4,0.1c-3.8,0.9-6.3,2.3-7.7,5.6c-1.2,2.8-1.1,6.8-1.1,10.7c0,5.6,0,11.3,0,16.9c0,4.7,0,9.2-1.9,12.1
c-3.5,5.3-12.3,4.3-21,4.3c-17.8,0-35.6,0-53.3,0c-8.9,0-18.4,1.1-22-4.3c-2.2-3.3-2.5-11.1-0.7-15.1c1-2.3,3-3.9,5.4-4.9
c3.3-1.3,10-0.8,14.6-0.8c11.1,0,22.2,0,33.2,0c5.8,0,12.4,0.5,16.1-1.8c2-1.2,3.2-3.4,3.9-5.9c0.1-1,0.3-1.9,0.4-2.9
c0.4-1.7-0.1-4.7-0.4-5.9c-0.8-3-1.6-5-3.9-6.5c-4-2.5-11.7-1.8-18.1-1.8C255,526.1,233.3,526.1,211.7,526.1z M686.6,526.1
c-0.6,0.4-2.6,0.1-3.5,0.3c-1.9,0.5-3.7,1-5.1,2c-5.3,4-4.6,17.3,0.7,20.6c1.7,1,3.8,1.2,6,1.7c0.6,0,1.2,0,1.8,0
c1.7,0.4,4.2,0.1,6.1,0.1c4.1,0,8.2,0,12.3,0c21,0,41.9,0,62.9,0c5.1,0,10.2,0,15.3,0c4.6,0,8.9,0.1,11.6,1.9
c5.3,3.5,4.3,12.3,4.3,21c0,17.8,0,35.7,0,53.6c0,9.8,0,19.5,0,29.3c0,6.3,0.2,12.2-2.4,15.8c-1.2,1.6-3.5,2.6-5.7,3.2
c-2.3,0.6-5.2,0.4-7.9,0.4c-4.4,0-8.7,0-13.1,0c-15.5,0-31,0-46.6,0c-7.6,0-16.4,0.8-20.7-2.4c-1.6-1.2-2.6-3.5-3.2-5.7
c-0.2-0.8,0-1.5-0.2-2.3c-0.2-1-0.4-3.1-0.1-4.2c0.9-4,1.3-6.6,4.2-8.6c3.5-2.3,9.8-1.9,15.6-1.9c10.8,0,21.5,0,32.3,0
c5.5,0,12.9,0.6,16.8-1.1c2.9-1.2,4.5-3.5,5.4-6.7c1.1-4,0.5-11,0.5-15.9c0-10.3,0-20.6,0-30.9c0-6.8,0.4-13.9-3-17.3
c-4-4-14.1-3-22-3c-16.6,0-33.2,0-49.7,0c-7.5,0-16.9-0.9-21.3,2.3c-3.3,2.4-4.7,10.1-3,15.6c0.9,2.7,2.7,4.8,5.2,5.8
c3.8,1.6,9.9,1.1,15,1.1c11.2,0,22.4,0,33.7,0c5.9,0,12.4-0.5,16,1.9c2.9,2,3.4,4.5,4.2,8.6c0.3,1.6,0,4.7-0.3,5.9
c-0.5,2.2-0.9,3.7-2,5.2c-2.9,4-10.3,3.6-17.4,3.6c-10.6,0-21.2,0-31.9,0c-5.3,0-12.3-0.6-16.4,0.7c-7.4,2.4-6.9,9.7-6.9,19.4
c0,8.3,0,16.6,0,24.9c0,4.5,0,9,0,13.5c0,3.3-0.1,6.7,0.7,9.3c0.5,1.4,1.3,3,2.2,3.9c1,1,2.5,1.8,3.9,2.2c2.5,0.8,5.8,0.7,9,0.7
c4.3,0,8.5,0,12.8,0c22.5,0,44.9,0,67.4,0c3.7,0,7.4,0,11.1,0c1.8,0,4-0.2,5.6,0.1c0.5,0,1.1,0,1.6,0c2.1,0.4,4.1,0.5,5.6,1.5
c2.8,1.7,3.6,3.6,4.4,7.2c0.3,1.2,0.7,4.3,0.3,5.9c-0.7,3.4-1.1,6.3-3.5,8c-1.3,0.9-2.8,1.6-4.6,2c-2.3,0.6-5,0.4-7.7,0.4
c-4.2,0-8.3,0-12.5,0c-21.7,0-43.5,0-65.2,0c-5.1,0-10.2,0-15.2,0c-3.7,0-7.5-0.1-10.2,1.1c-2.2,0.9-3.9,2.7-4.9,4.9
c-0.6,1.4-0.7,3.1-1,4.8c-0.2,1.4,0,3.4,0.2,4.6c0.2,1,0.1,1.8,0.4,2.6c0.7,2.1,2,4,3.7,5.1c4.4,2.7,16.3,1.8,23.5,1.8
c21.9,0,43.9,0,65.8,0c5.1,0,10.2,0,15.2,0c4.5,0,8.8,0.1,11.5,1.9c4.3,2.8,4.3,8.7,4.3,15.9c0,6.1,0,12.2,0,18.3
c0,32.9,0,65.9,0,98.8c0,7.9,0,15.9,0,23.8c0,5.9-0.2,11.4-3.6,13.9c-4.5,3.3-13.6,2.4-21.3,2.4c-16.2,0-32.3,0-48.5,0
c-6.6,0-17.9,0.9-21.9-1.6c-2.3-1.4-3.7-3.6-4.4-6.6c-0.2-0.8,0-1.5-0.2-2.3c-0.2-1-0.4-3.1-0.1-4.2c0.7-3.4,1.1-6.3,3.5-8
c4.3-3.1,12.6-2.4,20-2.4c9.6,0,19.1,0,28.7,0c4.8,0,11,0.6,14.9-0.5c2.5-0.7,4.7-1.9,5.9-3.9c2.4-3.8,1.8-10.9,1.8-16.9
c0-9.4,0-18.8,0-28.3c0-2.9,0-5.7,0-8.6c0-1.4,0.1-3.1-0.1-4.2c-0.3-1.2,0.1-2.4-0.2-3.5c-0.8-3.1-1.8-5.5-4.1-7
c-3.6-2.3-10.2-1.8-16.1-1.8c-11.1,0-22.3,0-33.4,0c-5.3,0-11.4,0.5-15.2-1.2c-4-1.7-5.6-5.7-5.6-11.5c0-1.6,0-3,0.3-4.3
c0.9-3.2,2.4-5.8,5.3-7c4.1-1.7,10.8-1.2,16.5-1.2c10.5,0,21.1,0,31.6,0c10.6,0,18.2,0.8,20.5-7.7c1.4-5,0.1-11.6-2.4-14.1
c-3.7-3.7-11.9-3-19.2-3c-15.4,0-30.8,0-46.1,0c-5,0-9.9,0-14.9,0c-5.7,0-10.7,0.2-13.5,3c-1,1-1.8,2.5-2.2,3.9
c-0.8,2.6-0.7,6-0.7,9.3c0,4.5,0,9,0,13.4c0,8.4,0,16.7,0,25.1c0,9.6-0.5,16.9,6.9,19.3c4,1.3,10.2,0.7,15.2,0.7
c9.8,0,19.5,0,29.3,0c7.4,0,15.6-0.7,19.9,2.4c2.3,1.7,2.8,4.6,3.5,8c0.3,1.6,0,4.7-0.3,5.9c-0.5,2.2-0.9,3.7-2,5.2
c-2.9,4-10.3,3.6-17.2,3.6c-10.3,0-20.7,0-31,0c-2.6,0-5.3,0-7.9,0c-1.3,0-2.9-0.1-4,0.1c-1.2,0.3-2.4-0.1-3.5,0.2
c-3.1,0.8-5.5,1.8-7,4.1c-2.2,3.5-1.8,9.5-1.8,15.1c0,10.2,0,20.3,0,30.5c0,5.9-0.7,15,1.1,19.2c2.7,6.4,9.9,5.9,18.9,5.9
c14,0,28,0,42,0c50.2,0,100.4,0,150.6,0c13.2,0,26.5,0,39.7,0c6.4,0,14.2,0.7,18.2-1.8c4.6-2.9,4.4-9.5,4.4-16.9
c0-12.1,0-24.2,0-36.3c0-6.8,0.4-13.8-3-17.1c-3.3-3.3-10-3-16.6-3c-12.1,0-24.3,0-36.4,0c-6.9,0-14,0.4-16.9-3.6
c-1.1-1.5-1.5-3-2-5.2c-0.3-1.2-0.7-4.3-0.3-5.9c0.9-4,1.3-6.6,4.2-8.6c3.5-2.3,10-1.9,15.8-1.9c10.9,0,21.8,0,32.7,0
c9.7,0,18.6,1.1,21.5-5.9c1.6-3.9,1.1-10.9,1.1-16.3c0-10.9,0-21.7,0-32.6c0-6.7,0.4-13.6-3-16.9c-4.1-4.1-14.5-3-22.5-3
c-15.6,0-31.3,0-46.9,0c-3.4,0-6.8,0-10.3,0c-1.6,0-3.7-0.2-5.2,0.1c-0.6,0-1.2,0-1.8,0c-1.6,0.3-3.2,0.4-4.6,1
c-2.5,1.1-4.3,3.1-5.2,5.8c-0.4,1.2-0.2,2.3-0.5,3.7c-0.2,0.9-0.2,2.7,0,3.6c0.2,1.1,0.1,1.9,0.3,2.9c0.9,3.2,2.5,5.5,5.4,6.7
c3.9,1.6,11,1.1,16.4,1.1c11,0,22,0,33,0c6.9,0,14.2-0.4,17.1,3.6c1.1,1.5,1.5,3,2,5.2c0.3,1.2,0.7,4.3,0.3,5.9
c-0.7,3.4-1.1,6.3-3.5,8c-4.3,3.1-12.6,2.4-20,2.4c-9.4,0-18.8,0-28.3,0c-2.4,0-4.7,0-7.1,0c-1.2,0-2.7-0.1-3.7,0.1
c-1.2,0.3-2.4-0.1-3.5,0.2c-3.1,0.8-5.5,1.8-7,4.1c-2.1,3.4-1.8,9.4-1.8,14.9c0,9.8,0,19.7,0,29.5c0,3,0,5.9,0,8.9
c0,1.5-0.2,3.4,0.1,4.7c0,0.6,0,1.2,0,1.8c0.2,0.9,0.2,1.9,0.4,2.8c0.7,2.5,1.9,4.7,3.9,5.9c3.8,2.4,10.9,1.8,16.9,1.8
c11,0,22,0,33,0c5.5,0,12.2-0.6,15.7,1.6c1.9,1.2,3.4,3,4.1,5.3c0.4,1.2,0.2,2.2,0.5,3.6c0.2,1.1,0.2,3.2,0,4.2
c-0.2,0.9,0,1.5-0.2,2.3c-0.7,2.7-1.9,4.9-3.9,6.2c-3.1,2-8.2,1.9-13.3,1.9c-8.1,0-16.3,0-24.4,0c-12.2,0-24.5,0-36.7,0
c-6.8,0-13.8,0.4-17.7-2.4c-1.6-1.2-2.6-3.5-3.2-5.7c-0.6-2.3-0.4-5.2-0.4-7.9c0-4.3,0-8.7,0-13c0-24.9,0-49.8,0-74.7
c0-15.6,0-31.3,0-46.9c0-7.6-0.8-16.4,2.4-20.7c3.5-4.9,16.1-3.6,24.7-3.6c22.7,0,45.5,0,68.3,0c4.7,0,9.4,0,14.1,0
c3.6,0,7.3,0,9.9-1.1c2.5-1.1,4.3-3.1,5.2-5.8c0.4-1.3,0.6-2.9,0.6-4.4c0-5.5-1-9.6-4.3-11.6c-1.7-1-3.8-1.2-6-1.7
c-0.6,0-1.2,0-1.8,0c-1.7-0.4-4.1-0.1-6-0.1c-4,0-8,0-12,0c-22.2,0-44.4,0-66.6,0c-4.2,0-8.4,0-12.6,0c-2.7,0-5.5,0.2-7.7-0.4
c-1.7-0.5-3.3-1.1-4.6-2c-2.3-1.7-2.8-4.6-3.5-8c-0.3-1.6,0-4.7,0.3-5.9c0.9-3.6,1.7-5.5,4.4-7.2c1.5-0.9,3.6-1,5.6-1.5
c0.5,0,1.1,0,1.6,0c1.6-0.3,3.9-0.1,5.7-0.1c3.7,0,7.4,0,11.1,0c22.6,0,45.2,0,67.7,0c4.3,0,8.5,0,12.8,0c3.2,0,6.5,0.1,9-0.7
c1.4-0.5,3-1.3,3.9-2.2c1-1,1.8-2.5,2.2-3.9c0.8-2.6,0.7-6,0.7-9.3c0-4.5,0-9,0-13.5c0-8.3,0-16.7,0-25c0-9.6,0.5-16.9-6.9-19.3
c-4.2-1.3-11.2-0.7-16.5-0.7c-10.7,0-21.4,0-32.2,0c-6.4,0-12.5,0.2-16.2-2.4c-1.9-1.4-2.5-3.6-3.2-6.4c-0.3-1.2-0.7-4.3-0.3-5.9
c0.9-4,1.3-6.6,4.2-8.6c3.6-2.4,10.2-1.9,16.1-1.9c11.3,0,22.6,0,33.9,0c5.2,0,11.4,0.5,15.1-1.1c2.5-1.1,4.3-3.1,5.2-5.8
c1.6-5,0.5-12.2-2.2-14.9c-4-4-14.2-3-22.1-3c-16.6,0-33.3,0-49.9,0c-7.5,0-17-0.9-21.4,2.3c-4,3-3.7,9.9-3.7,16.9
c0,10.4,0,20.7,0,31.1c0,2.7,0,5.4,0,8c0,1.3-0.1,2.9,0.1,4c0.3,1.2-0.1,2.4,0.2,3.5c0.8,3.1,1.8,5.5,4.1,7c4,2.5,11.9,1.8,18.3,1.8
c10.8,0,21.5,0,32.3,0c5.8,0,12.1-0.4,15.6,1.9c2.9,2,3.4,4.5,4.2,8.6c0.2,1.2,0.1,3.2-0.1,4.2c-0.2,0.9,0,1.5-0.2,2.3
c-0.6,2.2-1.5,4.5-3.2,5.7c-4.4,3.2-13.3,2.4-21,2.4c-15.8,0-31.5,0-47.3,0c-3.7,0-7.4,0-11.1,0c-4.2,0-8.4,0.1-11.4-1.2
c-1.7-0.7-3.2-2.2-4.1-3.7c-1.6-2.6-1.6-6.7-1.6-10.8c0-5.5,0-11,0-16.5c0-22.4,0-44.8,0-67.2c0-6.3-0.7-15.6,1.2-20
c1.2-2.9,3.7-4.4,7-5.3c2.8-0.7,6.9-0.4,10.3-0.4c6.2,0,12.4,0,18.6,0c20.2,0,40.4,0,60.5,0c3.4,0,6.8,0,10.3,0
c1.6,0,3.7,0.2,5.2-0.1c0.6,0,1.2,0,1.8,0c1.6-0.3,3.2-0.4,4.6-1c4.2-1.8,6.4-6.4,5.8-12.9c-0.2-1.7-0.4-3.5-1-4.9
c-2.7-6.5-10.1-5.9-19.3-5.9c-14.7,0-29.4,0-44,0C818.9,526.1,752.7,526.1,686.6,526.1z M60.2,526.2c-0.6,0.3-2.9,0.4-3.7,0.6
c-2.1,0.7-4,2-5.1,3.7c-1,1.7-1.2,3.8-1.7,6c0,0.6,0,1.2,0,1.8c-0.3,1.6-0.1,3.9-0.1,5.7c0,3.7,0,7.4,0,11.1c0,19.5,0,38.9,0,58.4
c0,6.2,0,12.5,0,18.7c0,3.7-0.3,7.7,0.5,10.7c0.9,3.2,2.5,5.5,5.4,6.7c2.8,1.2,6.7,1.1,10.6,1.1c5.5,0,11,0,16.5,0
c4.2,0,8.3-0.1,11.2,1.2c2.9,1.2,4.4,3.7,5.3,7c0.4,1.5,0.6,4.9,0.2,6.6c-0.3,1.4-0.1,2.4-0.5,3.6c-1,3-3.1,5.1-6.1,6.1
c-2.8,0.9-6.6,0.7-10.2,0.7c-5.5,0-11,0-16.5,0c-6.7,0-12.1,0.4-14.6,4.4c-1.8,2.9-1.8,7.6-1.8,12.4c0,6.7,0,13.3,0,20
c0,26.7,0,53.5,0,80.2c0,40.6,0,81.3,0,121.9c0,6.5,0,12.9,0,19.4c0,4.7,0,9.3,1.8,12.2c1.4,2.3,3.5,3.1,6.5,3.9
c1.2,0.3,4.2,0.8,5.9,0.4c1-0.1,1.9-0.3,2.9-0.4c2.5-0.7,4.7-1.9,5.9-3.9c2.1-3.4,1.8-9.2,1.8-14.6c0-9.6,0-19.1,0-28.7
c0-48.9,0-97.8,0-146.7c0-11.7,0-23.4,0-35c0-6-0.5-12.8,1.9-16.4c2-2.9,4.5-3.4,8.6-4.2c1.6-0.3,4.7,0,5.9,0.3
c2.7,0.7,5,1.3,6.3,3.2c2.8,3.9,2.4,10.8,2.4,17.6c0,8.2,0,16.4,0,24.7c0,52,0,103.9,0,155.9c0,9.8,0,19.7,0,29.5
c0,6-0.2,11.8,2.3,15.2c3.3,4.5,15.4,4.9,19.5,0.7c3.2-3.2,3-9.5,3-15.9c0-11.1,0-22.2,0-33.3c0-46.6,0-93.2,0-139.8
c0-12.3,0-24.6,0-36.8c0-6.1-0.6-13.3,1.9-17c2-2.9,4.5-3.4,8.6-4.2c1.2-0.2,3.2-0.1,4.2,0.1c0.9,0.2,1.5,0,2.3,0.2
c2.2,0.6,4.5,1.5,5.7,3.2c2.7,3.8,2.4,10.2,2.4,16.8c0,11.1,0,22.3,0,33.4c0,50.7,0,101.3,0,152c0,7.7,0,15.5,0,23.2
c0,7-0.6,14.7,3,18.2c1.7,1.7,3.7,2,6.6,2.6c1.1,0.3,3.1,0.4,4.6,0.2c1.3-0.2,2.6-0.3,3.8-0.6c7.5-2.4,6.9-9.9,6.9-19.7
c0-14,0-27.9,0-41.9c0-48.4,0-96.9,0-145.3c0-13.9,0-27.8,0-41.7c0-6,0.7-15.4-1.1-19.7c-2.5-6-8.9-5.9-17.4-5.9
c-4.9,0-9.8,0-14.7,0c-3,0-6.2,0.2-8.7-0.4c-3.8-1-6.2-2.9-7.4-6.5c-0.4-1.2-0.2-2.2-0.5-3.6c-0.4-1.7-0.2-5.1,0.2-6.6
c0.9-3.2,2.4-5.8,5.3-7c2.9-1.2,6.8-1.2,10.9-1.2c5.3,0,10.7,0,16,0c5.9,0,11.4,0,14.4-3c1-1,1.8-2.5,2.2-3.9
c0.8-2.5,0.7-5.8,0.7-9.1c0-4.3,0-8.5,0-12.8c0-22.7,0-45.4,0-68.2c0-3.4,0-6.8,0-10.3c0-1.6,0.2-3.7-0.1-5.2c0-0.6,0-1.2,0-1.8
c-0.3-1.6-0.4-3.2-1-4.6c-0.9-2.2-2.7-3.9-4.9-4.9c-1.4-0.6-3-0.6-4.7-1c-1.7-0.4-4.7,0.1-5.9,0.4c-3,0.8-5,1.6-6.5,3.9
c-2.6,4.2-1.8,13.6-1.8,20.3c0,16.5,0,33.1,0,49.6c0,7,0.9,16.9-1.9,21.2c-2,2.9-4.5,3.4-8.6,4.2c-1.2,0.2-3.2,0.1-4.2-0.1
c-0.9-0.2-1.5,0-2.3-0.2c-2.7-0.7-4.9-1.9-6.2-3.9c-2.8-4.3-1.9-14.6-1.9-21.7c0-17,0-33.9,0-50.9c0-6.5,0.7-14.5-1.8-18.5
c-1.4-2.3-3.5-3.1-6.5-3.9c-1.2-0.3-4.2-0.8-5.9-0.4c-1.6,0.4-3.3,0.4-4.7,1c-6.9,2.9-5.9,11.4-5.9,21.1c0,17.9,0,35.8,0,53.7
c0,8,1.1,18.3-3.6,21.7c-1.3,0.9-2.8,1.6-4.6,2c-0.8,0.2-1.5,0-2.3,0.2c-1.4,0.3-3.9,0.3-5.3,0c-3.4-0.8-5.9-1.7-7.5-4.1
c-2.9-4.3-1.9-14.7-1.9-21.8c0-16.8,0-33.6,0-50.4c0-7.6,0.9-16.6-3-20.4C69,526.6,65.1,526.1,60.2,526.2z M535.1,526.2
c-0.6,0.3-2.9,0.4-3.7,0.6c-2.1,0.7-4,2-5.1,3.7c-1,1.7-1.2,3.8-1.7,6c0,0.6,0,1.2,0,1.8c-0.3,1.6-0.1,3.9-0.1,5.7
c0,3.7,0,7.4,0,11.1c0,19.5,0,38.9,0,58.4c0,6.2,0,12.5,0,18.7c0,3.7-0.3,7.7,0.5,10.7c0.9,3.2,2.5,5.5,5.4,6.7
c2.8,1.2,6.7,1.1,10.6,1.1c5.5,0,11,0,16.5,0c4.2,0,8.3-0.1,11.2,1.2c2.9,1.2,4.4,3.7,5.3,7c0.4,1.5,0.6,4.9,0.2,6.6
c-0.3,1.4-0.1,2.4-0.5,3.6c-1,3-3.1,5.1-6.1,6.1c-2.8,0.9-6.6,0.7-10.2,0.7c-5.5,0-11,0-16.5,0c-6.7,0-12.1,0.4-14.6,4.4
c-1.8,2.9-1.8,7.6-1.8,12.4c0,6.7,0,13.3,0,20c0,26.7,0,53.5,0,80.2c0,40.6,0,81.3,0,121.9c0,6.5,0,12.9,0,19.4
c0,4.7,0,9.3,1.8,12.2c1.4,2.3,3.5,3.1,6.5,3.9c1.2,0.3,4.2,0.8,5.9,0.4c1-0.1,1.9-0.3,2.9-0.4c2.5-0.7,4.7-1.9,5.9-3.9
c2.1-3.4,1.8-9.2,1.8-14.6c0-9.6,0-19.1,0-28.7c0-48.9,0-97.8,0-146.7c0-11.7,0-23.4,0-35c0-6-0.5-12.8,1.9-16.4
c2-2.9,4.5-3.4,8.6-4.2c1.6-0.3,4.7,0,5.9,0.3c2.7,0.7,5,1.3,6.3,3.2c2.8,3.9,2.4,10.8,2.4,17.6c0,8.2,0,16.4,0,24.7
c0,52,0,103.9,0,155.9c0,9.8,0,19.7,0,29.5c0,6-0.2,11.8,2.3,15.2c3.3,4.5,15.4,4.9,19.5,0.7c3.2-3.2,3-9.5,3-15.9
c0-11.1,0-22.2,0-33.3c0-46.6,0-93.2,0-139.8c0-12.3,0-24.6,0-36.8c0-6.1-0.6-13.3,1.9-17c2-2.9,4.5-3.4,8.6-4.2
c1.2-0.2,3.2-0.1,4.2,0.1c0.9,0.2,1.5,0,2.3,0.2c2.2,0.6,4.5,1.5,5.7,3.2c2.7,3.8,2.4,10.2,2.4,16.8c0,11.1,0,22.3,0,33.4
c0,50.7,0,101.3,0,152c0,7.7,0,15.5,0,23.2c0,7-0.6,14.7,3,18.2c1.7,1.7,3.7,2,6.6,2.6c1.1,0.3,3.1,0.4,4.6,0.2
c1.3-0.2,2.6-0.3,3.8-0.6c7.5-2.4,6.9-9.9,6.9-19.7c0-14,0-27.9,0-41.9c0-48.4,0-96.9,0-145.3c0-13.9,0-27.8,0-41.7
c0-6,0.7-15.4-1.1-19.7c-2.5-6-8.9-5.9-17.4-5.9c-4.9,0-9.8,0-14.7,0c-3,0-6.2,0.2-8.7-0.4c-3.8-1-6.2-2.9-7.4-6.5
c-0.4-1.2-0.2-2.2-0.5-3.6c-0.4-1.7-0.2-5.1,0.2-6.6c0.9-3.2,2.4-5.8,5.3-7c2.9-1.2,6.8-1.2,10.9-1.2c5.3,0,10.7,0,16,0
c5.9,0,11.4,0,14.4-3c1-1,1.8-2.5,2.2-3.9c0.8-2.5,0.7-5.8,0.7-9.1c0-4.3,0-8.5,0-12.8c0-22.7,0-45.4,0-68.2c0-3.4,0-6.8,0-10.3
c0-1.6,0.2-3.7-0.1-5.2c0-0.6,0-1.2,0-1.8c-0.3-1.6-0.4-3.2-1-4.6c-0.9-2.2-2.7-3.9-4.9-4.9c-1.4-0.6-3-0.6-4.7-1
c-1.7-0.4-4.7,0.1-5.9,0.4c-3,0.8-5,1.6-6.5,3.9c-2.6,4.2-1.8,13.6-1.8,20.3c0,16.5,0,33.1,0,49.6c0,7,0.9,16.9-1.9,21.2
c-2,2.9-4.5,3.4-8.6,4.2c-1.2,0.2-3.2,0.1-4.2-0.1c-0.9-0.2-1.5,0-2.3-0.2c-2.7-0.7-4.9-1.9-6.2-3.9c-2.8-4.3-1.9-14.6-1.9-21.7
c0-17,0-33.9,0-50.9c0-6.5,0.7-14.5-1.8-18.5c-1.4-2.3-3.5-3.1-6.5-3.9c-1.2-0.3-4.2-0.8-5.9-0.4c-1.6,0.4-3.3,0.4-4.7,1
c-6.9,2.9-5.9,11.4-5.9,21.1c0,17.9,0,35.8,0,53.7c0,8,1.1,18.3-3.6,21.7c-1.3,0.9-2.8,1.6-4.6,2c-0.8,0.2-1.5,0-2.3,0.2
c-1.4,0.3-3.9,0.3-5.3,0c-3.4-0.8-5.9-1.7-7.5-4.1c-2.9-4.3-1.9-14.7-1.9-21.8c0-16.8,0-33.6,0-50.4c0-7.6,0.9-16.6-3-20.4
C543.9,526.6,540,526.1,535.1,526.2z"/>
</svg>
