<svg xmlns="http://www.w3.org/2000/svg" viewBox="0 0 1000 1000"><path d="M68.8 0H927c1.3 0 3-.2 4.1.1h2c1 .2 2.4.2 3.3.4 1.5.3 2.9.1 4.3.5 4.2 1.1 8.4 1.7 12.1 3.2 7.3 3 13.4 6.3 19.4 10.7 1.5 1.1 2.8 2.7 4.3 3.8 2.3 1.8 4.9 4.6 6.7 7 1.2 1.6 2.6 3 3.7 4.6 3 4.2 5.5 9 7.7 14 1.5 3.5 2.4 7.3 3.5 11.2 1.8 6.5 1.7 14.5 1.7 22.7v843.3c0 4.8.4 11-.5 15l-.3 3c-1.1 4.7-1.7 9.2-3.4 13.3-2 4.8-4 9.4-6.7 13.6-1.5 2.3-3.2 4.4-4.8 6.6-1.6 2.2-3.5 4.2-5.4 6-.6.7-1.3 1.3-1.9 2-3.4 2.6-6.6 5.5-10.3 7.9-6.5 4.1-13.8 6.8-22.2 9.2-6.9 1.9-15.7 1.7-24.5 1.7H79c-9.7 0-19 0-26.3-2.4-3.6-1.2-7.2-2.3-10.5-3.7-10.2-4.5-20.3-12.2-26.5-20.7-3.2-4.4-6.6-8.8-9-14.1-2-4.6-3.6-9.4-5-14.6-.7-2.5-.7-5.2-1.3-7.8-.3-1.1-.1-2.4-.3-3.5v-1.8c-.3-1.3-.1-3.2-.1-4.7V71.9c0-1-.1-2.4.1-3.2.1-.6 0-1.4.1-1.9 0-.8.1-1.7.1-2.5.6-2.6.5-5.3 1.2-7.8 1-3.2 1.6-6.5 2.8-9.5.8-1.9 1.7-3.9 2.5-5.7.5-1.2.9-2.3 1.5-3.3 1.5-2.5 3-5.2 4.6-7.6 1.3-1.9 2.9-3.6 4.2-5.4l1.6-1.6c1.2-1.6 2.9-3.3 4.5-4.5l1.6-1.6c1.8-1.4 3.6-2.9 5.4-4.2C35.4 9.4 41 6.8 47 4.3c3.4-1.4 7.2-2.1 11-3 1.2-.3 2.5-.3 3.7-.6 1.7-.2 3.4-.3 5-.5.7-.2 1.6.1 2.1-.2zm.5 23.8c-1.7.2-3.4.3-5.1.5-3.1.8-6.3 1.2-9.1 2.3-12.1 5-21.8 13.2-27 25-1.3 2.9-2.2 6-3.1 9.3-.3 1.6-.5 3.2-.8 4.7-.5 2-.3 4.7-.3 7.1v854.5c0 1.7.1 3.4.1 5.1.2 1.6.4 3.2.6 4.7.9 3.4 1.5 6.7 2.8 9.7 6.3 14.6 17.2 23.7 33.6 28.3 5.8 1.6 13.7 1.1 21 1.1h837.3c6.8 0 14.4.4 19.9-1.1 5.5-1.6 10.4-3.3 14.7-6 2.8-1.8 5.1-4 7.7-5.9.6-.5 1.1-1.2 1.6-1.8.4-.3.7-.7 1.1-1 .5-.7 1.1-1.4 1.6-2.1 1-1.4 2.3-2.8 3.2-4.3 1.7-2.7 3.1-5.8 4.3-8.9 1.2-3 1.6-6.3 2.4-9.8.1-.9.1-1.9.2-2.8.6-2.7.2-6.9.2-10V78.2c0-6.1.3-12.4-1.1-17.2-1.9-6.6-4.2-12.2-7.7-17.1-1-1.4-2.2-2.7-3.2-4-.4-.3-.7-.7-1.1-1-1.2-1.6-3.6-3.7-5.2-4.9-3.9-2.9-8.1-5.2-12.9-7.2-2.4-1-5.2-1.4-7.9-2.1-1.2-.3-2.3-.1-3.6-.4-1.8-.4-4-.3-6.1-.3H717.1c-216-.2-431.9-.2-647.8-.2zm299.4 47.7h89.8c1.7 0 3.9-.2 5.4.1h1.7c1.6.4 3.2.4 4.5 1 2.2.9 3.7 2.8 4.4 5.1.6 1.7.6 4.9.2 6.9-.3 1.2 0 2.2-.3 3.3-.6 2.6-.8 5.5-1.5 8.1-1.1 4-1.7 7.8-2.9 11.5-3.7 11-8.4 20.9-14.3 29.7-2.9 4.4-6.6 8.1-9.1 12.8-.9 1.7-1.8 4.5-1 7.1.9 2.7 2.5 4.5 3.9 6.6 1.8 2.4 3.6 4.8 5.3 7.3 5.1 7.2 9.1 15.4 12.7 24.1 2.7 6.5 4.1 13.5 5.9 20.9.9 3.4.7 7.1 1.5 10.7.3 3.9.5 7.7.8 11.6.2.8 0 1.9.1 2.5v3.9c.2.9.1 2.2.1 3.2v22.2c0 4.5-.1 8.8-1.9 11.4-3.3 4.7-11.9 3.9-20 3.9h-50.9c-7.1 0-15.2-.7-19.4 2.3-1.8 1.3-2.4 3.5-3 6-.3 1-.6 4.3-.3 5.6.8 3.9 1.2 6.3 4 8.2 4 2.6 13.3 1.8 19.9 1.8h55.2c1.5 0 3.4-.2 4.7.1h1.7c1.5.3 3.1.4 4.3.9 2.1.9 3.8 2.5 4.6 4.6 1.1 2.6 1 6.3 1 9.9v36.6c0 9.2.5 16.1-6.6 18.3-1.1.2-2.3.4-3.4.6h-1.7c-1.4.3-3.5.1-5.1.1h-52.2c-7.9 0-18.5-1-23.1 2.3-2.2 1.6-2.6 4.4-3.3 7.7-.3 1.5 0 4.5.3 5.6.6 2.6 1.2 4.7 3 6 4.1 3 12.2 2.3 19.3 2.3h51c7.6 0 16.4-.9 19.7 3.5 2.9 3.9 2.2 11.6 2.2 18.3v29.3c0 5.8.5 12.5-1.7 16.1-1.2 1.9-3.2 3.1-5.6 3.7-2.8.8-6.6.5-10 .5h-84.5c-5.1 0-10.3.2-13.3-1.9-2.7-1.9-3-4.3-3.8-8.1-.3-1.3 0-3.9.2-4.9.6-2.8.8-4.5 2.5-6.2 3.7-3.7 12.9-2.8 20.3-2.8h47.9c7.4 0 16.4.8 20.8-2.3 3.1-2.2 4.4-10.1 2.7-15.1-.8-2.4-2.5-4.5-4.7-5.4-4.3-1.8-13.2-1.1-19.2-1.1h-55.4c-3.1 0-6.2.1-8.6-.7-7.1-2.3-6.6-9.2-6.6-18.3v-36.6c0-3.6-.1-7.3 1-9.9.9-2.1 2.5-3.8 4.6-4.6 1.3-.5 2.9-.6 4.3-.9h1.7c1.3-.3 3.2-.1 4.6-.1h55c6.6 0 15.8.8 19.8-1.8 2.8-1.9 3.2-4.3 4-8.2.3-1.5 0-4.5-.3-5.6-.6-2.6-1.2-4.7-3-6-4.1-3-11.9-2.3-18.9-2.3h-56.5c-2.2 0-5.2.2-7.2-.2-3.3-.8-5.8-1.6-7.4-4-2.2-3.7-1.6-10.7-1.6-16.7v-28.2c0-4.5-.5-11 .5-14.6.8-3 2.4-5.2 5.1-6.4 1.3-.5 2.9-.6 4.3-.9h1.7c1.4-.3 3.4-.1 5-.1h55.1c7.3 0 15.7.8 20-2.3 1.9-1.4 2.6-3.9 3.2-6.7.2-.8 0-1.8.2-2.5v-5.8c0-2.1 0-4.5-.1-6.5-.1-1.8.1-3.7-.2-5.2-.1-1.3-.1-2.7-.2-4-.8-3.7-.7-7.6-1.7-11.1-1.2-4.3-2-8.6-3.6-12.5-2.7-6.6-5.6-12.6-9.2-18.2-3-4.8-7.4-12.1-13.4-13.7-3.9-1-9.1 1.9-11.3 3.2-1.6.9-3.2 1.6-4.9 2.3-1.3.6-2.6 1.4-3.9 1.9-3.1 1.4-6.4 2.4-9.7 3.6-2 .7-4 1-6.1 1.7-3.8 1.2-8.1 1.7-12.3 2.7-1.4.2-2.9.3-4.3.5-2.6.6-6.6.5-8.8-.4-3.2-1.3-4-3.4-4.9-7.1-.3-1.1-.6-3.8-.3-5.2.8-3.6 1.1-6.2 3.6-8.1 2.2-1.6 5.2-2 8.3-2.7l2.7-.3c4.3-1 8.6-1.7 12.4-2.9 4.3-1.4 10.1-2.8 11.2-7.4.3-1.3-.5-2.3-.9-2.9-1.3-1.9-3.2-2.7-5.4-3.7-3.6-1.5-7.7-2.5-11.8-3.6-1.8-.5-3.7-.6-5.4-1l-2.7-.3c-4-1-7.7-1.4-9.8-4.2-2.8-3.9-3.1-14.5.8-17.4 2.9-2.2 7.9-2.7 12.6-1.6 1.1.1 2.3.3 3.4.4 3.8 1 7.8 1.2 11.4 2.4 8.1 2.6 15.7 5 22.8 8.7 2.9 1.5 5.7 3.2 9.1 4.2 1.4.4 3.9.3 5.2-.1 2.8-.9 5-3 6.6-5.1 1.1-1.4 2.4-2.8 3.4-4.2 1.7-2.4 3.1-4.9 4.6-7.5 2.3-3.8 4.3-7.8 5.9-12.3.4-1.2 1.4-3.8.9-5.7-.5-2.1-1.5-3.5-3.1-4.5-3.4-2.1-13.2-1.4-18.8-1.4h-43.5c-6.5 0-15.1.9-19.3-1.7-4.6-2.9-5.7-13.4-2-18.3 1.3-1.8 3.6-2.6 6.1-3.2.6-.5 2.6-.2 3.2-.6zm166.9 0h377.2c5.4 0 10.2.1 12.9 2.8 3.2 3.2 2.8 10 2.8 16.4v319.4c0 5.1.3 10.5-1.7 13.7-3.2 5.1-12 4.2-20.3 4.2H564.4c-1.7 0-3.9-.2-5.4.1h-1.5c-2 .4-3.9.5-5.3 1.4-2.2 1.4-3.5 3.4-4.2 6.2-.2.8 0 1.4-.2 2.2-.2.9-.3 2.9-.1 4 .7 3.2 1.1 6 3.3 7.7 4.5 3.3 15.1 2.3 23 2.3h331.5c6.4 0 14.7-.8 18.7 1.7 4.9 3 5.8 15.1 1.4 19.5-2.7 2.7-7.5 2.8-12.9 2.8H547.6c-7.5 0-17.1 1-20.9-2.8-3.2-3.2-2.8-10-2.8-16.5v-36.9c0-1.2-.1-2.6.1-3.6v-1.7c.2-.8.2-1.8.4-2.6.7-2.4 1.8-4.5 3.7-5.6 3.6-2.2 10.4-1.7 16.1-1.7h243.4c6.8 0 14.3.6 18.2-2.3 1.6-1.1 2.5-3.3 3-5.4.2-.8 0-1.4.2-2.2.2-.9.3-2.9.1-4-.8-3.9-1.2-6.3-4-8.2-3.5-2.3-10.1-1.8-15.8-1.8H546.2c-6.3 0-14.2.7-18.1-1.7-2.2-1.4-3.2-3.7-3.9-6.7-.3-1.1.1-2.1-.2-3.3-.2-1-.1-2.5-.1-3.7v-36.6c0-6.4-.4-13.1 2.8-16.3 3.2-3.2 9.7-2.8 16-2.8h249.5c5 0 10 .2 13-1.8 2.8-1.9 4-5.3 4-10.1 0-1-.1-2.1-.1-3.1-.7-3.2-1.6-5.6-3.9-7.2-3.5-2.3-10.1-1.8-15.8-1.8H543.8c-9.4 0-16.8.7-19.2-6.6-1.3-3.9-.7-10.5-.7-15.4v-30c0-6.4-.4-13.1 2.8-16.3 3.2-3.2 9.7-2.8 16.1-2.8H783c7.9 0 18.3 1 22.9-2.3 2.5-1.8 3.3-5.5 3.3-9.8 0-1-.1-1.9-.1-2.9-.6-2.7-1.3-5.3-3.2-6.7-4.2-3.1-12.9-2.3-20.2-2.3H542.5c-7.2 0-13.8.3-16.7-3.9-2.4-3.4-1.9-9.9-1.9-15.6v-34c0-6.5-.2-12.7 3.5-15.4 3.8-2.8 11.2-2.2 17.7-2.2h240.5c7.3 0 16 .8 20.3-2.3 1.6-1.1 2.5-3.3 3-5.4.2-.8 0-1.4.2-2.2.2-.9.3-2.9.1-4-.8-3.9-1.2-6.3-4-8.2-3.8-2.5-11.7-1.8-17.9-1.8H540.5c-1.5 0-3.5.2-4.8-.1H534c-1.5-.3-3.1-.4-4.3-.9-2.4-1-4.1-3-4.9-5.5-1.5-4.7-.5-11.6 2.1-14.2 1.4-1.4 3.3-2 5.5-2.5.6-.6 2.6-.3 3.2-.7zm-454 .1c4.6 0 8.4.4 10.7 2.7 3.6 3.6 2.8 12.2 2.8 19.5v48c0 6.8-.9 16.7 1.8 20.8 1.6 2.3 3.9 3.2 7.2 3.9 1.3.3 3.7.3 5 0 .8-.2 1.4 0 2.2-.2 1.6-.4 3.1-1 4.3-1.9 4.5-3.3 3.4-13 3.4-20.7V92.6c0-9.1-.9-17.3 5.6-20.1 1.3-.6 2.9-.6 4.4-.9 1.6-.4 4.5.1 5.6.4 2.8.7 4.8 1.6 6.1 3.7 2.5 4 1.7 12.9 1.7 19.4v47.3c0 6.6-.9 16.1 1.8 20.2 1.9 2.8 4.3 3.2 8.2 4 1.1.2 3.1.1 4-.1.8-.2 1.4 0 2.2-.2 2.6-.7 4.7-1.8 5.9-3.7 2.7-4.1 1.8-13.9 1.8-20.7V93.4c0-6.1-.7-13.8 1.7-17.6 1.3-2.2 3.3-3 6.1-3.7 1.2-.3 4-.8 5.6-.4 1.5.3 3.1.4 4.4.9 2.1.9 3.8 2.6 4.6 4.6.5 1.3.6 2.9.9 4.3v1.7c.3 1.4.1 3.4.1 4.9V175c0 3.1.1 6.2-.7 8.7-.4 1.4-1.2 2.8-2.1 3.7-2.8 2.8-8 2.8-13.6 2.8H158c-3.9 0-7.7 0-10.4 1.1-2.7 1.2-4.2 3.6-5 6.7-.4 1.4-.6 4.6-.2 6.2.3 1.3.1 2.3.5 3.4 1.1 3.4 3.5 5.2 7.1 6.1 2.4.6 5.4.4 8.3.4h14c8.1 0 14.1-.1 16.5 5.6 1.7 4 1 13.1 1 18.7v218c0 9.3.6 16.4-6.6 18.7-1.1.4-2.4.4-3.6.6-1.4.2-3.2 0-4.3-.2-2.8-.6-4.5-.8-6.2-2.5-3.4-3.4-2.8-10.6-2.8-17.3V257c0-6.3.3-12.4-2.3-16-1.1-1.6-3.3-2.5-5.4-3-.8-.2-1.4 0-2.2-.2-.9-.2-2.9-.3-4-.1-3.9.8-6.3 1.2-8.2 4-2.3 3.5-1.8 9.9-1.8 15.6v200.4c0 5.2.3 10.7-1.7 13.9-1.9 3-4.4 3.3-8.4 4.1-.9.2-2.6.1-3.4-.1-.6 0-1.1-.1-1.7-.1-2.2-.5-4.2-1.2-5.5-2.5-3.1-3.1-2.8-9.1-2.8-15.2V254.7c0-5.6 0-10.6-2.3-13.8-2.2-3-7.2-3.6-12.4-3.2-2.3.2-4.4 1-5.8 2.1-3.5 2.5-3.4 8.4-3.4 14.5V456c0 5.8.5 12.4-1.9 15.8-1.9 2.8-4.3 3-8.2 3.8-1.6.4-4.5-.1-5.6-.4-2.8-.7-4.8-1.6-6.1-3.7-1.7-2.8-1.7-7.2-1.7-11.7V229.9c0-4.5 0-9 1.7-11.8 2.4-3.9 7.6-4.2 13.9-4.2h15.7c3.4 0 7 .2 9.7-.7 3.4-1.1 5.2-3.5 6.1-7.1.2-.8 0-1.4.2-2.2.3-1.6.2-4.8-.2-6.2-.8-3.1-2.3-5.5-5-6.7-2.8-1.2-6.7-1.1-10.7-1.1H87.2c-3.7 0-7.4.1-10.1-1-2.7-1.1-4.3-3.3-5.1-6.4-.8-2.9-.5-6.7-.5-10.2v-84c0-1.7-.2-3.9.1-5.4v-1.7c.5-2.2.6-4.2 1.6-5.7 1-1.6 2.8-2.9 4.8-3.5.8 0 3.1-.1 3.6-.4zm142.7 0c6.4-.1 10.6 1.1 12.5 5.5 1.2 2.8 1 6.8 1 10.6v15.4c0 3.9-.1 7.7 1.1 10.5 1.2 2.7 3.6 4.2 6.7 5 1.4.4 4.6.6 6.2.2 1.3-.3 2.3-.1 3.4-.5 3.4-1.1 5.2-3.5 6.1-7.1.6-2.4.4-5.5.4-8.4V87.1c0-3.7-.1-7.4 1-10.1 1-2.4 3-4.1 5.5-4.9 1.4-.4 3-.6 4.7-.6 5 0 8.7 1.1 10.6 4.1 1.7 2.7 1.7 7 1.7 11.4v15.7c0 3.4-.2 7 .7 9.7 1 2.9 2.9 4.9 5.8 5.8 1.1.4 2.3.4 3.4.6 1.5.3 4.5 0 5.6-.3 3.6-.9 5.9-1.9 7.3-5 1.2-2.8 1.1-6.7 1.1-10.6V87.1c0-3.7-.1-7.4 1-10.1 1-2.4 3-4.1 5.5-4.9 4.7-1.5 11.6-.5 14.2 2.1 3.3 3.3 2.8 10.6 2.8 17.2v32.9c0 8.3.3 14.7-5.6 17.2-2.6 1.1-6.4 1-10.1 1h-15.8c-3.9 0-7.8-.1-10.6 1.1-2.3 1-3.9 3-4.7 5.4-.4 1.1-.4 2.3-.6 3.4-.3 1.5 0 4.5.3 5.6.9 3.6 1.9 5.9 5 7.3 2.8 1.2 6.7 1.1 10.6 1.1h15.8c3.7 0 7.4-.1 10.1 1 2.4 1 4.1 3 4.9 5.5 1.5 4.7.5 11.6-2.1 14.2-.9.9-2.4 1.7-3.7 2.1-2.4.8-5.5.7-8.6.7h-88.3c-3.1 0-6.3.1-8.8-.7-1.7-.5-3.4-1.5-4.3-2.8-2.2-2.9-3-10.2-1.2-14.4.9-2.1 2.6-3.8 4.6-4.6 2.6-1.1 6.4-1 10.1-1h15.8c3.9 0 7.8.1 10.6-1.1 2.3-1 3.9-3 4.7-5.4.4-1.1.4-2.3.6-3.4.3-1.5 0-4.5-.3-5.6-.9-3.6-1.9-5.9-5-7.3-2.8-1.2-6.7-1.1-10.6-1.1h-15.8c-4.4 0-8.8 0-11.5-1.7-4.3-2.7-4.2-8.8-4.2-15.8V92.2c0-5-.5-11.6 1-15.2 1-2.4 3-4.1 5.5-4.9 1.1-.1 3.4-.2 3.9-.5zm620.1 23.5c-.4.2-1 0-1.5.1-1.1.2-2.4.3-3.4.6-3.4 1.1-5.2 3.5-6.1 7.1-.6 2.5-.4 5.6-.4 8.6v15.6c0 3.6.1 7.4-1 10-1.1 2.7-3.3 4.3-6.3 5.1-2.4.7-5.5.5-8.5.5H569.7c-7 0-14.7-.6-18.7 2.3-2.2 1.6-4.2 7.3-3.2 11.7.2.8 0 1.4.2 2.2.8 3.1 2.3 5.5 5 6.7 4 1.7 10.8 1.1 16.4 1.1h244.1c6.5 0 13.4-.4 16.6 2.8 3.2 3.2 2.8 9.7 2.8 16.1v31.1c0 5.1.5 11.8-1 15.4-2.5 6-9.2 5.6-17.6 5.6H569.2c-6.8 0-14.3-.6-18.2 2.3-2.2 1.6-4.2 7.3-3.2 11.7.2.8 0 1.4.2 2.2.8 3.1 2.3 5.5 5 6.7 4.1 1.7 11.1 1.1 16.8 1.1h243.8c6.5 0 13.3-.4 16.5 2.8 3.2 3.2 2.8 9.7 2.8 16.1v37.5c0 1.6-.1 3.2-.1 4.7-.8 3.7-1.2 6.2-3.8 8.1-3.5 2.4-10.2 1.9-16 1.9H568.7c-6 0-13.3-.6-17 1.8-4.7 3.1-5.5 13.7-1.8 18.7 2.3 3.2 7.5 3.4 13.1 3.4h251.2c5.3 0 11.2-.4 14.5 1.7 4.1 2.6 4.2 8.3 4.2 15v15c0 3.9 0 7.7 1.1 10.4.9 2.2 2.9 3.7 5.1 4.6 3.5 1.4 11.4.8 16.2.8h29.5c9.4 0 16 .6 18.7-6.2.9-2.3.8-5.4.8-8.5V119.8c0-7.6.9-17.2-2.3-21.7-2.8-3.9-10-3.4-16.7-3.4-13.6.4-27.2.4-40.9.4zm22.6 24.1c5.1 0 9.2.6 11.3 3.4 2.5 3.3 2.2 9.2 2.2 15v222.3c0 6 .6 13.1-1.9 16.6-1.9 2.8-4.3 3-8.2 3.8-.9.2-2.6.1-3.4-.1-.6 0-1.1-.1-1.7-.1-2.6-.6-4.8-1.4-6.1-3.2-2.7-3.7-2.2-10.7-2.2-17V139.3c0-5.8-.5-12.5 1.7-16.1 1-1.6 2.8-2.9 4.8-3.5.7-.1 2.9-.2 3.5-.5zm-641.1 95h91.3c5.4 0 10.2.1 12.9 2.8 3.1 3.1 2.8 9.4 2.8 15.6v34.2c0 6.3.3 12.6-2.8 15.7-1.5 1.5-3.7 2-6.2 2.6-1.2.3-2.4.1-3.5.3h-1.3c-1.1.2-2.3.3-3.3.6-3.4 1.1-5.2 3.5-6.1 7.1-.4 1.4-.3 3-.3 4.6 0 5.8 2.1 9.4 6.5 10.9 2.6.9 6 .3 8.9 1 2.8.7 5 1.6 6.5 3.6 2.5 3.5 1.9 10.4 1.9 16.3v36.4c0 1.5-.1 3-.1 4.5-.2 1.1-.4 2.3-.6 3.4-.8 2.6-2.5 4.5-4.9 5.5-2.9 1.2-7.1.5-10.4 1.4-3.6.9-5.9 2.7-7.1 6.1-1.5 4.6-.6 11.8 1.9 14.3 1.3 1.3 3 2.2 5.1 2.7 1.9.5 4 .1 6 .5 3.4.7 6.1 1.1 7.8 3.4 2.7 3.6 2.2 10.6 2.2 16.9v32.9c0 8.3.3 14.7-5.6 17.2-4 1.7-11.6 1-17 1-6.8 0-16.7.9-20.8-1.9-1.5-1-2.6-2.8-3.2-4.6-.3-.9-.2-1.6-.4-2.5-.2-1-.5-3.7-.2-4.9.7-3.4 1.1-6.1 3.4-7.8 4.1-3 12-1.3 16.1-4 1.2-.8 2.4-2.2 3-3.6 1.4-3.3 1.4-9.8 0-13.1-1.4-3.2-4.1-4.4-7.9-5.2-.8 0-1.7-.1-2.5-.1-1-.2-2.5-.1-3.7-.1h-35.2c-5.5 0-13.1-.6-16.5 1.5-2.6 1.6-3.6 3.9-4.4 7.5-.3 1.3-.3 3.7 0 5 .3 1.3.1 2.3.5 3.4 1.1 3.4 3.5 5.2 7.1 6.1 3.3.9 7.5.2 10.4 1.4 2.4 1 4.1 3 4.9 5.5.2 1.1.4 2.3.6 3.4.3 1.3 0 3.9-.2 4.9-.2.9-.1 1.7-.4 2.5-.6 2-1.9 3.8-3.5 4.8-4.1 2.6-14.9 1.7-21.7 1.7-7 0-15.1.7-18.6-2.8-3.2-3.2-2.8-9.6-2.8-15.9V424c0-5.7-.5-12.2 1.7-15.7 1.4-2.2 3.7-3.2 6.7-3.9 2.9-.7 6.3-.2 8.9-1 2.9-1 4.9-2.9 5.8-5.8.5-1.4.6-3.1.6-4.8 0-6.4-1.6-10.3-6.5-11.9-2.6-.9-6-.3-8.9-1-2.8-.7-5-1.6-6.5-3.6-2.5-3.6-1.9-10.6-1.9-16.5v-28.6c0-4.5-.5-11 .5-14.7.9-3.4 2.8-5.6 6-6.7 3.6-1.2 8.6-.4 11.8-1.8 2.3-1 3.9-3 4.7-5.4.4-1.1.4-2.3.6-3.4.2-1.1.1-3.1-.1-4-.3-1.3-.1-2.3-.5-3.4-1.1-3.4-3.5-5.2-7.1-6.1-1.9-.5-4-.1-6-.5-3.4-.7-6.1-1.1-7.8-3.4-2.5-3.4-2.2-9.6-2.2-15.6v-32.1c0-5.7-.5-12.2 1.7-15.7 1.3-2.1 3.5-3.1 6.1-3.8.8-.1 3.4-.1 3.8-.4zm142.8 0h38.5c6.5 0 13.7-.5 17.4 2.2 3.1 2.3 4.5 9.7 2.8 14.8-2.5 7.6-10.7 6.6-20.5 6.6h-31.1c-5.5 0-11.6.4-14.9-1.9-1.2-.8-2.3-2.3-2.9-3.7-1.6-3.9-1.1-11.1.9-14 1.4-2 3.6-2.9 6.5-3.6.7-.2 2.7 0 3.3-.4zm-119.4 23.6c-1.2.1-2.5.3-3.7.4-2.6.7-4.7 1.8-5.9 3.7-2.1 3.1-2.4 10.5-.7 14.4.6 1.4 1.8 2.8 3 3.6 3.3 2.2 9.4 1.8 14.9 1.8h31c9.9 0 18.3 1.1 20.8-6.6 1.7-5.1.4-12.9-2.7-15.1-3.9-2.8-11.2-2.3-17.9-2.3-13 .1-25.9.1-38.8.1zm22.3 47.7c-.5.3-2.7.4-3.4.6-2.4.8-4.5 2.5-5.4 4.7-1.2 2.8-1.1 6.7-1.1 10.6v15.8c0 3.7.1 7.4-1 10.1-1 2.4-3 4.1-5.5 4.9-3.6 1.2-8.6.4-11.8 1.8-4.1 1.7-5.3 5.7-5.3 11.6 0 1.7.1 3.3.6 4.7 1 2.9 2.9 4.9 5.8 5.8 2.6.9 6 .3 8.9 1 3.6.9 6 2.2 7.4 5.3 1.1 2.6 1 6.4 1 10.1v15.8c0 3.9-.1 7.8 1.1 10.6 1.3 3.1 3.6 4.2 7.3 5 1.2.3 4.1.6 5.6.3 1.1-.2 2.4-.3 3.4-.6 2.4-.8 4.5-2.5 5.4-4.7 1.2-2.8 1.1-6.7 1.1-10.6v-15.8c0-3.7-.1-7.4 1-10.1 1.3-3.1 3.8-4.5 7.4-5.3 2.9-.7 6.3-.1 8.9-1 4.4-1.5 6.5-5.1 6.5-11 0-1.6.1-3.2-.3-4.5-.9-3.6-2.7-5.9-6.1-7.1-2.6-.9-6-.3-8.9-1-3.6-.9-6-2.2-7.4-5.3-1.1-2.7-1-6.5-1-10.2v-16.1c0-4.5 0-8.8-1.8-11.5-2.5-3.3-6.6-3.9-12.4-3.9zm-45.7 238.4h61.8c6 0 13.4-.7 17.2 1.7 2.2 1.3 3 3.3 3.7 6.1.3 1.2.8 4 .4 5.6-.1.9-.3 1.8-.4 2.7-.7 2.4-1.8 4.5-3.7 5.6-3.5 2.2-9.8 1.7-15.3 1.7H258c-4.3 0-10.8-.4-13.9.8-2.3.9-4.2 2.4-5.1 4.6-1.6 3.9-1.4 11.3.7 14.4 3.3 5 11.7 4.1 20 4.1h50.8c8.5 0 17.5 1 21-4.1 1.8-2.7 1.8-6.9 1.8-11.4v-16.2c0-3.7-.1-7.5 1-10.2 1.3-3.1 3.8-4.5 7.4-5.3 1.2-.3 3.9-.4 5.1-.1.6 0 1.1.1 1.7.1 2.8.7 5 1.6 6.5 3.6 1.8 2.6 1.9 6.9 1.9 11.3v15.7c0 6 0 11.8 3.4 14.3 4.4 3.2 13.9 2.3 21.5 2.3h49.6c9.7 0 17.7.9 20.2-6.6 1.7-5.1.4-12.9-2.7-15.1-3.6-2.6-9.9-2.3-16.2-2.3h-32.8c-5.4 0-11.4.4-14.7-1.7-3.2-2-4.2-6-4.1-11.3 0-1.4.2-2.9.6-4 2.5-7.6 10.7-6.6 20.5-6.6h51.3c9.6 0 19-1.3 21.9 5.6 1.1 2.5 1 6.1 1 9.7v14.2c0 8.2-.2 16.2-.4 24-.1 6.1.2 11.8-2.8 14.8-3.6 3.6-11.9 2.8-19 2.8h-77.8c-6.2 0-12.3-.3-15.8 2.3-1.6 1.1-2.5 3.3-3 5.4-.2.8 0 1.4-.2 2.2-.2.9-.3 2.9-.1 4 .8 3.9 1.2 6.3 4 8.2 2.6 1.7 6.7 1.8 11.1 1.8h86.1c1.8 0 4.2-.3 5.8.1h1.7c1.9.4 3.9.5 5.3 1.4 1.7 1 3 2.7 3.6 4.7.4 1.4.7 4 .3 5.6 0 .7-.1 1.5-.1 2.2-.5 2.4-.6 5-1.2 7.3-.4 1.7-.4 3.3-.9 4.9-1.3 4.2-1.9 8.5-3.5 12.4-1.2 2.8-2.1 5.8-3.3 8.6-3.1 7-6.7 13.7-10.9 19.7-2.7 3.9-6 7.3-8.3 11.6-.6 1.1-1.8 3.5-1.3 5.4 1 4.6 3.5 7.1 5.8 10.3 2.4 3.3 4.8 6.8 7.1 10.3 4.8 7.6 8.6 16.3 11.7 25.5.9 2.6 1.3 5.1 2.1 7.9.9 3.1 1.3 6.6 2.1 10 .2 1.4.3 2.9.5 4.3.6 2.6.5 6.6-.4 8.8-2.4 5.7-8.8 5.3-16.7 5.3H256.1c-5.2 0-10.7-.3-13.8 1.8-2.8 1.9-3.2 4.3-4 8.2-.2 1.1-.1 3.1.1 4 .2.8 0 1.4.2 2.2.6 2.1 1.5 4.3 3 5.4 3.6 2.6 9.9 2.3 16.2 2.3h201.4c6.9 0 12.9 0 15.5 4.2 2.2 3.6 1.7 10.1 1.7 15.8V862c0 6.6.2 12.9-3.5 15.7-3.4 2.5-9.5 2.2-15.5 2.2H260c-6.9 0-14.4-.6-18.3 2.3-1.6 1.1-2.5 3.3-3 5.4-.2.8 0 1.4-.2 2.2-.2.9-.3 2.9-.1 4 .8 3.9 1.2 6.3 4 8.2 3.2 2.1 9 1.8 14.3 1.8H459c5.5 0 10.9-.1 14 2.2 5.1 3.8 4.4 16.9-.7 20.1-3.8 2.4-11.1 1.7-17.1 1.7H235c-6.7 0-14.1.5-17.4-2.8-3.2-3.2-2.8-9.9-2.8-16.3v-36.8c0-1.3-.1-2.8.1-3.9 0-.9.1-1.7.1-2.6.8-3.3 1.6-5.8 4-7.4 3.2-2 8.7-1.7 13.9-1.7H433c5.7 0 12.1.5 15.5-1.8 2.3-1.6 3.2-3.9 3.9-7.2.3-1.3.3-3.7 0-5-.2-.8 0-1.4-.2-2.2-.4-1.6-1-3.1-1.9-4.3-3.1-4.3-12.1-3.4-19.6-3.4H235c-5.7 0-12.4.5-16-1.7-1.9-1.2-3.1-3.2-3.7-5.6-.2-.8-.2-1.8-.4-2.6v-1.7c-.2-1-.1-2.5-.1-3.7v-37.3c0-6.7-.3-13.4 3.5-16.2 3.2-2.4 8.7-2.2 14.4-2.2h196.8c6.3 0 13.1.5 15.7-3.1.8-1.1 1.8-2.9 1.3-5.1-2.2-9.8-7.8-17.9-12.9-24.9-2.3-3.2-5-6.7-9.4-7.9-1.5-.4-3.6-.1-4.7.3-3.1 1-5.5 2.3-8.2 3.7-5.5 2.9-11.6 5.3-17.8 7.4-2.9 1-5.9 1.5-8.8 2.4-1.9.6-3.8.6-5.8 1.1-1.8.5-3.8.4-5.7.9-1.7.4-3.7.3-5.4.7h-1.3c-1 .2-2.4.2-3.4.3h-2c-1.2.3-2.9-.2-4.2.1-1.1.2-2.7.1-3.9.1H237.6c-5.4 0-13 .6-16.9-1-2.7-1.1-4.3-3.3-5.1-6.4-.3-1.2-.4-2.5-.4-3.9 0-5 1.1-8.7 4.1-10.6 2.7-1.7 7.1-1.7 11.5-1.7h113.1c4.5 0 9.3.1 13.7-.1 2.4-.1 4.8.2 6.9-.3h1.3c3-.7 6.2-.5 9.2-1.2 5.2-1.3 10.4-2.3 14.8-4.2 2.4-1.1 4.7-2 5.8-4.3.5-1.1.7-2.7 0-3.8-1.6-2.6-4.4-3.5-7.4-4.7-4-1.7-8.7-2.5-13.3-3.6-2.4-.3-4.7-.7-7.1-1-1.7-.4-3.4-.1-5-.4h-2.1c-.9-.2-2.4.1-3.4-.1-2.1-.5-5.4-.1-7.8-.1H234.7c-6.6 0-13.5.5-16.8-2.8-1.3-1.3-1.8-2.9-2.3-5-.3-1.2-.8-4-.4-5.6.8-3.9 1-6.2 3.8-8.2 4.1-2.8 15.6-1.9 22.6-1.9h111.6c1.2 0 2.8-.1 3.8.1 1.3.3 3-.2 4.2.1h2c1 .1 2.5.1 3.4.3h1.3c1.7.4 3.8.3 5.4.7 2 .5 3.9.4 5.7.9 2.3.6 4.5.6 6.7 1.3 2.7.8 5.6 1.4 8.3 2.3 6.2 2.1 12.2 4.5 17.7 7.4 2.6 1.3 4.9 2.6 8 3.6 1.1.4 3.3.7 4.7.3 4-1.1 6.5-4 8.7-7 3.8-5.2 7.5-10.5 10.3-16.7 1.1-2.5 2.4-4.9 3.1-7.8 1-3.9-.7-6.8-2.9-8.2-3.1-1.9-10-1.4-15-1.4H237.5c-5.4 0-13 .6-16.9-1-2.7-1.1-4.3-3.3-5.1-6.4-.3-.9-.1-1.7-.3-2.7-.3-1.2-.2-3.3.1-4.4.3-1.3.3-2.3.7-3.4 1-2.4 3-4.1 5.5-4.9 2.7-.9 6.5-.7 10-.7h87c4.4 0 8.6-.1 11.2-1.8 2.8-1.9 3.2-4.3 4-8.2.3-1.5 0-4.5-.3-5.6-.8-3.4-1.6-5.2-4.2-6.9-1.5-.9-3.4-1-5.3-1.4h-1.5c-1.5-.3-3.6-.1-5.3-.1h-85.3c-3.6 0-7.5.2-10.3-.7-7.1-2.3-6.6-9.3-6.6-18.4v-36.5c0-3.2-.1-6.5.7-9 .4-1.4 1.2-2.8 2.1-3.7 1.4-1.4 3.3-2 5.5-2.5.2-.1 2.1.2 2.7-.2zm452.4 0h230.8c8.7 0 15.7-.6 18.3 5.6.6 1.3.7 3 .9 4.5.2 1.4 0 3.2-.2 4.3-.2.9-.1 1.7-.4 2.5-.6 2-1.9 3.8-3.5 4.8-4.2 2.6-15.3 1.7-22.2 1.7h-75.4c-3.2 0-7.1-.3-9.8.4-3.1.8-5.5 2.3-6.7 5-1.8 4.2-1.1 13.1-1.1 19.1v79.7c0 3.9 0 7.8 1.5 10.3.9 1.5 2.3 2.8 3.9 3.5 2.8 1.2 6.9 1.1 10.9 1.1H881c7.3 0 15.7.8 20-2.3 1.6-1.1 2.5-3.3 3-5.4.2-.8 0-1.4.2-2.2.2-.9.3-2.9.1-4-.8-3.9-1.2-6.3-4-8.2-3.3-2.2-9.3-1.8-14.8-1.8h-30.7c-6.1 0-13.6.7-17.4-1.7-2.2-1.4-3.2-3.7-3.9-6.7-.3-1.1.1-2.1-.2-3.3-.2-1.1-.1-2.6-.1-3.8v-37.3c0-6.7-.3-13.3 3.5-16.1 4.2-3.1 13.2-2.2 20.4-2.2h47.6c7.6 0 17.2-1 21.1 2.8 2.6 2.6 3.6 9.5 2.1 14.2-.8 2.6-2.5 4.5-4.9 5.5-3.6 1.5-9.5 1-14.4 1h-32.3c-5.6 0-11.9-.4-15.3 1.8-2.8 1.9-3.2 4.3-4 8.2-.3 1.5 0 4.5.3 5.6.6 2.6 1.2 4.7 3 6 3.5 2.6 9.4 2.3 15.5 2.3h30.6c5 0 11.7-.6 15.6.7 7.1 2.3 6.6 9.3 6.6 18.4v36.6c0 3.2.1 6.4-.7 8.9-.4 1.4-1.2 2.8-2.1 3.7-.9.9-2.4 1.7-3.7 2.1-2.4.8-5.5.7-8.6.7h-87.3c-1.7 0-3.9-.2-5.4.1h-1.5c-2 .4-3.9.5-5.3 1.4-2.6 1.6-3.4 3.4-4.2 6.9-.3 1.2-.6 4.1-.3 5.6.7 3.2 1.1 6 3.3 7.7 1.2.9 2.7 1.5 4.3 1.9 2.2.6 4.8.4 7.4.4h86.8c1.8 0 4.1-.3 5.7.1h1.7c2.2.5 4.2.6 5.7 1.6 3.2 2 4.2 5.8 4.1 11.1 0 1.5-.2 3-.6 4.2-.8 2.6-2.5 4.5-4.9 5.5-2.5 1-6 1-9.5 1h-78.4c-8.1 0-20.1-1.2-23.5 3.4-3 4.2-2.3 12.5-2.3 19.8v128.3c0 2.6-.2 5.4.4 7.6.6 2.1 1.5 4.3 3 5.4 3.7 2.7 10.3 2.3 16.8 2.3h58.3c4.9 0 9.8.1 12.7-1.8 2.9-2 4-5.5 4-10.4 0-1.5 0-2.8-.3-4-.8-2.9-2-4.9-4.2-6.2-3.3-2-9.7-1.5-14.9-1.5h-31.4c-5.8 0-12.5.5-16.1-1.7-1.9-1.2-3.1-3.2-3.7-5.6-.2-.8-.2-1.8-.4-2.6v-1.7c-.3-1.2-.1-3-.1-4.4v-36.6c0-5.3-.3-10.9 1.7-14.2 1.4-2.2 3.7-3.2 6.7-3.9 1.1-.3 2.1.1 3.3-.2 1-.2 2.4-.1 3.5-.1h33.7c7 0 15 .6 19-2.3 2.2-1.6 2.6-4.4 3.3-7.7.3-1.5 0-4.5-.3-5.6-.5-2.1-.9-3.5-1.9-4.9-2.8-3.8-9.8-3.4-16.4-3.4h-31.4c-5.1 0-11.9.5-15.5-1-2.4-1-4.1-3-4.9-5.5-.4-1.1-.2-2.2-.5-3.5-.2-.9-.2-2.6 0-3.4.2-1 0-1.8.3-2.7.8-3 2.4-5.2 5.1-6.4 1.3-.5 2.9-.6 4.3-.9h1.7c1.4-.3 3.4-.1 4.9-.1h54.5c7.7 0 17.6-1.1 21.5 2.8 3.2 3.2 2.8 9.7 2.8 16.1v31.1c0 5.1.5 11.8-1 15.4-2.8 6.7-11.2 5.6-20.5 5.6h-31.1c-5.5 0-11.7-.4-15 1.8-2.8 1.9-3.2 4.3-4 8.2-.2 1.1-.1 3.1.1 4 .2.8 0 1.4.2 2.2.6 2.1 1.5 4.3 3 5.4 3.6 2.6 10 2.3 16.3 2.3h32.9c6.4 0 13.1-.4 16.3 2.8 3.2 3.2 2.8 9.9 2.8 16.3v34.6c0 7.1.1 13.4-4.2 16.1-3.8 2.4-11.3 1.7-17.3 1.7H686.1c-8.6 0-15.5.5-18-5.6-1.7-4-1-12.7-1-18.2v-29c0-5.3-.3-11.1 1.7-14.4 1.4-2.2 3.7-3.2 6.7-3.9 1.1-.3 2.1.1 3.3-.2 1.1-.2 2.6-.1 3.8-.1h37.1c6.6 0 13.6.4 16.4-3.4 1.1-1.4 1.4-2.8 1.9-4.9.3-1.2.6-4.1.3-5.6-.7-3.2-1.1-6-3.3-7.7-4.1-3-11.9-2.3-18.9-2.3h-27.9c-4.8 0-10.7.5-14.5-.7-7.1-2.3-6.6-9.3-6.6-18.4v-36.7c0-3.1-.1-6.3.7-8.8.4-1.4 1.2-2.8 2.1-3.7 2.7-2.7 7.5-2.8 12.9-2.8h58c7 0 14.9-.7 18.3 2.8 2.4 2.4 3.6 8.7 2.3 13.4-.7 2.4-1.8 4.5-3.7 5.6-3.6 2.2-10.1 1.7-15.8 1.7h-30.2c-5.4 0-11.8-.5-15.6 1.1-2.7 1.2-4.2 3.6-5 6.7-.3 1.3-.3 2.6-.3 4.1 0 5.5 1.5 9.4 5.3 11 3.6 1.5 9.4 1.1 14.5 1.1h31.8c5.6 0 11.9-.4 15.3 1.7 2.2 1.4 3.2 3.7 3.9 6.7.3 1.1-.1 2.1.2 3.3.2 1.1.1 2.7.1 4v35.1c0 5.8.5 12.5-1.7 16.1-1.2 1.9-3.2 3.1-5.6 3.7-3.7 1-9.7.5-14.2.5h-27.3c-7 0-15-.6-19 2.3-2.2 1.6-2.6 4.4-3.3 7.7-.2 1.1-.1 3.1.1 4 .2.8 0 1.4.2 2.2.8 2.9 2 4.9 4.2 6.2 3.8 2.3 14.6 1.5 20.9 1.5h46.2c7.3 0 16 .8 20.3-2.3 3.2-2.4 3.4-7.6 3.4-13.2V754.7c0-6.8-.1-12.4-4.1-15.1-2.6-1.7-6.7-1.8-11-1.8h-87.1c-1.6 0-3.6.2-5-.1h-1.7c-1.5-.3-3.1-.4-4.3-.9-4-1.7-6.1-6.1-5.5-12.3.1-1.6.4-3.3.9-4.6.9-2.1 2.6-3.8 4.6-4.6 2.5-1.1 6.1-1 9.7-1h88.5c2.6 0 5.2.2 7.4-.4 1.6-.4 3.1-1 4.3-1.9 2.2-1.6 2.6-4.4 3.3-7.7.3-1.5 0-4.5-.3-5.6-.8-3.4-1.6-5.3-4.2-6.9-1.5-.9-3.4-1-5.3-1.4h-1.5c-1.5-.3-3.6-.1-5.3-.1h-87c-3.1 0-6.2.1-8.6-.7-1.4-.4-2.8-1.2-3.7-2.1-.9-.9-1.7-2.4-2.1-3.7-.8-2.5-.7-5.7-.7-8.9v-36.7c0-9.1-.5-16.1 6.6-18.3 3.9-1.3 10.6-.7 15.6-.7h30.3c6.1 0 11.9.2 15.4-2.3 1.8-1.3 2.4-3.5 3-6 .3-1.2.6-4.1.3-5.6-.8-3.9-1.2-6.3-4-8.2-3.4-2.2-9.6-1.8-15.2-1.8h-32.1c-4.9 0-10.7.5-14.3-1-2.4-1-4.1-3-4.9-5.5-1.7-5.2-.3-12.5 2.8-14.8 4.2-3.1 13.1-2.2 20.3-2.2h47.4c7.6 0 17.1-1 21 2.8 3.2 3.2 2.8 10 2.8 16.4v29.4c0 4.6.5 11.3-.5 15.1-.8 3-2.4 5.2-5.1 6.4-3.8 1.6-10.7 1-15.9 1h-30.8c-5.5 0-11.5-.4-14.8 1.8-2.8 1.9-3.2 4.3-4 8.2-.2 1.1-.1 3.1.1 4 .2.8 0 1.4.2 2.2.6 2.1 1.5 4.3 3 5.4 4.2 3 12.5 2.3 19.7 2.3h56.8c2.7 0 5.4.2 7.7-.4 2.1-.6 4.3-1.5 5.4-3 2.5-3.4 2.3-9 2.3-15v-78.9c0-8.3.9-16.6-4.1-20-2.6-1.7-6.7-1.8-11.1-1.8h-86.2c-1.9 0-4.2.3-5.8-.1h-1.7c-2.2-.5-4.2-.6-5.7-1.6-5.1-3.2-5.8-15.9-.7-19.7 1.3-1 3-1.5 4.8-1.9-.3-.4 1.7-.1 2.3-.5zm-596.7.1c4.6 0 8.4.4 10.7 2.7 3.6 3.6 2.8 12.2 2.8 19.5v48c0 6.8-.9 16.7 1.8 20.8 1.6 2.3 3.9 3.2 7.2 3.9 1.3.3 3.7.3 5 0 .8-.2 1.4 0 2.2-.2 1.6-.4 3.1-1 4.3-1.9 4.5-3.3 3.4-13 3.4-20.7V545c0-9.1-.9-17.3 5.6-20.1 1.3-.6 2.9-.6 4.4-.9 1.6-.4 4.5.1 5.6.4 2.8.7 4.8 1.6 6.1 3.7 2.5 4 1.7 12.9 1.7 19.4v47.3c0 6.6-.9 16.1 1.8 20.2 1.9 2.8 4.3 3.2 8.2 4 1.1.2 3.1.1 4-.1.8-.2 1.4 0 2.2-.2 2.6-.7 4.7-1.8 5.9-3.7 2.7-4.1 1.8-13.9 1.8-20.7v-48.5c0-6.1-.7-13.8 1.7-17.6 1.3-2.2 3.3-3 6.1-3.7 1.2-.3 4-.8 5.6-.4 1.5.3 3.1.4 4.4.9 2.1.9 3.8 2.6 4.6 4.6.5 1.3.6 2.9.9 4.3v1.7c.3 1.4.1 3.4.1 4.9v86.9c0 3.1.1 6.2-.7 8.7-.4 1.4-1.2 2.8-2.1 3.7-2.8 2.8-8 2.8-13.6 2.8H158c-3.9 0-7.7 0-10.4 1.1-2.7 1.2-4.2 3.6-5 6.7-.4 1.4-.6 4.6-.2 6.2.3 1.3.1 2.3.5 3.4 1.1 3.4 3.5 5.2 7.1 6.1 2.4.6 5.4.4 8.3.4h14c8.1 0 14.1-.1 16.5 5.6 1.7 4 1 13.1 1 18.7v218c0 9.3.6 16.4-6.6 18.7-1.1.4-2.4.4-3.6.6-1.4.2-3.2 0-4.3-.2-2.8-.6-4.5-.8-6.2-2.5-3.4-3.4-2.8-10.6-2.8-17.3V709.4c0-6.3.3-12.4-2.3-16-1.1-1.6-3.3-2.5-5.4-3-.8-.2-1.4 0-2.2-.2-.9-.2-2.9-.3-4-.1-3.9.8-6.3 1.2-8.2 4-2.3 3.5-1.8 9.9-1.8 15.6v200.4c0 5.2.3 10.7-1.7 13.9-1.9 3-4.4 3.3-8.4 4.1-.9.2-2.6.1-3.4-.1-.6 0-1.1-.1-1.7-.1-2.2-.5-4.2-1.2-5.5-2.5-3.1-3.1-2.8-9.1-2.8-15.2V707.1c0-5.6 0-10.6-2.3-13.8-2.2-3-7.2-3.6-12.4-3.2-2.3.2-4.4 1-5.8 2.1-3.5 2.5-3.4 8.4-3.4 14.5v201.7c0 5.8.5 12.4-1.9 15.8-1.9 2.8-4.3 3-8.2 3.8-1.6.4-4.5-.1-5.6-.4-2.8-.7-4.8-1.6-6.1-3.7-1.7-2.8-1.7-7.2-1.7-11.7V682.3c0-4.5 0-9 1.7-11.8 2.4-3.9 7.6-4.2 13.9-4.2h15.7c3.4 0 7 .2 9.7-.7 3.4-1.1 5.2-3.5 6.1-7.1.2-.8 0-1.4.2-2.2.3-1.6.2-4.8-.2-6.2-.8-3.1-2.3-5.5-5-6.7-2.8-1.2-6.7-1.1-10.7-1.1H87.2c-3.7 0-7.4.1-10.1-1-2.7-1.1-4.3-3.3-5.1-6.4-.8-2.9-.5-6.7-.5-10.2v-84c0-1.7-.2-3.9.1-5.4v-1.7c.5-2.2.6-4.2 1.6-5.7 1-1.6 2.8-2.9 4.8-3.5.8 0 3.1-.1 3.6-.4zm452.3 0c4.6 0 8.4.4 10.7 2.7 3.6 3.6 2.8 12.2 2.8 19.5v48c0 6.8-.9 16.7 1.8 20.8 1.6 2.3 3.9 3.2 7.2 3.9 1.3.3 3.7.3 5 0 .8-.2 1.4 0 2.2-.2 1.6-.4 3.1-1 4.3-1.9 4.5-3.3 3.4-13 3.4-20.7V545c0-9.1-.9-17.3 5.6-20.1 1.4-.6 2.7-.4 4.4-.8 4.7-1 9.9 1.3 11.6 3.7 2.8 4 1.9 13.7 1.9 20.5v48.3c0 7-.6 15 2.3 19.1 1.3 1.8 3.5 2.4 6 3 1.2.3 4.1.6 5.6.3 3.9-.8 6.3-1.2 8.2-4 2.7-4 1.8-13.6 1.8-20.3v-47.3c0-7.5-1-16.9 2.8-20.7 1.7-1.7 3.5-1.9 6.2-2.5 1.1-.2 3-.4 4.3-.2 1.6.2 3.2.4 4.5.9 2.1.9 3.8 2.6 4.6 4.6.5 1.3.6 2.9.9 4.3v1.7c.3 1.4.1 3.4.1 4.9v86.9c0 3.1.1 6.2-.7 8.7-.4 1.4-1.2 2.8-2.1 3.7-2.8 2.8-8 2.8-13.6 2.8h-15.3c-3.9 0-7.7 0-10.4 1.1-2.7 1.2-4.2 3.6-5 6.7-.4 1.4-.6 4.6-.2 6.2.3 1.3.1 2.3.5 3.4 1.1 3.4 3.5 5.2 7.1 6.1 2.4.6 5.4.4 8.3.4h14c8.1 0 14.1-.1 16.5 5.6 1.7 4 1 13.1 1 18.7v218c0 9.3.6 16.4-6.6 18.7-1.1.4-2.4.4-3.6.6-1.4.2-3.2 0-4.3-.2-2.8-.6-4.5-.8-6.2-2.5-3.4-3.4-2.8-10.6-2.8-17.3V709.3c0-6.3.3-12.4-2.3-16-1.1-1.6-3.3-2.5-5.4-3-.8-.2-1.4 0-2.2-.2-.9-.2-2.9-.3-4-.1-3.9.8-6.3 1.2-8.2 4-2.3 3.5-1.8 9.9-1.8 15.6V910c0 5.2.3 10.7-1.7 13.9-1.9 3-4.4 3.3-8.4 4.1-.9.2-2.6.1-3.4-.1-.6 0-1.1-.1-1.7-.1-2.2-.5-4.2-1.2-5.5-2.5-3.1-3.1-2.8-9.1-2.8-15.2V707c0-5.6 0-10.6-2.3-13.8-2.2-3-7.2-3.6-12.4-3.2-2.3.2-4.4 1-5.8 2.1-3.5 2.5-3.4 8.4-3.4 14.5v201.7c0 5.8.5 12.4-1.9 15.8-1.9 2.8-4.3 3-8.2 3.8-1.6.4-4.5-.1-5.6-.4-2.8-.7-4.8-1.6-6.1-3.7-1.7-2.8-1.7-7.2-1.7-11.7V682.2c0-4.5 0-9 1.7-11.8 2.4-3.9 7.6-4.2 13.9-4.2h15.7c3.4 0 7 .2 9.7-.7 3.4-1.1 5.2-3.5 6.1-7.1.2-.8 0-1.4.2-2.2.3-1.6.2-4.8-.2-6.2-.8-3.1-2.3-5.5-5-6.7-2.8-1.2-6.7-1.1-10.7-1.1h-15.7c-3.7 0-7.4.1-10.1-1-2.7-1.1-4.3-3.3-5.1-6.4-.8-2.9-.5-6.7-.5-10.2v-84c0-1.7-.2-3.9.1-5.4v-1.7c.5-2.2.6-4.2 1.6-5.7 1-1.6 2.8-2.9 4.8-3.5.8.1 3 0 3.5-.3z" fill-rule="evenodd" clip-rule="evenodd" fill="#e12d82"/></svg>