<?xml version="1.0" encoding="utf-8"?>
<!-- Generator: Adobe Illustrator 21.1.0, SVG Export Plug-In . SVG Version: 6.00 Build 0)  -->
<svg version="1.1" id="Layer_1" xmlns="http://www.w3.org/2000/svg" xmlns:xlink="http://www.w3.org/1999/xlink" x="0px" y="0px"
	 viewBox="0 0 1000 1000" style="enable-background:new 0 0 1000 1000;" xml:space="preserve">
<style type="text/css">
	.st0{fill-rule:evenodd;clip-rule:evenodd;fill:#E12D82;}
</style>
<path class="st0" d="M68.8,0c217.7,0,435.4,0,653.1,0c53,0,106,0,159,0c12.7,0,25.3,0,38,0c2.7,0,5.4,0,8.1,0c1.3,0,3-0.2,4.1,0.1
	c0.7,0,1.3,0,2,0c1,0.2,2.4,0.2,3.3,0.4c1.5,0.3,2.9,0.1,4.3,0.5c4.2,1.1,8.4,1.7,12.1,3.2c7.3,3,13.4,6.3,19.4,10.7
	c1.5,1.1,2.8,2.7,4.3,3.8c2.3,1.8,4.9,4.6,6.7,7c1.2,1.6,2.6,3,3.7,4.6c3,4.2,5.5,9,7.7,14c1.5,3.5,2.4,7.3,3.5,11.2
	c1.8,6.5,1.7,14.5,1.7,22.7c0,10.1,0,20.2,0,30.3c0,34.9,0,69.8,0,104.7c0,184,0,368,0,552c0,41.8,0,83.7,0,125.5
	c0,10.3,0,20.6,0,30.8c0,4.8,0.4,11-0.5,15c-0.1,1-0.2,2-0.3,3c-1.1,4.7-1.7,9.2-3.4,13.3c-2,4.8-4,9.4-6.7,13.6
	c-1.5,2.3-3.2,4.4-4.8,6.6c-1.6,2.2-3.5,4.2-5.4,6c-0.6,0.7-1.3,1.3-1.9,2c-3.4,2.6-6.6,5.5-10.3,7.9c-6.5,4.1-13.8,6.8-22.2,9.2
	c-6.9,1.9-15.7,1.7-24.5,1.7c-12,0-23.9,0-35.9,0c-40.5,0-81,0-121.6,0c-178.5,0-357,0-535.5,0c-38.7,0-77.3,0-116,0
	c-10.6,0-21.2,0-31.8,0c-9.7,0-19,0-26.3-2.4c-3.6-1.2-7.2-2.3-10.5-3.7c-10.2-4.5-20.3-12.2-26.5-20.7c-3.2-4.4-6.6-8.8-9-14.1
	c-2-4.6-3.6-9.4-5-14.6c-0.7-2.5-0.7-5.2-1.3-7.8c-0.3-1.1-0.1-2.4-0.3-3.5c0-0.6,0-1.2,0-1.8c-0.3-1.3-0.1-3.2-0.1-4.7
	c0-3.1,0-6.2,0-9.4c0-12.7,0-25.5,0-38.2c0-50.2,0-100.5,0-150.7c0-164.9,0-329.8,0-494.7c0-42.9,0-85.8,0-128.6c0-9,0-17.9,0-26.9
	c0-2,0-4.1,0-6.1c0-1-0.1-2.4,0.1-3.2c0.1-0.6,0-1.4,0.1-1.9c0-0.8,0.1-1.7,0.1-2.5c0.6-2.6,0.5-5.3,1.2-7.8C2.5,53.3,3.1,50,4.3,47
	c0.8-1.9,1.7-3.9,2.5-5.7c0.5-1.2,0.9-2.3,1.5-3.3c1.5-2.5,3-5.2,4.6-7.6c1.3-1.9,2.9-3.6,4.2-5.4c0.5-0.5,1.1-1.1,1.6-1.6
	c1.2-1.6,2.9-3.3,4.5-4.5c0.5-0.5,1.1-1.1,1.6-1.6c1.8-1.4,3.6-2.9,5.4-4.2C35.4,9.4,41,6.8,47,4.3c3.4-1.4,7.2-2.1,11-3
	c1.2-0.3,2.5-0.3,3.7-0.6c1.7-0.2,3.4-0.3,5-0.5C67.4,0,68.3,0.3,68.8,0z M69.3,23.8c-1.7,0.2-3.4,0.3-5.1,0.5
	c-3.1,0.8-6.3,1.2-9.1,2.3c-12.1,5-21.8,13.2-27,25c-1.3,2.9-2.2,6-3.1,9.3c-0.3,1.6-0.5,3.2-0.8,4.7c-0.5,2-0.3,4.7-0.3,7.1
	c0,3.9,0,7.9,0,11.8c0,9.7,0,19.5,0,29.2c0,42.2,0,84.4,0,126.6c0,166.1,0,332.2,0,498.3c0,47.3,0,94.7,0,142c0,12.2,0,24.3,0,36.5
	c0,3.4,0,6.7,0,10.1c0,1.7,0.1,3.4,0.1,5.1c0.2,1.6,0.4,3.2,0.6,4.7c0.9,3.4,1.5,6.7,2.8,9.7c6.3,14.6,17.2,23.7,33.6,28.3
	c5.8,1.6,13.7,1.1,21,1.1c12.2,0,24.3,0,36.5,0c39.8,0,79.7,0,119.5,0c174.3,0,348.7,0,523,0c41.5,0,83.1,0,124.6,0
	c11.2,0,22.4,0,33.7,0c6.8,0,14.4,0.4,19.9-1.1c5.5-1.6,10.4-3.3,14.7-6c2.8-1.8,5.1-4,7.7-5.9c0.6-0.5,1.1-1.2,1.6-1.8
	c0.4-0.3,0.7-0.7,1.1-1c0.5-0.7,1.1-1.4,1.6-2.1c1-1.4,2.3-2.8,3.2-4.3c1.7-2.7,3.1-5.8,4.3-8.9c1.2-3,1.6-6.3,2.4-9.8
	c0.1-0.9,0.1-1.9,0.2-2.8c0.6-2.7,0.2-6.9,0.2-10c0-7.9,0-15.9,0-23.8c0-46.6,0-93.3,0-139.9c0-179.9,0-359.8,0-539.7
	c0-37.9,0-75.7,0-113.6c0-9.1,0-18.1,0-27.2c0-6.1,0.3-12.4-1.1-17.2c-1.9-6.6-4.2-12.2-7.7-17.1c-1-1.4-2.2-2.7-3.2-4
	c-0.4-0.3-0.7-0.7-1.1-1c-1.2-1.6-3.6-3.7-5.2-4.9c-3.9-2.9-8.1-5.2-12.9-7.2c-2.4-1-5.2-1.4-7.9-2.1c-1.2-0.3-2.3-0.1-3.6-0.4
	c-1.8-0.4-4-0.3-6.1-0.3c-3.2,0-6.4,0-9.6,0c-12.1,0-24.1,0-36.2,0c-54.8,0-109.7,0-164.5,0C501.1,23.8,285.2,23.8,69.3,23.8z
	 M368.7,71.5c26.3,0,52.7,0,79,0c3.6,0,7.2,0,10.8,0c1.7,0,3.9-0.2,5.4,0.1c0.6,0,1.1,0,1.7,0c1.6,0.4,3.2,0.4,4.5,1
	c2.2,0.9,3.7,2.8,4.4,5.1c0.6,1.7,0.6,4.9,0.2,6.9c-0.3,1.2,0,2.2-0.3,3.3c-0.6,2.6-0.8,5.5-1.5,8.1c-1.1,4-1.7,7.8-2.9,11.5
	c-3.7,11-8.4,20.9-14.3,29.7c-2.9,4.4-6.6,8.1-9.1,12.8c-0.9,1.7-1.8,4.5-1,7.1c0.9,2.7,2.5,4.5,3.9,6.6c1.8,2.4,3.6,4.8,5.3,7.3
	c5.1,7.2,9.1,15.4,12.7,24.1c2.7,6.5,4.1,13.5,5.9,20.9c0.9,3.4,0.7,7.1,1.5,10.7c0.3,3.9,0.5,7.7,0.8,11.6c0.2,0.8,0,1.9,0.1,2.5
	c0,1.3,0,2.6,0,3.9c0.2,0.9,0.1,2.2,0.1,3.2c0,2.1,0,4.2,0,6.2c0,5.3,0,10.7,0,16c0,4.5-0.1,8.8-1.9,11.4c-3.3,4.7-11.9,3.9-20,3.9
	c-17,0-33.9,0-50.9,0c-7.1,0-15.2-0.7-19.4,2.3c-1.8,1.3-2.4,3.5-3,6c-0.3,1-0.6,4.3-0.3,5.6c0.8,3.9,1.2,6.3,4,8.2
	c4,2.6,13.3,1.8,19.9,1.8c15.4,0,30.7,0,46.1,0c3,0,6,0,9.1,0c1.5,0,3.4-0.2,4.7,0.1c0.6,0,1.1,0,1.7,0c1.5,0.3,3.1,0.4,4.3,0.9
	c2.1,0.9,3.8,2.5,4.6,4.6c1.1,2.6,1,6.3,1,9.9c0,5,0,9.9,0,14.9c0,7.2,0,14.4,0,21.7c0,9.2,0.5,16.1-6.6,18.3
	c-1.1,0.2-2.3,0.4-3.4,0.6c-0.6,0-1.1,0-1.7,0c-1.4,0.3-3.5,0.1-5.1,0.1c-3.4,0-6.8,0-10.2,0c-14,0-28,0-42,0
	c-7.9,0-18.5-1-23.1,2.3c-2.2,1.6-2.6,4.4-3.3,7.7c-0.3,1.5,0,4.5,0.3,5.6c0.6,2.6,1.2,4.7,3,6c4.1,3,12.2,2.3,19.3,2.3
	c17,0,34,0,51,0c7.6,0,16.4-0.9,19.7,3.5c2.9,3.9,2.2,11.6,2.2,18.3c0,9.8,0,19.6,0,29.3c0,5.8,0.5,12.5-1.7,16.1
	c-1.2,1.9-3.2,3.1-5.6,3.7c-2.8,0.8-6.6,0.5-10,0.5c-5.8,0-11.6,0-17.3,0c-19.1,0-38.2,0-57.2,0c-3.3,0-6.7,0-10,0
	c-5.1,0-10.3,0.2-13.3-1.9c-2.7-1.9-3-4.3-3.8-8.1c-0.3-1.3,0-3.9,0.2-4.9c0.6-2.8,0.8-4.5,2.5-6.2c3.7-3.7,12.9-2.8,20.3-2.8
	c16,0,31.9,0,47.9,0c7.4,0,16.4,0.8,20.8-2.3c3.1-2.2,4.4-10.1,2.7-15.1c-0.8-2.4-2.5-4.5-4.7-5.4c-4.3-1.8-13.2-1.1-19.2-1.1
	c-14.4,0-28.8,0-43.1,0c-4.1,0-8.2,0-12.3,0c-3.1,0-6.2,0.1-8.6-0.7c-7.1-2.3-6.6-9.2-6.6-18.3c0-7.2,0-14.4,0-21.6c0-5,0-10,0-15
	c0-3.6-0.1-7.3,1-9.9c0.9-2.1,2.5-3.8,4.6-4.6c1.3-0.5,2.9-0.6,4.3-0.9c0.6,0,1.1,0,1.7,0c1.3-0.3,3.2-0.1,4.6-0.1c3,0,6,0,9.1,0
	c15.3,0,30.6,0,45.9,0c6.6,0,15.8,0.8,19.8-1.8c2.8-1.9,3.2-4.3,4-8.2c0.3-1.5,0-4.5-0.3-5.6c-0.6-2.6-1.2-4.7-3-6
	c-4.1-3-11.9-2.3-18.9-2.3c-14.3,0-28.7,0-43,0c-4.5,0-9,0-13.5,0c-2.2,0-5.2,0.2-7.2-0.2c-3.3-0.8-5.8-1.6-7.4-4
	C356.4,325,357,318,357,312c0-9.4,0-18.8,0-28.2c0-4.5-0.5-11,0.5-14.6c0.8-3,2.4-5.2,5.1-6.4c1.3-0.5,2.9-0.6,4.3-0.9
	c0.6,0,1.1,0,1.7,0c1.4-0.3,3.4-0.1,5-0.1c3.3,0,6.7,0,10,0c15,0,30,0,45.1,0c7.3,0,15.7,0.8,20-2.3c1.9-1.4,2.6-3.9,3.2-6.7
	c0.2-0.8,0-1.8,0.2-2.5c0-1.9,0-3.9,0-5.8c0-2.1,0-4.5-0.1-6.5c-0.1-1.8,0.1-3.7-0.2-5.2c-0.1-1.3-0.1-2.7-0.2-4
	c-0.8-3.7-0.7-7.6-1.7-11.1c-1.2-4.3-2-8.6-3.6-12.5c-2.7-6.6-5.6-12.6-9.2-18.2c-3-4.8-7.4-12.1-13.4-13.7c-3.9-1-9.1,1.9-11.3,3.2
	c-1.6,0.9-3.2,1.6-4.9,2.3c-1.3,0.6-2.6,1.4-3.9,1.9c-3.1,1.4-6.4,2.4-9.7,3.6c-2,0.7-4,1-6.1,1.7c-3.8,1.2-8.1,1.7-12.3,2.7
	c-1.4,0.2-2.9,0.3-4.3,0.5c-2.6,0.6-6.6,0.5-8.8-0.4c-3.2-1.3-4-3.4-4.9-7.1c-0.3-1.1-0.6-3.8-0.3-5.2c0.8-3.6,1.1-6.2,3.6-8.1
	c2.2-1.6,5.2-2,8.3-2.7c0.9-0.1,1.8-0.2,2.7-0.3c4.3-1,8.6-1.7,12.4-2.9c4.3-1.4,10.1-2.8,11.2-7.4c0.3-1.3-0.5-2.3-0.9-2.9
	c-1.3-1.9-3.2-2.7-5.4-3.7c-3.6-1.5-7.7-2.5-11.8-3.6c-1.8-0.5-3.7-0.6-5.4-1c-0.9-0.1-1.8-0.2-2.7-0.3c-4-1-7.7-1.4-9.8-4.2
	c-2.8-3.9-3.1-14.5,0.8-17.4c2.9-2.2,7.9-2.7,12.6-1.6c1.1,0.1,2.3,0.3,3.4,0.4c3.8,1,7.8,1.2,11.4,2.4c8.1,2.6,15.7,5,22.8,8.7
	c2.9,1.5,5.7,3.2,9.1,4.2c1.4,0.4,3.9,0.3,5.2-0.1c2.8-0.9,5-3,6.6-5.1c1.1-1.4,2.4-2.8,3.4-4.2c1.7-2.4,3.1-4.9,4.6-7.5
	c2.3-3.8,4.3-7.8,5.9-12.3c0.4-1.2,1.4-3.8,0.9-5.7c-0.5-2.1-1.5-3.5-3.1-4.5c-3.4-2.1-13.2-1.4-18.8-1.4c-14.5,0-29,0-43.5,0
	c-6.5,0-15.1,0.9-19.3-1.7c-4.6-2.9-5.7-13.4-2-18.3c1.3-1.8,3.6-2.6,6.1-3.2C366.1,71.6,368.1,71.9,368.7,71.5z M535.6,71.5
	c97,0,193.9,0,290.9,0c24.1,0,48.1,0,72.2,0c4.7,0,9.4,0,14.1,0c5.4,0,10.2,0.1,12.9,2.8c3.2,3.2,2.8,10,2.8,16.4
	c0,12.4,0,24.9,0,37.3c0,51.3,0,102.6,0,153.8c0,34,0,68,0,102c0,8.8,0,17.5,0,26.3c0,5.1,0.3,10.5-1.7,13.7
	c-3.2,5.1-12,4.2-20.3,4.2c-17.5,0-35,0-52.5,0c-74.5,0-149.1,0-223.7,0c-18.4,0-36.8,0-55.2,0c-3.6,0-7.1,0-10.7,0
	c-1.7,0-3.9-0.2-5.4,0.1c-0.5,0-1,0-1.5,0c-2,0.4-3.9,0.5-5.3,1.4c-2.2,1.4-3.5,3.4-4.2,6.2c-0.2,0.8,0,1.4-0.2,2.2
	c-0.2,0.9-0.3,2.9-0.1,4c0.7,3.2,1.1,6,3.3,7.7c4.5,3.3,15.1,2.3,23,2.3c18.7,0,37.4,0,56,0c77.8,0,155.7,0,233.5,0c14,0,28,0,42,0
	c6.4,0,14.7-0.8,18.7,1.7c4.9,3,5.8,15.1,1.4,19.5c-2.7,2.7-7.5,2.8-12.9,2.8c-5.7,0-11.4,0-17.1,0c-27.3,0-54.6,0-81.9,0
	c-71.2,0-142.3,0-213.5,0c-17.5,0-35.1,0-52.6,0c-7.5,0-17.1,1-20.9-2.8c-3.2-3.2-2.8-10-2.8-16.5c0-9.9,0-19.8,0-29.6
	c0-2.4,0-4.8,0-7.3c0-1.2-0.1-2.6,0.1-3.6c0-0.6,0-1.1,0-1.7c0.2-0.8,0.2-1.8,0.4-2.6c0.7-2.4,1.8-4.5,3.7-5.6
	c3.6-2.2,10.4-1.7,16.1-1.7c11.3,0,22.6,0,33.9,0c56.6,0,113.2,0,169.7,0c13.3,0,26.5,0,39.8,0c6.8,0,14.3,0.6,18.2-2.3
	c1.6-1.1,2.5-3.3,3-5.4c0.2-0.8,0-1.4,0.2-2.2c0.2-0.9,0.3-2.9,0.1-4c-0.8-3.9-1.2-6.3-4-8.2c-3.5-2.3-10.1-1.8-15.8-1.8
	c-11.3,0-22.5,0-33.8,0c-56.1,0-112.3,0-168.4,0c-13.6,0-27.3,0-40.9,0c-6.3,0-14.2,0.7-18.1-1.7c-2.2-1.4-3.2-3.7-3.9-6.7
	c-0.3-1.1,0.1-2.1-0.2-3.3c-0.2-1-0.1-2.5-0.1-3.7c0-2.5,0-5,0-7.5c0-9.7,0-19.4,0-29.1c0-6.4-0.4-13.1,2.8-16.3
	c3.2-3.2,9.7-2.8,16-2.8c11.9,0,23.7,0,35.6,0c49.1,0,98.3,0,147.5,0c18.7,0,37.4,0,56.1,0c3.4,0,6.9,0,10.3,0c5,0,10,0.2,13-1.8
	c2.8-1.9,4-5.3,4-10.1c0-1-0.1-2.1-0.1-3.1c-0.7-3.2-1.6-5.6-3.9-7.2c-3.5-2.3-10.1-1.8-15.8-1.8c-11.3,0-22.5,0-33.8,0
	c-56.2,0-112.5,0-168.7,0c-14.4,0-28.8,0-43.1,0c-9.4,0-16.8,0.7-19.2-6.6c-1.3-3.9-0.7-10.5-0.7-15.4c0-10,0-20,0-30
	c0-6.4-0.4-13.1,2.8-16.3c3.2-3.2,9.7-2.8,16.1-2.8c12.1,0,24.1,0,36.2,0c50,0,99.9,0,149.9,0c18,0,36.1,0,54.1,0
	c7.9,0,18.3,1,22.9-2.3c2.5-1.8,3.3-5.5,3.3-9.8c0-1-0.1-1.9-0.1-2.9c-0.6-2.7-1.3-5.3-3.2-6.7c-4.2-3.1-12.9-2.3-20.2-2.3
	c-13.6,0-27.3,0-40.9,0c-54.8,0-109.6,0-164.4,0c-12.6,0-25.3,0-37.9,0c-7.2,0-13.8,0.3-16.7-3.9c-2.4-3.4-1.9-9.9-1.9-15.6
	c0-11.3,0-22.6,0-34c0-6.5-0.2-12.7,3.5-15.4c3.8-2.8,11.2-2.2,17.7-2.2c13.2,0,26.3,0,39.5,0c51.6,0,103.3,0,154.9,0
	c15.4,0,30.7,0,46.1,0c7.3,0,16,0.8,20.3-2.3c1.6-1.1,2.5-3.3,3-5.4c0.2-0.8,0-1.4,0.2-2.2c0.2-0.9,0.3-2.9,0.1-4
	c-0.8-3.9-1.2-6.3-4-8.2c-3.8-2.5-11.7-1.8-17.9-1.8c-13.5,0-26.9,0-40.4,0c-51,0-102,0-153,0c-14.6,0-29.2,0-43.8,0
	c-3.2,0-6.4,0-9.6,0c-1.5,0-3.5,0.2-4.8-0.1c-0.6,0-1.1,0-1.7,0c-1.5-0.3-3.1-0.4-4.3-0.9c-2.4-1-4.1-3-4.9-5.5
	c-1.5-4.7-0.5-11.6,2.1-14.2c1.4-1.4,3.3-2,5.5-2.5C533,71.6,535,71.9,535.6,71.5z M81.6,71.6c4.6,0,8.4,0.4,10.7,2.7
	c3.6,3.6,2.8,12.2,2.8,19.5c0,16,0,32,0,48c0,6.8-0.9,16.7,1.8,20.8c1.6,2.3,3.9,3.2,7.2,3.9c1.3,0.3,3.7,0.3,5,0
	c0.8-0.2,1.4,0,2.2-0.2c1.6-0.4,3.1-1,4.3-1.9c4.5-3.3,3.4-13,3.4-20.7c0-17,0-34.1,0-51.1c0-9.1-0.9-17.3,5.6-20.1
	c1.3-0.6,2.9-0.6,4.4-0.9c1.6-0.4,4.5,0.1,5.6,0.4c2.8,0.7,4.8,1.6,6.1,3.7c2.5,4,1.7,12.9,1.7,19.4c0,15.8,0,31.5,0,47.3
	c0,6.6-0.9,16.1,1.8,20.2c1.9,2.8,4.3,3.2,8.2,4c1.1,0.2,3.1,0.1,4-0.1c0.8-0.2,1.4,0,2.2-0.2c2.6-0.7,4.7-1.8,5.9-3.7
	c2.7-4.1,1.8-13.9,1.8-20.7c0-16.2,0-32.3,0-48.5c0-6.1-0.7-13.8,1.7-17.6c1.3-2.2,3.3-3,6.1-3.7c1.2-0.3,4-0.8,5.6-0.4
	c1.5,0.3,3.1,0.4,4.4,0.9c2.1,0.9,3.8,2.6,4.6,4.6c0.5,1.3,0.6,2.9,0.9,4.3c0,0.6,0,1.1,0,1.7c0.3,1.4,0.1,3.4,0.1,4.9
	c0,3.3,0,6.5,0,9.8c0,21.6,0,43.3,0,64.9c0,4.1,0,8.1,0,12.2c0,3.1,0.1,6.2-0.7,8.7c-0.4,1.4-1.2,2.8-2.1,3.7
	c-2.8,2.8-8,2.8-13.6,2.8c-5.1,0-10.2,0-15.3,0c-3.9,0-7.7,0-10.4,1.1c-2.7,1.2-4.2,3.6-5,6.7c-0.4,1.4-0.6,4.6-0.2,6.2
	c0.3,1.3,0.1,2.3,0.5,3.4c1.1,3.4,3.5,5.2,7.1,6.1c2.4,0.6,5.4,0.4,8.3,0.4c4.7,0,9.3,0,14,0c8.1,0,14.1-0.1,16.5,5.6
	c1.7,4,1,13.1,1,18.7c0,13.2,0,26.5,0,39.7c0,46.1,0,92.3,0,138.4c0,13.3,0,26.6,0,39.9c0,9.3,0.6,16.4-6.6,18.7
	c-1.1,0.4-2.4,0.4-3.6,0.6c-1.4,0.2-3.2,0-4.3-0.2c-2.8-0.6-4.5-0.8-6.2-2.5c-3.4-3.4-2.8-10.6-2.8-17.3c0-7.4,0-14.7,0-22.1
	c0-48.2,0-96.4,0-144.6c0-10.7,0-21.3,0-32c0-6.3,0.3-12.4-2.3-16c-1.1-1.6-3.3-2.5-5.4-3c-0.8-0.2-1.4,0-2.2-0.2
	c-0.9-0.2-2.9-0.3-4-0.1c-3.9,0.8-6.3,1.2-8.2,4c-2.3,3.5-1.8,9.9-1.8,15.6c0,11.1,0,22.2,0,33.4c0,46.6,0,93.1,0,139.7
	c0,9.1,0,18.2,0,27.3c0,5.2,0.3,10.7-1.7,13.9c-1.9,3-4.4,3.3-8.4,4.1c-0.9,0.2-2.6,0.1-3.4-0.1c-0.6,0-1.1-0.1-1.7-0.1
	c-2.2-0.5-4.2-1.2-5.5-2.5c-3.1-3.1-2.8-9.1-2.8-15.2c0-10.8,0-21.6,0-32.4c0-49.5,0-99,0-148.5c0-7.4,0-14.8,0-22.2
	c0-5.6,0-10.6-2.3-13.8c-2.2-3-7.2-3.6-12.4-3.2c-2.3,0.2-4.4,1-5.8,2.1c-3.5,2.5-3.4,8.4-3.4,14.5c0,10.4,0,20.8,0,31.2
	c0,45.4,0,90.9,0,136.3c0,11.4,0,22.8,0,34.2c0,5.8,0.5,12.4-1.9,15.8c-1.9,2.8-4.3,3-8.2,3.8c-1.6,0.4-4.5-0.1-5.6-0.4
	c-2.8-0.7-4.8-1.6-6.1-3.7c-1.7-2.8-1.7-7.2-1.7-11.7c0-6.1,0-12.2,0-18.3c0-38.7,0-77.4,0-116.1c0-25.5,0-50.9,0-76.4
	c0-6.4,0-12.7,0-19.1c0-4.5,0-9,1.7-11.8c2.4-3.9,7.6-4.2,13.9-4.2c5.2,0,10.5,0,15.7,0c3.4,0,7,0.2,9.7-0.7
	c3.4-1.1,5.2-3.5,6.1-7.1c0.2-0.8,0-1.4,0.2-2.2c0.3-1.6,0.2-4.8-0.2-6.2c-0.8-3.1-2.3-5.5-5-6.7c-2.8-1.2-6.7-1.1-10.7-1.1
	c-5.2,0-10.5,0-15.7,0c-3.7,0-7.4,0.1-10.1-1c-2.7-1.1-4.3-3.3-5.1-6.4c-0.8-2.9-0.5-6.7-0.5-10.2c0-5.9,0-11.9,0-17.8
	c0-18.5,0-37.1,0-55.6c0-3.5,0-7.1,0-10.6c0-1.7-0.2-3.9,0.1-5.4c0-0.6,0-1.1,0-1.7c0.5-2.2,0.6-4.2,1.6-5.7c1-1.6,2.8-2.9,4.8-3.5
	C78.8,72,81.1,71.9,81.6,71.6z M224.3,71.6c6.4-0.1,10.6,1.1,12.5,5.5c1.2,2.8,1,6.8,1,10.6c0,5.1,0,10.3,0,15.4
	c0,3.9-0.1,7.7,1.1,10.5c1.2,2.7,3.6,4.2,6.7,5c1.4,0.4,4.6,0.6,6.2,0.2c1.3-0.3,2.3-0.1,3.4-0.5c3.4-1.1,5.2-3.5,6.1-7.1
	c0.6-2.4,0.4-5.5,0.4-8.4c0-5.2,0-10.5,0-15.7c0-3.7-0.1-7.4,1-10.1c1-2.4,3-4.1,5.5-4.9c1.4-0.4,3-0.6,4.7-0.6
	c5,0,8.7,1.1,10.6,4.1c1.7,2.7,1.7,7,1.7,11.4c0,5.2,0,10.5,0,15.7c0,3.4-0.2,7,0.7,9.7c1,2.9,2.9,4.9,5.8,5.8
	c1.1,0.4,2.3,0.4,3.4,0.6c1.5,0.3,4.5,0,5.6-0.3c3.6-0.9,5.9-1.9,7.3-5c1.2-2.8,1.1-6.7,1.1-10.6c0-5.3,0-10.6,0-15.8
	c0-3.7-0.1-7.4,1-10.1c1-2.4,3-4.1,5.5-4.9c4.7-1.5,11.6-0.5,14.2,2.1c3.3,3.3,2.8,10.6,2.8,17.2c0,11,0,21.9,0,32.9
	c0,8.3,0.3,14.7-5.6,17.2c-2.6,1.1-6.4,1-10.1,1c-5.3,0-10.5,0-15.8,0c-3.9,0-7.8-0.1-10.6,1.1c-2.3,1-3.9,3-4.7,5.4
	c-0.4,1.1-0.4,2.3-0.6,3.4c-0.3,1.5,0,4.5,0.3,5.6c0.9,3.6,1.9,5.9,5,7.3c2.8,1.2,6.7,1.1,10.6,1.1c5.3,0,10.6,0,15.8,0
	c3.7,0,7.4-0.1,10.1,1c2.4,1,4.1,3,4.9,5.5c1.5,4.7,0.5,11.6-2.1,14.2c-0.9,0.9-2.4,1.7-3.7,2.1c-2.4,0.8-5.5,0.7-8.6,0.7
	c-4,0-8,0-12,0c-21.2,0-42.5,0-63.7,0c-4.2,0-8.4,0-12.6,0c-3.1,0-6.3,0.1-8.8-0.7c-1.7-0.5-3.4-1.5-4.3-2.8
	c-2.2-2.9-3-10.2-1.2-14.4c0.9-2.1,2.6-3.8,4.6-4.6c2.6-1.1,6.4-1,10.1-1c5.3,0,10.6,0,15.8,0c3.9,0,7.8,0.1,10.6-1.1
	c2.3-1,3.9-3,4.7-5.4c0.4-1.1,0.4-2.3,0.6-3.4c0.3-1.5,0-4.5-0.3-5.6c-0.9-3.6-1.9-5.9-5-7.3c-2.8-1.2-6.7-1.1-10.6-1.1
	c-5.3,0-10.5,0-15.8,0c-4.4,0-8.8,0-11.5-1.7c-4.3-2.7-4.2-8.8-4.2-15.8c0-10.9,0-21.8,0-32.8c0-5-0.5-11.6,1-15.2
	c1-2.4,3-4.1,5.5-4.9C221.5,72,223.8,71.9,224.3,71.6z M844.4,95.1c-0.4,0.2-1,0-1.5,0.1c-1.1,0.2-2.4,0.3-3.4,0.6
	c-3.4,1.1-5.2,3.5-6.1,7.1c-0.6,2.5-0.4,5.6-0.4,8.6c0,5.2,0,10.4,0,15.6c0,3.6,0.1,7.4-1,10c-1.1,2.7-3.3,4.3-6.3,5.1
	c-2.4,0.7-5.5,0.5-8.5,0.5c-4.5,0-9.1,0-13.6,0c-15.1,0-30.2,0-45.3,0c-49,0-98.1,0-147.2,0c-13.8,0-27.6,0-41.4,0
	c-7,0-14.7-0.6-18.7,2.3c-2.2,1.6-4.2,7.3-3.2,11.7c0.2,0.8,0,1.4,0.2,2.2c0.8,3.1,2.3,5.5,5,6.7c4,1.7,10.8,1.1,16.4,1.1
	c16.3,0,32.7,0,49,0c52.3,0,104.7,0,157,0c12.7,0,25.4,0,38.1,0c6.5,0,13.4-0.4,16.6,2.8c3.2,3.2,2.8,9.7,2.8,16.1
	c0,10.4,0,20.8,0,31.1c0,5.1,0.5,11.8-1,15.4c-2.5,6-9.2,5.6-17.6,5.6c-12.2,0-24.3,0-36.5,0c-56.3,0-112.6,0-168.9,0
	c-13.2,0-26.5,0-39.7,0c-6.8,0-14.3-0.6-18.2,2.3c-2.2,1.6-4.2,7.3-3.2,11.7c0.2,0.8,0,1.4,0.2,2.2c0.8,3.1,2.3,5.5,5,6.7
	c4.1,1.7,11.1,1.1,16.8,1.1c17.3,0,34.5,0,51.8,0c51.5,0,103.1,0,154.6,0c12.5,0,24.9,0,37.4,0c6.5,0,13.3-0.4,16.5,2.8
	c3.2,3.2,2.8,9.7,2.8,16.1c0,9.5,0,19,0,28.5c0,3,0,6,0,9c0,1.6-0.1,3.2-0.1,4.7c-0.8,3.7-1.2,6.2-3.8,8.1c-3.5,2.4-10.2,1.9-16,1.9
	c-11.6,0-23.2,0-34.8,0c-57.2,0-114.4,0-171.6,0c-12.6,0-25.3,0-37.9,0c-6,0-13.3-0.6-17,1.8c-4.7,3.1-5.5,13.7-1.8,18.7
	c2.3,3.2,7.5,3.4,13.1,3.4c6.2,0,12.5,0,18.7,0c30.7,0,61.4,0,92.1,0c37.1,0,74.3,0,111.4,0c9.7,0,19.4,0,29,0
	c5.3,0,11.2-0.4,14.5,1.7c4.1,2.6,4.2,8.3,4.2,15c0,5,0,10,0,15c0,3.9,0,7.7,1.1,10.4c0.9,2.2,2.9,3.7,5.1,4.6
	c3.5,1.4,11.4,0.8,16.2,0.8c9.8,0,19.7,0,29.5,0c9.4,0,16,0.6,18.7-6.2c0.9-2.3,0.8-5.4,0.8-8.5c0-4.3,0-8.5,0-12.8
	c0-15.5,0-30.9,0-46.4c0-53.3,0-106.6,0-159.9c0-16.9,0-33.7,0-50.6c0-7.6,0.9-17.2-2.3-21.7c-2.8-3.9-10-3.4-16.7-3.4
	C871.7,95.1,858.1,95.1,844.4,95.1z M867,119.2c5.1,0,9.2,0.6,11.3,3.4c2.5,3.3,2.2,9.2,2.2,15c0,9.9,0,19.9,0,29.8
	c0,51.9,0,103.8,0,155.6c0,12.3,0,24.6,0,36.9c0,6,0.6,13.1-1.9,16.6c-1.9,2.8-4.3,3-8.2,3.8c-0.9,0.2-2.6,0.1-3.4-0.1
	c-0.6,0-1.1-0.1-1.7-0.1c-2.6-0.6-4.8-1.4-6.1-3.2c-2.7-3.7-2.2-10.7-2.2-17c0-12.3,0-24.6,0-36.9c0-49.7,0-99.5,0-149.2
	c0-11.5,0-23,0-34.5c0-5.8-0.5-12.5,1.7-16.1c1-1.6,2.8-2.9,4.8-3.5C864.2,119.6,866.4,119.5,867,119.2z M225.9,214.2
	c25.3,0,50.7,0,76,0c5.1,0,10.2,0,15.3,0c5.4,0,10.2,0.1,12.9,2.8c3.1,3.1,2.8,9.4,2.8,15.6c0,11.4,0,22.8,0,34.2
	c0,6.3,0.3,12.6-2.8,15.7c-1.5,1.5-3.7,2-6.2,2.6c-1.2,0.3-2.4,0.1-3.5,0.3c-0.4,0-0.9,0-1.3,0c-1.1,0.2-2.3,0.3-3.3,0.6
	c-3.4,1.1-5.2,3.5-6.1,7.1c-0.4,1.4-0.3,3-0.3,4.6c0,5.8,2.1,9.4,6.5,10.9c2.6,0.9,6,0.3,8.9,1c2.8,0.7,5,1.6,6.5,3.6
	c2.5,3.5,1.9,10.4,1.9,16.3c0,9.2,0,18.4,0,27.6c0,2.9,0,5.8,0,8.8c0,1.5-0.1,3-0.1,4.5c-0.2,1.1-0.4,2.3-0.6,3.4
	c-0.8,2.6-2.5,4.5-4.9,5.5c-2.9,1.2-7.1,0.5-10.4,1.4c-3.6,0.9-5.9,2.7-7.1,6.1c-1.5,4.6-0.6,11.8,1.9,14.3c1.3,1.3,3,2.2,5.1,2.7
	c1.9,0.5,4,0.1,6,0.5c3.4,0.7,6.1,1.1,7.8,3.4c2.7,3.6,2.2,10.6,2.2,16.9c0,11,0,21.9,0,32.9c0,8.3,0.3,14.7-5.6,17.2
	c-4,1.7-11.6,1-17,1c-6.8,0-16.7,0.9-20.8-1.9c-1.5-1-2.6-2.8-3.2-4.6c-0.3-0.9-0.2-1.6-0.4-2.5c-0.2-1-0.5-3.7-0.2-4.9
	c0.7-3.4,1.1-6.1,3.4-7.8c4.1-3,12-1.3,16.1-4c1.2-0.8,2.4-2.2,3-3.6c1.4-3.3,1.4-9.8,0-13.1c-1.4-3.2-4.1-4.4-7.9-5.2
	c-0.8,0-1.7-0.1-2.5-0.1c-1-0.2-2.5-0.1-3.7-0.1c-2.5,0-5,0-7.5,0c-9.2,0-18.5,0-27.7,0c-5.5,0-13.1-0.6-16.5,1.5
	c-2.6,1.6-3.6,3.9-4.4,7.5c-0.3,1.3-0.3,3.7,0,5c0.3,1.3,0.1,2.3,0.5,3.4c1.1,3.4,3.5,5.2,7.1,6.1c3.3,0.9,7.5,0.2,10.4,1.4
	c2.4,1,4.1,3,4.9,5.5c0.2,1.1,0.4,2.3,0.6,3.4c0.3,1.3,0,3.9-0.2,4.9c-0.2,0.9-0.1,1.7-0.4,2.5c-0.6,2-1.9,3.8-3.5,4.8
	c-4.1,2.6-14.9,1.7-21.7,1.7c-7,0-15.1,0.7-18.6-2.8c-3.2-3.2-2.8-9.6-2.8-15.9c0-11,0-21.9,0-32.9c0-5.7-0.5-12.2,1.7-15.7
	c1.4-2.2,3.7-3.2,6.7-3.9c2.9-0.7,6.3-0.2,8.9-1c2.9-1,4.9-2.9,5.8-5.8c0.5-1.4,0.6-3.1,0.6-4.8c0-6.4-1.6-10.3-6.5-11.9
	c-2.6-0.9-6-0.3-8.9-1c-2.8-0.7-5-1.6-6.5-3.6c-2.5-3.6-1.9-10.6-1.9-16.5c0-9.5,0-19.1,0-28.6c0-4.5-0.5-11,0.5-14.7
	c0.9-3.4,2.8-5.6,6-6.7c3.6-1.2,8.6-0.4,11.8-1.8c2.3-1,3.9-3,4.7-5.4c0.4-1.1,0.4-2.3,0.6-3.4c0.2-1.1,0.1-3.1-0.1-4
	c-0.3-1.3-0.1-2.3-0.5-3.4c-1.1-3.4-3.5-5.2-7.1-6.1c-1.9-0.5-4-0.1-6-0.5c-3.4-0.7-6.1-1.1-7.8-3.4c-2.5-3.4-2.2-9.6-2.2-15.6
	c0-10.7,0-21.4,0-32.1c0-5.7-0.5-12.2,1.7-15.7c1.3-2.1,3.5-3.1,6.1-3.8C222.9,214.5,225.5,214.5,225.9,214.2z M368.7,214.2
	c12.8,0,25.7,0,38.5,0c6.5,0,13.7-0.5,17.4,2.2c3.1,2.3,4.5,9.7,2.8,14.8c-2.5,7.6-10.7,6.6-20.5,6.6c-10.4,0-20.8,0-31.1,0
	c-5.5,0-11.6,0.4-14.9-1.9c-1.2-0.8-2.3-2.3-2.9-3.7c-1.6-3.9-1.1-11.1,0.9-14c1.4-2,3.6-2.9,6.5-3.6
	C366.1,214.4,368.1,214.6,368.7,214.2z M249.3,237.8c-1.2,0.1-2.5,0.3-3.7,0.4c-2.6,0.7-4.7,1.8-5.9,3.7c-2.1,3.1-2.4,10.5-0.7,14.4
	c0.6,1.4,1.8,2.8,3,3.6c3.3,2.2,9.4,1.8,14.9,1.8c10.3,0,20.7,0,31,0c9.9,0,18.3,1.1,20.8-6.6c1.7-5.1,0.4-12.9-2.7-15.1
	c-3.9-2.8-11.2-2.3-17.9-2.3C275.1,237.8,262.2,237.8,249.3,237.8z M271.6,285.5c-0.5,0.3-2.7,0.4-3.4,0.6c-2.4,0.8-4.5,2.5-5.4,4.7
	c-1.2,2.8-1.1,6.7-1.1,10.6c0,5.3,0,10.6,0,15.8c0,3.7,0.1,7.4-1,10.1c-1,2.4-3,4.1-5.5,4.9c-3.6,1.2-8.6,0.4-11.8,1.8
	c-4.1,1.7-5.3,5.7-5.3,11.6c0,1.7,0.1,3.3,0.6,4.7c1,2.9,2.9,4.9,5.8,5.8c2.6,0.9,6,0.3,8.9,1c3.6,0.9,6,2.2,7.4,5.3
	c1.1,2.6,1,6.4,1,10.1c0,5.3,0,10.6,0,15.8c0,3.9-0.1,7.8,1.1,10.6c1.3,3.1,3.6,4.2,7.3,5c1.2,0.3,4.1,0.6,5.6,0.3
	c1.1-0.2,2.4-0.3,3.4-0.6c2.4-0.8,4.5-2.5,5.4-4.7c1.2-2.8,1.1-6.7,1.1-10.6c0-5.3,0-10.6,0-15.8c0-3.7-0.1-7.4,1-10.1
	c1.3-3.1,3.8-4.5,7.4-5.3c2.9-0.7,6.3-0.1,8.9-1c4.4-1.5,6.5-5.1,6.5-11c0-1.6,0.1-3.2-0.3-4.5c-0.9-3.6-2.7-5.9-6.1-7.1
	c-2.6-0.9-6-0.3-8.9-1c-3.6-0.9-6-2.2-7.4-5.3c-1.1-2.7-1-6.5-1-10.2c0-5.4,0-10.8,0-16.1c0-4.5,0-8.8-1.8-11.5
	C281.5,286.1,277.4,285.5,271.6,285.5z M225.9,523.9c20.6,0,41.2,0,61.8,0c6,0,13.4-0.7,17.2,1.7c2.2,1.3,3,3.3,3.7,6.1
	c0.3,1.2,0.8,4,0.4,5.6c-0.1,0.9-0.3,1.8-0.4,2.7c-0.7,2.4-1.8,4.5-3.7,5.6c-3.5,2.2-9.8,1.7-15.3,1.7c-10.5,0-21.1,0-31.6,0
	c-4.3,0-10.8-0.4-13.9,0.8c-2.3,0.9-4.2,2.4-5.1,4.6c-1.6,3.9-1.4,11.3,0.7,14.4c3.3,5,11.7,4.1,20,4.1c16.9,0,33.9,0,50.8,0
	c8.5,0,17.5,1,21-4.1c1.8-2.7,1.8-6.9,1.8-11.4c0-5.4,0-10.8,0-16.2c0-3.7-0.1-7.5,1-10.2c1.3-3.1,3.8-4.5,7.4-5.3
	c1.2-0.3,3.9-0.4,5.1-0.1c0.6,0,1.1,0.1,1.7,0.1c2.8,0.7,5,1.6,6.5,3.6c1.8,2.6,1.9,6.9,1.9,11.3c0,5.2,0,10.5,0,15.7
	c0,6,0,11.8,3.4,14.3c4.4,3.2,13.9,2.3,21.5,2.3c16.5,0,33.1,0,49.6,0c9.7,0,17.7,0.9,20.2-6.6c1.7-5.1,0.4-12.9-2.7-15.1
	c-3.6-2.6-9.9-2.3-16.2-2.3c-10.9,0-21.8,0-32.8,0c-5.4,0-11.4,0.4-14.7-1.7c-3.2-2-4.2-6-4.1-11.3c0-1.4,0.2-2.9,0.6-4
	c2.5-7.6,10.7-6.6,20.5-6.6c17.1,0,34.2,0,51.3,0c9.6,0,19-1.3,21.9,5.6c1.1,2.5,1,6.1,1,9.7c0,4.7,0,9.5,0,14.2
	c0,8.2-0.2,16.2-0.4,24c-0.1,6.1,0.2,11.8-2.8,14.8c-3.6,3.6-11.9,2.8-19,2.8c-15.6,0-31.1,0-46.7,0c-10.4,0-20.8,0-31.1,0
	c-6.2,0-12.3-0.3-15.8,2.3c-1.6,1.1-2.5,3.3-3,5.4c-0.2,0.8,0,1.4-0.2,2.2c-0.2,0.9-0.3,2.9-0.1,4c0.8,3.9,1.2,6.3,4,8.2
	c2.6,1.7,6.7,1.8,11.1,1.8c5,0,10.1,0,15.1,0c19.8,0,39.6,0,59.4,0c3.9,0,7.7,0,11.6,0c1.8,0,4.2-0.3,5.8,0.1c0.6,0,1.1,0,1.7,0
	c1.9,0.4,3.9,0.5,5.3,1.4c1.7,1,3,2.7,3.6,4.7c0.4,1.4,0.7,4,0.3,5.6c0,0.7-0.1,1.5-0.1,2.2c-0.5,2.4-0.6,5-1.2,7.3
	c-0.4,1.7-0.4,3.3-0.9,4.9c-1.3,4.2-1.9,8.5-3.5,12.4c-1.2,2.8-2.1,5.8-3.3,8.6c-3.1,7-6.7,13.7-10.9,19.7c-2.7,3.9-6,7.3-8.3,11.6
	c-0.6,1.1-1.8,3.5-1.3,5.4c1,4.6,3.5,7.1,5.8,10.3c2.4,3.3,4.8,6.8,7.1,10.3c4.8,7.6,8.6,16.3,11.7,25.5c0.9,2.6,1.3,5.1,2.1,7.9
	c0.9,3.1,1.3,6.6,2.1,10c0.2,1.4,0.3,2.9,0.5,4.3c0.6,2.6,0.5,6.6-0.4,8.8c-2.4,5.7-8.8,5.3-16.7,5.3c-11.9,0-23.8,0-35.7,0
	c-46.3,0-92.6,0-138.9,0c-9.1,0-18.1,0-27.2,0c-5.2,0-10.7-0.3-13.8,1.8c-2.8,1.9-3.2,4.3-4,8.2c-0.2,1.1-0.1,3.1,0.1,4
	c0.2,0.8,0,1.4,0.2,2.2c0.6,2.1,1.5,4.3,3,5.4c3.6,2.6,9.9,2.3,16.2,2.3c10.8,0,21.6,0,32.5,0c46.2,0,92.3,0,138.5,0
	c10.1,0,20.3,0,30.4,0c6.9,0,12.9,0,15.5,4.2c2.2,3.6,1.7,10.1,1.7,15.8c0,11.1,0,22.1,0,33.2c0,6.6,0.2,12.9-3.5,15.7
	c-3.4,2.5-9.5,2.2-15.5,2.2c-10.5,0-21,0-31.5,0c-42,0-83.9,0-125.9,0c-13.3,0-26.7,0-40,0c-6.9,0-14.4-0.6-18.3,2.3
	c-1.6,1.1-2.5,3.3-3,5.4c-0.2,0.8,0,1.4-0.2,2.2c-0.2,0.9-0.3,2.9-0.1,4c0.8,3.9,1.2,6.3,4,8.2c3.2,2.1,9,1.8,14.3,1.8
	c9.7,0,19.4,0,29.1,0c49,0,98.1,0,147.2,0c8.7,0,17.3,0,26,0c5.5,0,10.9-0.1,14,2.2c5.1,3.8,4.4,16.9-0.7,20.1
	c-3.8,2.4-11.1,1.7-17.1,1.7c-12.5,0-25,0-37.5,0c-47.3,0-94.5,0-141.8,0c-13.6,0-27.3,0-40.9,0c-6.7,0-14.1,0.5-17.4-2.8
	c-3.2-3.2-2.8-9.9-2.8-16.3c0-9.7,0-19.4,0-29c0-2.6,0-5.2,0-7.8c0-1.3-0.1-2.8,0.1-3.9c0-0.9,0.1-1.7,0.1-2.6
	c0.8-3.3,1.6-5.8,4-7.4c3.2-2,8.7-1.7,13.9-1.7c9,0,18.1,0,27.1,0c46.6,0,93.3,0,139.9,0c11,0,22,0,33.1,0c5.7,0,12.1,0.5,15.5-1.8
	c2.3-1.6,3.2-3.9,3.9-7.2c0.3-1.3,0.3-3.7,0-5c-0.2-0.8,0-1.4-0.2-2.2c-0.4-1.6-1-3.1-1.9-4.3c-3.1-4.3-12.1-3.4-19.6-3.4
	c-9.8,0-19.7,0-29.5,0c-47,0-93.9,0-140.9,0c-8.4,0-16.9,0-25.3,0c-5.7,0-12.4,0.5-16-1.7c-1.9-1.2-3.1-3.2-3.7-5.6
	c-0.2-0.8-0.2-1.8-0.4-2.6c0-0.6,0-1.1,0-1.7c-0.2-1-0.1-2.5-0.1-3.7c0-2.4,0-4.8,0-7.3c0-10,0-20,0-30c0-6.7-0.3-13.4,3.5-16.2
	c3.2-2.4,8.7-2.2,14.4-2.2c9.2,0,18.4,0,27.6,0c37.1,0,74.3,0,111.4,0c19.2,0,38.5,0,57.8,0c6.3,0,13.1,0.5,15.7-3.1
	c0.8-1.1,1.8-2.9,1.3-5.1c-2.2-9.8-7.8-17.9-12.9-24.9c-2.3-3.2-5-6.7-9.4-7.9c-1.5-0.4-3.6-0.1-4.7,0.3c-3.1,1-5.5,2.3-8.2,3.7
	c-5.5,2.9-11.6,5.3-17.8,7.4c-2.9,1-5.9,1.5-8.8,2.4c-1.9,0.6-3.8,0.6-5.8,1.1c-1.8,0.5-3.8,0.4-5.7,0.9c-1.7,0.4-3.7,0.3-5.4,0.7
	c-0.4,0-0.9,0-1.3,0c-1,0.2-2.4,0.2-3.4,0.3c-0.7,0-1.3,0-2,0c-1.2,0.3-2.9-0.2-4.2,0.1c-1.1,0.2-2.7,0.1-3.9,0.1
	c-2.6,0-5.2,0-7.8,0c-17.2,0-34.3,0-51.5,0c-18.7,0-37.4,0-56.1,0c-5.4,0-13,0.6-16.9-1c-2.7-1.1-4.3-3.3-5.1-6.4
	c-0.3-1.2-0.4-2.5-0.4-3.9c0-5,1.1-8.7,4.1-10.6c2.7-1.7,7.1-1.7,11.5-1.7c5.9,0,11.8,0,17.6,0c23.9,0,47.8,0,71.7,0
	c7.9,0,15.9,0,23.8,0c4.5,0,9.3,0.1,13.7-0.1c2.4-0.1,4.8,0.2,6.9-0.3c0.4,0,0.9,0,1.3,0c3-0.7,6.2-0.5,9.2-1.2
	c5.2-1.3,10.4-2.3,14.8-4.2c2.4-1.1,4.7-2,5.8-4.3c0.5-1.1,0.7-2.7,0-3.8c-1.6-2.6-4.4-3.5-7.4-4.7c-4-1.7-8.7-2.5-13.3-3.6
	c-2.4-0.3-4.7-0.7-7.1-1c-1.7-0.4-3.4-0.1-5-0.4c-0.7,0-1.4,0-2.1,0c-0.9-0.2-2.4,0.1-3.4-0.1c-2.1-0.5-5.4-0.1-7.8-0.1
	c-7.4,0-14.7,0-22.1,0c-23.3,0-46.6,0-69.9,0c-7.6,0-15.2,0-22.8,0c-6.6,0-13.5,0.5-16.8-2.8c-1.3-1.3-1.8-2.9-2.3-5
	c-0.3-1.2-0.8-4-0.4-5.6c0.8-3.9,1-6.2,3.8-8.2c4.1-2.8,15.6-1.9,22.6-1.9c17.9,0,35.9,0,53.8,0c16.7,0,33.3,0,50,0
	c2.6,0,5.2,0,7.8,0c1.2,0,2.8-0.1,3.8,0.1c1.3,0.3,3-0.2,4.2,0.1c0.7,0,1.3,0,2,0c1,0.1,2.5,0.1,3.4,0.3c0.4,0,0.9,0,1.3,0
	c1.7,0.4,3.8,0.3,5.4,0.7c2,0.5,3.9,0.4,5.7,0.9c2.3,0.6,4.5,0.6,6.7,1.3c2.7,0.8,5.6,1.4,8.3,2.3c6.2,2.1,12.2,4.5,17.7,7.4
	c2.6,1.3,4.9,2.6,8,3.6c1.1,0.4,3.3,0.7,4.7,0.3c4-1.1,6.5-4,8.7-7c3.8-5.2,7.5-10.5,10.3-16.7c1.1-2.5,2.4-4.9,3.1-7.8
	c1-3.9-0.7-6.8-2.9-8.2c-3.1-1.9-10-1.4-15-1.4c-11.1,0-22.2,0-33.4,0c-40.8,0-81.7,0-122.6,0c-11.7,0-23.4,0-35.1,0
	c-5.4,0-13,0.6-16.9-1c-2.7-1.1-4.3-3.3-5.1-6.4c-0.3-0.9-0.1-1.7-0.3-2.7c-0.3-1.2-0.2-3.3,0.1-4.4c0.3-1.3,0.3-2.3,0.7-3.4
	c1-2.4,3-4.1,5.5-4.9c2.7-0.9,6.5-0.7,10-0.7c5.4,0,10.8,0,16.2,0c18.5,0,37,0,55.4,0c5.1,0,10.3,0,15.4,0c4.4,0,8.6-0.1,11.2-1.8
	c2.8-1.9,3.2-4.3,4-8.2c0.3-1.5,0-4.5-0.3-5.6c-0.8-3.4-1.6-5.2-4.2-6.9c-1.5-0.9-3.4-1-5.3-1.4c-0.5,0-1,0-1.5,0
	c-1.5-0.3-3.6-0.1-5.3-0.1c-3.5,0-6.9,0-10.4,0c-19.3,0-38.6,0-58,0c-5.6,0-11.3,0-16.9,0c-3.6,0-7.5,0.2-10.3-0.7
	c-7.1-2.3-6.6-9.3-6.6-18.4c0-7.8,0-15.5,0-23.3c0-4.4,0-8.8,0-13.2c0-3.2-0.1-6.5,0.7-9c0.4-1.4,1.2-2.8,2.1-3.7
	c1.4-1.4,3.3-2,5.5-2.5C223.4,524,225.3,524.3,225.9,523.9z M678.3,523.9c63,0,125.9,0,188.9,0c14,0,28,0,41.9,0
	c8.7,0,15.7-0.6,18.3,5.6c0.6,1.3,0.7,3,0.9,4.5c0.2,1.4,0,3.2-0.2,4.3c-0.2,0.9-0.1,1.7-0.4,2.5c-0.6,2-1.9,3.8-3.5,4.8
	c-4.2,2.6-15.3,1.7-22.2,1.7c-19.2,0-38.5,0-57.8,0c-5.9,0-11.8,0-17.6,0c-3.2,0-7.1-0.3-9.8,0.4c-3.1,0.8-5.5,2.3-6.7,5
	c-1.8,4.2-1.1,13.1-1.1,19.1c0,21.3,0,42.7,0,64c0,5.2,0,10.5,0,15.7c0,3.9,0,7.8,1.5,10.3c0.9,1.5,2.3,2.8,3.9,3.5
	c2.8,1.2,6.9,1.1,10.9,1.1c3.5,0,7,0,10.5,0c15,0,30.1,0,45.2,0c7.3,0,15.7,0.8,20-2.3c1.6-1.1,2.5-3.3,3-5.4c0.2-0.8,0-1.4,0.2-2.2
	c0.2-0.9,0.3-2.9,0.1-4c-0.8-3.9-1.2-6.3-4-8.2c-3.3-2.2-9.3-1.8-14.8-1.8c-10.2,0-20.5,0-30.7,0c-6.1,0-13.6,0.7-17.4-1.7
	c-2.2-1.4-3.2-3.7-3.9-6.7c-0.3-1.1,0.1-2.1-0.2-3.3c-0.2-1.1-0.1-2.6-0.1-3.8c0-2.6,0-5.1,0-7.7c0-9.9,0-19.8,0-29.6
	c0-6.7-0.3-13.3,3.5-16.1c4.2-3.1,13.2-2.2,20.4-2.2c15.9,0,31.7,0,47.6,0c7.6,0,17.2-1,21.1,2.8c2.6,2.6,3.6,9.5,2.1,14.2
	c-0.8,2.6-2.5,4.5-4.9,5.5c-3.6,1.5-9.5,1-14.4,1c-10.7,0-21.5,0-32.3,0c-5.6,0-11.9-0.4-15.3,1.8c-2.8,1.9-3.2,4.3-4,8.2
	c-0.3,1.5,0,4.5,0.3,5.6c0.6,2.6,1.2,4.7,3,6c3.5,2.6,9.4,2.3,15.5,2.3c10.2,0,20.4,0,30.6,0c5,0,11.7-0.6,15.6,0.7
	c7.1,2.3,6.6,9.3,6.6,18.4c0,7.9,0,15.8,0,23.7c0,4.3,0,8.6,0,12.9c0,3.2,0.1,6.4-0.7,8.9c-0.4,1.4-1.2,2.8-2.1,3.7
	c-0.9,0.9-2.4,1.7-3.7,2.1c-2.4,0.8-5.5,0.7-8.6,0.7c-4.1,0-8.1,0-12.2,0c-21.5,0-43,0-64.5,0c-3.5,0-7.1,0-10.6,0
	c-1.7,0-3.9-0.2-5.4,0.1c-0.5,0-1,0-1.5,0c-2,0.4-3.9,0.5-5.3,1.4c-2.6,1.6-3.4,3.4-4.2,6.9c-0.3,1.2-0.6,4.1-0.3,5.6
	c0.7,3.2,1.1,6,3.3,7.7c1.2,0.9,2.7,1.5,4.3,1.9c2.2,0.6,4.8,0.4,7.4,0.4c4,0,8,0,12,0c21.1,0,42.3,0,63.4,0c3.8,0,7.6,0,11.4,0
	c1.8,0,4.1-0.3,5.7,0.1c0.6,0,1.1,0,1.7,0c2.2,0.5,4.2,0.6,5.7,1.6c3.2,2,4.2,5.8,4.1,11.1c0,1.5-0.2,3-0.6,4.2
	c-0.8,2.6-2.5,4.5-4.9,5.5c-2.5,1-6,1-9.5,1c-4.5,0-8.9,0-13.4,0c-21.7,0-43.3,0-65,0c-8.1,0-20.1-1.2-23.5,3.4
	c-3,4.2-2.3,12.5-2.3,19.8c0,14.9,0,29.8,0,44.7c0,23.7,0,47.4,0,71.2c0,4.1,0,8.3,0,12.4c0,2.6-0.2,5.4,0.4,7.6
	c0.6,2.1,1.5,4.3,3,5.4c3.7,2.7,10.3,2.3,16.8,2.3c11.7,0,23.3,0,35,0c7.8,0,15.5,0,23.3,0c4.9,0,9.8,0.1,12.7-1.8
	c2.9-2,4-5.5,4-10.4c0-1.5,0-2.8-0.3-4c-0.8-2.9-2-4.9-4.2-6.2c-3.3-2-9.7-1.5-14.9-1.5c-10.5,0-21,0-31.4,0
	c-5.8,0-12.5,0.5-16.1-1.7c-1.9-1.2-3.1-3.2-3.7-5.6c-0.2-0.8-0.2-1.8-0.4-2.6c0-0.6,0-1.1,0-1.7c-0.3-1.2-0.1-3-0.1-4.4
	c0-2.8,0-5.6,0-8.4c0-9.4,0-18.8,0-28.2c0-5.3-0.3-10.9,1.7-14.2c1.4-2.2,3.7-3.2,6.7-3.9c1.1-0.3,2.1,0.1,3.3-0.2
	c1-0.2,2.4-0.1,3.5-0.1c2.3,0,4.5,0,6.8,0c9,0,17.9,0,26.9,0c7,0,15,0.6,19-2.3c2.2-1.6,2.6-4.4,3.3-7.7c0.3-1.5,0-4.5-0.3-5.6
	c-0.5-2.1-0.9-3.5-1.9-4.9c-2.8-3.8-9.8-3.4-16.4-3.4c-10.5,0-21,0-31.4,0c-5.1,0-11.9,0.5-15.5-1c-2.4-1-4.1-3-4.9-5.5
	c-0.4-1.1-0.2-2.2-0.5-3.5c-0.2-0.9-0.2-2.6,0-3.4c0.2-1,0-1.8,0.3-2.7c0.8-3,2.4-5.2,5.1-6.4c1.3-0.5,2.9-0.6,4.3-0.9
	c0.6,0,1.1,0,1.7,0c1.4-0.3,3.4-0.1,4.9-0.1c3.3,0,6.5,0,9.8,0c14.9,0,29.8,0,44.7,0c7.7,0,17.6-1.1,21.5,2.8
	c3.2,3.2,2.8,9.7,2.8,16.1c0,10.4,0,20.8,0,31.1c0,5.1,0.5,11.8-1,15.4c-2.8,6.7-11.2,5.6-20.5,5.6c-10.4,0-20.8,0-31.1,0
	c-5.5,0-11.7-0.4-15,1.8c-2.8,1.9-3.2,4.3-4,8.2c-0.2,1.1-0.1,3.1,0.1,4c0.2,0.8,0,1.4,0.2,2.2c0.6,2.1,1.5,4.3,3,5.4
	c3.6,2.6,10,2.3,16.3,2.3c11,0,21.9,0,32.9,0c6.4,0,13.1-0.4,16.3,2.8c3.2,3.2,2.8,9.9,2.8,16.3c0,11.5,0,23.1,0,34.6
	c0,7.1,0.1,13.4-4.2,16.1c-3.8,2.4-11.3,1.7-17.3,1.7c-12.6,0-25.2,0-37.8,0c-47.8,0-95.6,0-143.4,0c-13.3,0-26.7,0-40,0
	c-8.6,0-15.5,0.5-18-5.6c-1.7-4-1-12.7-1-18.2c0-9.7,0-19.4,0-29c0-5.3-0.3-11.1,1.7-14.4c1.4-2.2,3.7-3.2,6.7-3.9
	c1.1-0.3,2.1,0.1,3.3-0.2c1.1-0.2,2.6-0.1,3.8-0.1c2.5,0,5,0,7.6,0c9.8,0,19.7,0,29.5,0c6.6,0,13.6,0.4,16.4-3.4
	c1.1-1.4,1.4-2.8,1.9-4.9c0.3-1.2,0.6-4.1,0.3-5.6c-0.7-3.2-1.1-6-3.3-7.7c-4.1-3-11.9-2.3-18.9-2.3c-9.3,0-18.6,0-27.9,0
	c-4.8,0-10.7,0.5-14.5-0.7c-7.1-2.3-6.6-9.3-6.6-18.4c0-7.9,0-15.9,0-23.8c0-4.3,0-8.6,0-12.9c0-3.1-0.1-6.3,0.7-8.8
	c0.4-1.4,1.2-2.8,2.1-3.7c2.7-2.7,7.5-2.8,12.9-2.8c4.7,0,9.4,0,14.1,0c14.6,0,29.3,0,43.9,0c7,0,14.9-0.7,18.3,2.8
	c2.4,2.4,3.6,8.7,2.3,13.4c-0.7,2.4-1.8,4.5-3.7,5.6c-3.6,2.2-10.1,1.7-15.8,1.7c-10.1,0-20.2,0-30.2,0c-5.4,0-11.8-0.5-15.6,1.1
	c-2.7,1.2-4.2,3.6-5,6.7c-0.3,1.3-0.3,2.6-0.3,4.1c0,5.5,1.5,9.4,5.3,11c3.6,1.5,9.4,1.1,14.5,1.1c10.6,0,21.2,0,31.8,0
	c5.6,0,11.9-0.4,15.3,1.7c2.2,1.4,3.2,3.7,3.9,6.7c0.3,1.1-0.1,2.1,0.2,3.3c0.2,1.1,0.1,2.7,0.1,4c0,2.7,0,5.4,0,8.1c0,9,0,18,0,27
	c0,5.8,0.5,12.5-1.7,16.1c-1.2,1.9-3.2,3.1-5.6,3.7c-3.7,1-9.7,0.5-14.2,0.5c-9.1,0-18.2,0-27.3,0c-7,0-15-0.6-19,2.3
	c-2.2,1.6-2.6,4.4-3.3,7.7c-0.2,1.1-0.1,3.1,0.1,4c0.2,0.8,0,1.4,0.2,2.2c0.8,2.9,2,4.9,4.2,6.2c3.8,2.3,14.6,1.5,20.9,1.5
	c15.4,0,30.8,0,46.2,0c7.3,0,16,0.8,20.3-2.3c3.2-2.4,3.4-7.6,3.4-13.2c0-7.6,0-15.1,0-22.7c0-31.4,0-62.8,0-94.1
	c0-5.8,0-11.6,0-17.4c0-6.8-0.1-12.4-4.1-15.1c-2.6-1.7-6.7-1.8-11-1.8c-4.8,0-9.7,0-14.5,0c-20.9,0-41.8,0-62.7,0
	c-3.3,0-6.6,0-9.9,0c-1.6,0-3.6,0.2-5-0.1c-0.6,0-1.1,0-1.7,0c-1.5-0.3-3.1-0.4-4.3-0.9c-4-1.7-6.1-6.1-5.5-12.3
	c0.1-1.6,0.4-3.3,0.9-4.6c0.9-2.1,2.6-3.8,4.6-4.6c2.5-1.1,6.1-1,9.7-1c4.8,0,9.6,0,14.4,0c20.8,0,41.5,0,62.3,0c3.9,0,7.9,0,11.8,0
	c2.6,0,5.2,0.2,7.4-0.4c1.6-0.4,3.1-1,4.3-1.9c2.2-1.6,2.6-4.4,3.3-7.7c0.3-1.5,0-4.5-0.3-5.6c-0.8-3.4-1.6-5.3-4.2-6.9
	c-1.5-0.9-3.4-1-5.3-1.4c-0.5,0-1,0-1.5,0c-1.5-0.3-3.6-0.1-5.3-0.1c-3.5,0-7.1,0-10.6,0c-21.4,0-42.8,0-64.2,0c-4.1,0-8.1,0-12.2,0
	c-3.1,0-6.2,0.1-8.6-0.7c-1.4-0.4-2.8-1.2-3.7-2.1c-0.9-0.9-1.7-2.4-2.1-3.7c-0.8-2.5-0.7-5.7-0.7-8.9c0-4.3,0-8.6,0-12.9
	c0-7.9,0-15.9,0-23.8c0-9.1-0.5-16.1,6.6-18.3c3.9-1.3,10.6-0.7,15.6-0.7c10.1,0,20.2,0,30.3,0c6.1,0,11.9,0.2,15.4-2.3
	c1.8-1.3,2.4-3.5,3-6c0.3-1.2,0.6-4.1,0.3-5.6c-0.8-3.9-1.2-6.3-4-8.2c-3.4-2.2-9.6-1.8-15.2-1.8c-10.7,0-21.4,0-32.1,0
	c-4.9,0-10.7,0.5-14.3-1c-2.4-1-4.1-3-4.9-5.5c-1.7-5.2-0.3-12.5,2.8-14.8c4.2-3.1,13.1-2.2,20.3-2.2c15.8,0,31.6,0,47.4,0
	c7.6,0,17.1-1,21,2.8c3.2,3.2,2.8,10,2.8,16.4c0,9.8,0,19.6,0,29.4c0,4.6,0.5,11.3-0.5,15.1c-0.8,3-2.4,5.2-5.1,6.4
	c-3.8,1.6-10.7,1-15.9,1c-10.3,0-20.6,0-30.8,0c-5.5,0-11.5-0.4-14.8,1.8c-2.8,1.9-3.2,4.3-4,8.2c-0.2,1.1-0.1,3.1,0.1,4
	c0.2,0.8,0,1.4,0.2,2.2c0.6,2.1,1.5,4.3,3,5.4c4.2,3,12.5,2.3,19.7,2.3c14.8,0,29.6,0,44.3,0c4.2,0,8.3,0,12.5,0
	c2.7,0,5.4,0.2,7.7-0.4c2.1-0.6,4.3-1.5,5.4-3c2.5-3.4,2.3-9,2.3-15c0-9.3,0-18.6,0-27.9c0-17,0-34,0-51c0-8.3,0.9-16.6-4.1-20
	c-2.6-1.7-6.7-1.8-11.1-1.8c-4.9,0-9.7,0-14.6,0c-20,0-40,0-60,0c-3.9,0-7.7,0-11.6,0c-1.9,0-4.2,0.3-5.8-0.1c-0.6,0-1.1,0-1.7,0
	c-2.2-0.5-4.2-0.6-5.7-1.6c-5.1-3.2-5.8-15.9-0.7-19.7c1.3-1,3-1.5,4.8-1.9C675.7,524,677.7,524.3,678.3,523.9z M81.6,524
	c4.6,0,8.4,0.4,10.7,2.7c3.6,3.6,2.8,12.2,2.8,19.5c0,16,0,32,0,48c0,6.8-0.9,16.7,1.8,20.8c1.6,2.3,3.9,3.2,7.2,3.9
	c1.3,0.3,3.7,0.3,5,0c0.8-0.2,1.4,0,2.2-0.2c1.6-0.4,3.1-1,4.3-1.9c4.5-3.3,3.4-13,3.4-20.7c0-17,0-34.1,0-51.1
	c0-9.1-0.9-17.3,5.6-20.1c1.3-0.6,2.9-0.6,4.4-0.9c1.6-0.4,4.5,0.1,5.6,0.4c2.8,0.7,4.8,1.6,6.1,3.7c2.5,4,1.7,12.9,1.7,19.4
	c0,15.8,0,31.5,0,47.3c0,6.6-0.9,16.1,1.8,20.2c1.9,2.8,4.3,3.2,8.2,4c1.1,0.2,3.1,0.1,4-0.1c0.8-0.2,1.4,0,2.2-0.2
	c2.6-0.7,4.7-1.8,5.9-3.7c2.7-4.1,1.8-13.9,1.8-20.7c0-16.2,0-32.3,0-48.5c0-6.1-0.7-13.8,1.7-17.6c1.3-2.2,3.3-3,6.1-3.7
	c1.2-0.3,4-0.8,5.6-0.4c1.5,0.3,3.1,0.4,4.4,0.9c2.1,0.9,3.8,2.6,4.6,4.6c0.5,1.3,0.6,2.9,0.9,4.3c0,0.6,0,1.1,0,1.7
	c0.3,1.4,0.1,3.4,0.1,4.9c0,3.3,0,6.5,0,9.8c0,21.6,0,43.3,0,64.9c0,4.1,0,8.1,0,12.2c0,3.1,0.1,6.2-0.7,8.7
	c-0.4,1.4-1.2,2.8-2.1,3.7c-2.8,2.8-8,2.8-13.6,2.8c-5.1,0-10.2,0-15.3,0c-3.9,0-7.7,0-10.4,1.1c-2.7,1.2-4.2,3.6-5,6.7
	c-0.4,1.4-0.6,4.6-0.2,6.2c0.3,1.3,0.1,2.3,0.5,3.4c1.1,3.4,3.5,5.2,7.1,6.1c2.4,0.6,5.4,0.4,8.3,0.4c4.7,0,9.3,0,14,0
	c8.1,0,14.1-0.1,16.5,5.6c1.7,4,1,13.1,1,18.7c0,13.2,0,26.5,0,39.7c0,46.1,0,92.3,0,138.4c0,13.3,0,26.6,0,39.9
	c0,9.3,0.6,16.4-6.6,18.7c-1.1,0.4-2.4,0.4-3.6,0.6c-1.4,0.2-3.2,0-4.3-0.2c-2.8-0.6-4.5-0.8-6.2-2.5c-3.4-3.4-2.8-10.6-2.8-17.3
	c0-7.4,0-14.7,0-22.1c0-48.2,0-96.4,0-144.6c0-10.7,0-21.3,0-32c0-6.3,0.3-12.4-2.3-16c-1.1-1.6-3.3-2.5-5.4-3
	c-0.8-0.2-1.4,0-2.2-0.2c-0.9-0.2-2.9-0.3-4-0.1c-3.9,0.8-6.3,1.2-8.2,4c-2.3,3.5-1.8,9.9-1.8,15.6c0,11.1,0,22.2,0,33.4
	c0,46.6,0,93.1,0,139.7c0,9.1,0,18.2,0,27.3c0,5.2,0.3,10.7-1.7,13.9c-1.9,3-4.4,3.3-8.4,4.1c-0.9,0.2-2.6,0.1-3.4-0.1
	c-0.6,0-1.1-0.1-1.7-0.1c-2.2-0.5-4.2-1.2-5.5-2.5c-3.1-3.1-2.8-9.1-2.8-15.2c0-10.8,0-21.6,0-32.4c0-49.5,0-99,0-148.5
	c0-7.4,0-14.8,0-22.2c0-5.6,0-10.6-2.3-13.8c-2.2-3-7.2-3.6-12.4-3.2c-2.3,0.2-4.4,1-5.8,2.1c-3.5,2.5-3.4,8.4-3.4,14.5
	c0,10.4,0,20.8,0,31.2c0,45.4,0,90.9,0,136.3c0,11.4,0,22.8,0,34.2c0,5.8,0.5,12.4-1.9,15.8c-1.9,2.8-4.3,3-8.2,3.8
	c-1.6,0.4-4.5-0.1-5.6-0.4c-2.8-0.7-4.8-1.6-6.1-3.7c-1.7-2.8-1.7-7.2-1.7-11.7c0-6.1,0-12.2,0-18.3c0-38.7,0-77.4,0-116.1
	c0-25.5,0-50.9,0-76.4c0-6.3,0-12.7,0-19.1c0-4.5,0-9,1.7-11.8c2.4-3.9,7.6-4.2,13.9-4.2c5.2,0,10.5,0,15.7,0c3.4,0,7,0.2,9.7-0.7
	c3.4-1.1,5.2-3.5,6.1-7.1c0.2-0.8,0-1.4,0.2-2.2c0.3-1.6,0.2-4.8-0.2-6.2c-0.8-3.1-2.3-5.5-5-6.7c-2.8-1.2-6.7-1.1-10.7-1.1
	c-5.2,0-10.5,0-15.7,0c-3.7,0-7.4,0.1-10.1-1c-2.7-1.1-4.3-3.3-5.1-6.4c-0.8-2.9-0.5-6.7-0.5-10.2c0-5.9,0-11.9,0-17.8
	c0-18.5,0-37.1,0-55.6c0-3.5,0-7.1,0-10.6c0-1.7-0.2-3.9,0.1-5.4c0-0.6,0-1.1,0-1.7c0.5-2.2,0.6-4.2,1.6-5.7c1-1.6,2.8-2.9,4.8-3.5
	C78.8,524.4,81.1,524.3,81.6,524z M533.9,524c4.6,0,8.4,0.4,10.7,2.7c3.6,3.6,2.8,12.2,2.8,19.5c0,16,0,32,0,48
	c0,6.8-0.9,16.7,1.8,20.8c1.6,2.3,3.9,3.2,7.2,3.9c1.3,0.3,3.7,0.3,5,0c0.8-0.2,1.4,0,2.2-0.2c1.6-0.4,3.1-1,4.3-1.9
	c4.5-3.3,3.4-13,3.4-20.7c0-17,0-34.1,0-51.1c0-9.1-0.9-17.3,5.6-20.1c1.4-0.6,2.7-0.4,4.4-0.8c4.7-1,9.9,1.3,11.6,3.7
	c2.8,4,1.9,13.7,1.9,20.5c0,16.1,0,32.2,0,48.3c0,7-0.6,15,2.3,19.1c1.3,1.8,3.5,2.4,6,3c1.2,0.3,4.1,0.6,5.6,0.3
	c3.9-0.8,6.3-1.2,8.2-4c2.7-4,1.8-13.6,1.8-20.3c0-15.8,0-31.5,0-47.3c0-7.5-1-16.9,2.8-20.7c1.7-1.7,3.5-1.9,6.2-2.5
	c1.1-0.2,3-0.4,4.3-0.2c1.6,0.2,3.2,0.4,4.5,0.9c2.1,0.9,3.8,2.6,4.6,4.6c0.5,1.3,0.6,2.9,0.9,4.3c0,0.6,0,1.1,0,1.7
	c0.3,1.4,0.1,3.4,0.1,4.9c0,3.3,0,6.5,0,9.8c0,21.6,0,43.3,0,64.9c0,4.1,0,8.1,0,12.2c0,3.1,0.1,6.2-0.7,8.7
	c-0.4,1.4-1.2,2.8-2.1,3.7c-2.8,2.8-8,2.8-13.6,2.8c-5.1,0-10.2,0-15.3,0c-3.9,0-7.7,0-10.4,1.1c-2.7,1.2-4.2,3.6-5,6.7
	c-0.4,1.4-0.6,4.6-0.2,6.2c0.3,1.3,0.1,2.3,0.5,3.4c1.1,3.4,3.5,5.2,7.1,6.1c2.4,0.6,5.4,0.4,8.3,0.4c4.7,0,9.3,0,14,0
	c8.1,0,14.1-0.1,16.5,5.6c1.7,4,1,13.1,1,18.7c0,13.2,0,26.5,0,39.7c0,46.1,0,92.3,0,138.4c0,13.3,0,26.6,0,39.9
	c0,9.3,0.6,16.4-6.6,18.7c-1.1,0.4-2.4,0.4-3.6,0.6c-1.4,0.2-3.2,0-4.3-0.2c-2.8-0.6-4.5-0.8-6.2-2.5c-3.4-3.4-2.8-10.6-2.8-17.3
	c0-7.4,0-14.7,0-22.1c0-48.2,0-96.4,0-144.6c0-10.7,0-21.3,0-32c0-6.3,0.3-12.4-2.3-16c-1.1-1.6-3.3-2.5-5.4-3
	c-0.8-0.2-1.4,0-2.2-0.2c-0.9-0.2-2.9-0.3-4-0.1c-3.9,0.8-6.3,1.2-8.2,4c-2.3,3.5-1.8,9.9-1.8,15.6c0,11.1,0,22.2,0,33.4
	c0,46.6,0,93.1,0,139.7c0,9.1,0,18.2,0,27.3c0,5.2,0.3,10.7-1.7,13.9c-1.9,3-4.4,3.3-8.4,4.1c-0.9,0.2-2.6,0.1-3.4-0.1
	c-0.6,0-1.1-0.1-1.7-0.1c-2.2-0.5-4.2-1.2-5.5-2.5c-3.1-3.1-2.8-9.1-2.8-15.2c0-10.8,0-21.6,0-32.4c0-49.5,0-99,0-148.5
	c0-7.4,0-14.8,0-22.2c0-5.6,0-10.6-2.3-13.8c-2.2-3-7.2-3.6-12.4-3.2c-2.3,0.2-4.4,1-5.8,2.1c-3.5,2.5-3.4,8.4-3.4,14.5
	c0,10.4,0,20.8,0,31.2c0,45.4,0,90.9,0,136.3c0,11.4,0,22.8,0,34.2c0,5.8,0.5,12.4-1.9,15.8c-1.9,2.8-4.3,3-8.2,3.8
	c-1.6,0.4-4.5-0.1-5.6-0.4c-2.8-0.7-4.8-1.6-6.1-3.7c-1.7-2.8-1.7-7.2-1.7-11.7c0-6.1,0-12.2,0-18.3c0-38.7,0-77.4,0-116.1
	c0-25.5,0-50.9,0-76.4c0-6.3,0-12.7,0-19.1c0-4.5,0-9,1.7-11.8c2.4-3.9,7.6-4.2,13.9-4.2c5.2,0,10.5,0,15.7,0c3.4,0,7,0.2,9.7-0.7
	c3.4-1.1,5.2-3.5,6.1-7.1c0.2-0.8,0-1.4,0.2-2.2c0.3-1.6,0.2-4.8-0.2-6.2c-0.8-3.1-2.3-5.5-5-6.7c-2.8-1.2-6.7-1.1-10.7-1.1
	c-5.2,0-10.5,0-15.7,0c-3.7,0-7.4,0.1-10.1-1c-2.7-1.1-4.3-3.3-5.1-6.4c-0.8-2.9-0.5-6.7-0.5-10.2c0-5.9,0-11.9,0-17.8
	c0-18.5,0-37.1,0-55.6c0-3.5,0-7.1,0-10.6c0-1.7-0.2-3.9,0.1-5.4c0-0.6,0-1.1,0-1.7c0.5-2.2,0.6-4.2,1.6-5.7c1-1.6,2.8-2.9,4.8-3.5
	C531.2,524.4,533.4,524.3,533.9,524z"/>
</svg>
